{"glyphs":{"0":{"ha":903,"x_min":86,"x_max":815,"o":"m 350 -6 q 156 60 225 -6 q 86 253 86 126 l 86 768 q 157 965 86 896 q 351 1033 228 1033 l 561 1033 q 751 964 688 1033 q 815 768 815 894 l 815 253 q 748 60 815 126 q 560 -6 681 -6 l 350 -6 m 515 150 q 644 278 644 150 l 644 751 q 522 879 644 879 l 385 879 q 291 847 324 879 q 258 751 258 814 l 258 278 q 292 182 258 214 q 390 150 326 150 l 515 150 z "},"1":{"ha":513,"x_min":49,"x_max":414,"o":"m 242 869 l 49 835 l 49 944 l 260 1035 l 414 1035 l 414 0 l 242 0 l 242 869 z "},"2":{"ha":818,"x_min":68,"x_max":763,"o":"m 68 139 l 424 488 q 526 611 494 556 q 557 733 557 667 q 517 835 557 800 q 381 871 478 871 l 96 871 l 96 1006 q 259 1026 186 1018 q 415 1033 332 1033 q 658 964 586 1033 q 729 760 729 894 q 688 578 729 658 q 557 410 647 499 l 297 156 l 763 156 l 763 0 l 68 0 l 68 139 z "},"3":{"ha":807,"x_min":56,"x_max":731,"o":"m 440 -8 q 56 17 224 -8 l 56 154 l 378 154 q 513 179 469 154 q 557 271 557 204 l 557 322 q 515 410 557 382 q 407 440 474 438 l 151 451 l 151 582 l 400 594 q 508 622 471 597 q 544 699 544 646 l 544 746 q 502 840 544 810 q 369 871 460 871 l 82 871 l 82 1008 q 438 1033 279 1036 q 644 968 572 1032 q 715 785 715 904 l 715 706 q 676 580 715 626 q 579 517 638 533 q 685 443 639 500 q 731 300 731 386 l 731 240 q 654 56 731 121 q 440 -8 578 -8 z "},"4":{"ha":847,"x_min":33,"x_max":818,"o":"m 529 233 l 67 233 l 33 318 l 385 1025 l 561 1025 l 236 379 l 529 379 l 529 606 l 564 715 l 700 715 l 700 379 l 818 379 l 818 261 l 700 233 l 700 1 l 529 1 l 529 233 z "},"5":{"ha":856,"x_min":94,"x_max":783,"o":"m 447 -7 q 94 13 279 -7 l 94 147 l 454 147 q 572 185 532 147 q 611 282 611 224 l 611 368 q 579 458 611 426 q 482 490 547 490 l 392 490 q 312 468 340 490 q 275 400 283 446 l 113 400 l 142 1025 l 746 1025 l 746 871 l 290 871 l 276 581 q 336 621 297 606 q 426 636 375 636 l 542 636 q 721 570 658 636 q 783 399 783 504 l 783 247 q 447 -7 783 -7 z "},"6":{"ha":851,"x_min":81,"x_max":779,"o":"m 379 -6 q 213 39 278 -6 q 115 194 149 83 q 81 504 81 306 q 176 910 81 786 q 460 1033 272 1033 q 718 1014 604 1033 l 718 879 l 472 879 q 253 583 253 879 q 503 604 342 604 q 713 547 647 604 q 779 376 779 490 l 779 231 q 713 51 779 108 q 532 -6 646 -6 l 379 -6 m 494 149 q 578 175 549 149 q 608 263 608 201 l 608 344 q 573 435 608 411 q 457 458 538 458 l 253 458 q 270 270 253 338 q 322 176 288 203 q 413 149 357 149 l 494 149 z "},"7":{"ha":764,"x_min":36,"x_max":722,"o":"m 501 854 l 36 854 l 36 1025 l 675 1025 l 722 949 l 371 0 l 178 0 l 501 854 z "},"8":{"ha":879,"x_min":92,"x_max":788,"o":"m 356 -6 q 92 211 92 -6 l 92 354 q 126 463 92 417 q 213 521 161 510 q 133 594 153 550 q 113 701 113 638 l 113 819 q 177 981 113 929 q 347 1033 242 1033 l 540 1033 q 706 982 644 1033 q 768 819 768 931 l 768 701 q 744 600 768 651 q 672 538 719 549 q 760 472 733 524 q 788 360 788 421 l 788 211 q 722 44 788 93 q 543 -6 657 -6 l 356 -6 m 500 597 q 600 703 600 597 l 600 779 q 576 864 600 840 q 504 888 553 888 l 383 888 q 304 863 328 888 q 281 779 281 839 l 281 703 q 305 623 281 649 q 383 597 329 597 l 500 597 m 504 142 q 590 166 565 142 q 615 242 615 190 l 615 346 q 588 425 615 400 q 501 450 561 450 l 383 450 q 301 424 338 450 q 264 346 264 397 l 264 242 q 294 165 264 189 q 383 142 325 142 l 504 142 z "},"9":{"ha":851,"x_min":74,"x_max":774,"o":"m 394 -7 q 135 13 251 -7 l 135 147 l 381 147 q 601 443 601 147 q 351 422 513 422 q 140 479 207 422 q 74 651 74 536 l 74 797 q 141 975 74 918 q 322 1032 208 1032 l 475 1032 q 641 988 576 1032 q 740 832 706 943 q 774 522 774 721 q 678 117 774 240 q 394 -7 582 -7 m 601 569 q 584 758 601 690 q 533 851 567 825 q 442 878 499 878 l 360 878 q 275 852 304 878 q 246 764 246 826 l 246 682 q 281 592 246 615 q 397 569 317 569 l 601 569 z "},"\r":{"ha":364,"x_min":0,"x_max":0,"o":""}," ":{"ha":364,"x_min":0,"x_max":0,"o":""},"A":{"ha":946,"x_min":32,"x_max":915,"o":"m 365 1025 l 582 1025 l 915 0 l 736 0 l 657 243 l 286 243 l 208 0 l 32 0 l 365 1025 m 615 397 l 471 878 l 326 397 l 615 397 z "},"Á":{"ha":946,"x_min":32,"x_max":915,"o":"m 365 1025 l 582 1025 l 915 0 l 736 0 l 657 243 l 286 243 l 208 0 l 32 0 l 365 1025 m 615 397 l 471 878 l 326 397 l 615 397 m 551 1292 l 693 1292 l 528 1099 l 428 1099 l 551 1292 z "},"Ă":{"ha":946,"x_min":32,"x_max":915,"o":"m 365 1025 l 582 1025 l 915 0 l 736 0 l 657 243 l 286 243 l 208 0 l 32 0 l 365 1025 m 615 397 l 471 878 l 326 397 l 615 397 m 461 1090 q 323 1140 374 1090 q 272 1296 272 1190 l 353 1296 q 383 1200 353 1231 q 461 1169 414 1169 q 571 1296 571 1172 l 653 1296 q 602 1140 653 1190 q 461 1090 551 1090 z "},"Ắ":{"ha":946,"x_min":32,"x_max":915,"o":"m 365 1025 l 582 1025 l 915 0 l 736 0 l 657 243 l 286 243 l 208 0 l 32 0 l 365 1025 m 615 397 l 471 878 l 326 397 l 615 397 m 532 1456 l 674 1456 l 508 1263 l 408 1263 l 532 1456 m 353 1238 q 382 1168 353 1190 q 457 1146 411 1146 q 571 1238 571 1146 l 653 1238 q 602 1115 653 1154 q 461 1075 551 1075 q 322 1115 372 1075 q 272 1238 272 1154 l 353 1238 z "},"Ặ":{"ha":946,"x_min":32,"x_max":915,"o":"m 365 1025 l 582 1025 l 915 0 l 736 0 l 657 243 l 286 243 l 208 0 l 32 0 l 365 1025 m 615 397 l 471 878 l 326 397 l 615 397 m 461 1090 q 323 1140 374 1090 q 272 1296 272 1190 l 353 1296 q 383 1200 353 1231 q 461 1169 414 1169 q 571 1296 571 1172 l 653 1296 q 602 1140 653 1190 q 461 1090 551 1090 m 431 -306 q 412 -299 419 -306 q 404 -279 404 -292 l 404 -154 q 431 -126 404 -126 l 510 -126 q 529 -134 522 -126 q 536 -154 536 -142 l 536 -279 q 510 -306 536 -306 l 431 -306 z "},"Ằ":{"ha":946,"x_min":32,"x_max":915,"o":"m 365 1025 l 582 1025 l 915 0 l 736 0 l 657 243 l 286 243 l 208 0 l 32 0 l 365 1025 m 615 397 l 471 878 l 326 397 l 615 397 m 261 1456 l 401 1456 l 526 1263 l 425 1263 l 261 1456 m 353 1238 q 382 1168 353 1190 q 457 1146 411 1146 q 571 1238 571 1146 l 653 1238 q 602 1115 653 1154 q 461 1075 551 1075 q 322 1115 372 1075 q 272 1238 272 1154 l 353 1238 z "},"Ẳ":{"ha":946,"x_min":32,"x_max":915,"o":"m 365 1025 l 582 1025 l 915 0 l 736 0 l 657 243 l 286 243 l 208 0 l 32 0 l 365 1025 m 615 397 l 471 878 l 326 397 l 615 397 m 433 1279 q 497 1344 497 1299 q 444 1392 497 1392 q 397 1383 428 1392 l 397 1451 q 467 1463 431 1463 q 558 1433 526 1463 q 589 1350 589 1403 q 551 1261 589 1297 q 433 1203 514 1225 l 433 1279 m 461 1075 q 322 1115 372 1075 q 272 1238 272 1154 l 353 1238 q 382 1168 353 1190 q 457 1146 411 1146 q 571 1238 571 1146 l 653 1238 q 602 1115 653 1154 q 461 1075 551 1075 z "},"Ẵ":{"ha":946,"x_min":32,"x_max":915,"o":"m 365 1025 l 582 1025 l 915 0 l 736 0 l 657 243 l 286 243 l 208 0 l 32 0 l 365 1025 m 615 397 l 471 878 l 326 397 l 615 397 m 361 1419 q 404 1414 383 1419 q 442 1402 425 1408 q 463 1394 458 1396 q 502 1380 482 1386 q 539 1374 522 1374 q 583 1387 567 1374 q 599 1425 599 1400 l 686 1425 q 652 1321 681 1351 q 567 1290 624 1290 q 519 1297 543 1290 q 465 1315 496 1303 q 390 1336 415 1336 q 347 1323 364 1336 q 329 1288 331 1310 l 243 1288 q 279 1391 247 1363 q 361 1419 311 1419 m 353 1238 q 382 1168 353 1190 q 457 1146 411 1146 q 571 1238 571 1146 l 653 1238 q 602 1115 653 1154 q 461 1075 551 1075 q 322 1115 372 1075 q 272 1238 272 1154 l 353 1238 z "},"Â":{"ha":946,"x_min":32,"x_max":915,"o":"m 365 1025 l 582 1025 l 915 0 l 736 0 l 657 243 l 286 243 l 208 0 l 32 0 l 365 1025 m 615 397 l 471 878 l 326 397 l 615 397 m 417 1292 l 535 1292 l 678 1099 l 576 1099 l 472 1214 l 361 1099 l 260 1099 l 417 1292 z "},"Ấ":{"ha":946,"x_min":32,"x_max":915,"o":"m 365 1025 l 582 1025 l 915 0 l 736 0 l 657 243 l 286 243 l 208 0 l 32 0 l 365 1025 m 615 397 l 471 878 l 326 397 l 615 397 m 821 1389 l 697 1213 l 596 1213 l 681 1389 l 821 1389 m 533 1244 l 676 1099 l 576 1099 l 472 1167 l 360 1099 l 258 1099 l 415 1244 l 533 1244 z "},"Ậ":{"ha":946,"x_min":32,"x_max":915,"o":"m 365 1025 l 582 1025 l 915 0 l 736 0 l 657 243 l 286 243 l 208 0 l 32 0 l 365 1025 m 615 397 l 471 878 l 326 397 l 615 397 m 417 1292 l 535 1292 l 678 1099 l 576 1099 l 472 1214 l 361 1099 l 260 1099 l 417 1292 m 431 -306 q 412 -299 419 -306 q 404 -279 404 -292 l 404 -154 q 431 -126 404 -126 l 510 -126 q 529 -134 522 -126 q 536 -154 536 -142 l 536 -279 q 510 -306 536 -306 l 431 -306 z "},"Ầ":{"ha":946,"x_min":32,"x_max":915,"o":"m 365 1025 l 582 1025 l 915 0 l 736 0 l 657 243 l 286 243 l 208 0 l 32 0 l 365 1025 m 615 397 l 471 878 l 326 397 l 615 397 m 263 1389 l 347 1213 l 246 1213 l 122 1389 l 263 1389 m 533 1244 l 676 1099 l 576 1099 l 472 1167 l 360 1099 l 258 1099 l 415 1244 l 533 1244 z "},"Ẩ":{"ha":946,"x_min":32,"x_max":915,"o":"m 365 1025 l 582 1025 l 915 0 l 736 0 l 657 243 l 286 243 l 208 0 l 32 0 l 365 1025 m 615 397 l 471 878 l 326 397 l 615 397 m 629 1250 q 682 1304 682 1267 q 672 1333 682 1324 q 639 1343 663 1343 q 593 1335 614 1343 l 593 1396 q 661 1406 621 1406 q 738 1382 713 1406 q 764 1314 764 1358 q 629 1174 764 1211 l 629 1250 m 415 1244 l 533 1244 l 676 1099 l 576 1099 l 472 1167 l 360 1099 l 258 1099 l 415 1244 z "},"Ẫ":{"ha":946,"x_min":32,"x_max":915,"o":"m 365 1025 l 582 1025 l 915 0 l 736 0 l 657 243 l 286 243 l 208 0 l 32 0 l 365 1025 m 615 397 l 471 878 l 326 397 l 615 397 m 361 1435 q 463 1410 401 1435 q 539 1389 513 1389 q 583 1403 567 1389 q 599 1442 599 1417 l 686 1442 q 652 1336 681 1367 q 567 1306 624 1306 q 520 1312 542 1306 q 461 1331 499 1318 q 382 1351 407 1351 q 344 1339 358 1351 q 329 1304 331 1326 l 243 1304 q 278 1407 247 1379 q 361 1435 310 1435 m 676 1099 l 576 1099 l 472 1167 l 360 1099 l 258 1099 l 415 1244 l 533 1244 l 676 1099 z "},"Ȁ":{"ha":946,"x_min":32,"x_max":915,"o":"m 365 1025 l 582 1025 l 915 0 l 736 0 l 657 243 l 286 243 l 208 0 l 32 0 l 365 1025 m 615 397 l 471 878 l 326 397 l 615 397 m 163 1292 l 303 1292 l 428 1099 l 326 1099 l 163 1292 m 394 1292 l 535 1292 l 660 1099 l 558 1099 l 394 1292 z "},"Ä":{"ha":946,"x_min":32,"x_max":915,"o":"m 365 1025 l 582 1025 l 915 0 l 736 0 l 657 243 l 286 243 l 208 0 l 32 0 l 365 1025 m 615 397 l 471 878 l 326 397 l 615 397 m 268 1115 q 249 1122 257 1115 q 242 1142 242 1129 l 242 1267 q 249 1287 242 1279 q 268 1294 256 1294 l 349 1294 q 367 1287 361 1294 q 374 1267 374 1279 l 374 1142 q 349 1115 374 1115 l 268 1115 m 575 1115 q 556 1122 564 1115 q 549 1142 549 1129 l 549 1267 q 575 1294 549 1294 l 654 1294 q 674 1287 667 1294 q 681 1267 681 1279 l 681 1142 q 654 1115 681 1115 l 575 1115 z "},"Ạ":{"ha":946,"x_min":32,"x_max":915,"o":"m 365 1025 l 582 1025 l 915 0 l 736 0 l 657 243 l 286 243 l 208 0 l 32 0 l 365 1025 m 615 397 l 471 878 l 326 397 l 615 397 m 431 -306 q 412 -299 419 -306 q 404 -279 404 -292 l 404 -154 q 431 -126 404 -126 l 510 -126 q 529 -134 522 -126 q 536 -154 536 -142 l 536 -279 q 510 -306 536 -306 l 431 -306 z "},"À":{"ha":946,"x_min":32,"x_max":915,"o":"m 365 1025 l 582 1025 l 915 0 l 736 0 l 657 243 l 286 243 l 208 0 l 32 0 l 365 1025 m 615 397 l 471 878 l 326 397 l 615 397 m 275 1292 l 415 1292 l 540 1099 l 439 1099 l 275 1292 z "},"Ả":{"ha":946,"x_min":32,"x_max":915,"o":"m 365 1025 l 582 1025 l 915 0 l 736 0 l 657 243 l 286 243 l 208 0 l 32 0 l 365 1025 m 615 397 l 471 878 l 326 397 l 615 397 m 433 1144 q 497 1210 497 1164 q 444 1257 497 1257 q 397 1249 428 1257 l 397 1317 q 467 1328 431 1328 q 558 1298 526 1328 q 589 1215 589 1268 q 551 1126 589 1163 q 433 1068 514 1090 l 433 1144 z "},"Ȃ":{"ha":946,"x_min":32,"x_max":915,"o":"m 365 1025 l 582 1025 l 915 0 l 736 0 l 657 243 l 286 243 l 208 0 l 32 0 l 365 1025 m 615 397 l 471 878 l 326 397 l 615 397 m 471 1299 q 609 1249 558 1299 q 660 1093 660 1199 l 579 1093 q 549 1189 579 1158 q 471 1219 518 1219 q 361 1093 361 1217 l 279 1093 q 330 1249 279 1199 q 471 1299 381 1299 z "},"Ā":{"ha":946,"x_min":32,"x_max":915,"o":"m 365 1025 l 582 1025 l 915 0 l 736 0 l 657 243 l 286 243 l 208 0 l 32 0 l 365 1025 m 615 397 l 471 878 l 326 397 l 615 397 m 272 1235 l 654 1235 l 654 1133 l 272 1133 l 272 1235 z "},"Ą":{"ha":946,"x_min":32,"x_max":915,"o":"m 365 1025 l 582 1025 l 915 0 l 736 0 l 657 243 l 286 243 l 208 0 l 32 0 l 365 1025 m 615 397 l 471 878 l 326 397 l 615 397 m 786 -264 q 676 -228 714 -264 q 639 -139 639 -192 q 663 -58 639 -94 q 735 0 688 -22 l 799 0 q 724 -100 724 -44 q 749 -157 724 -136 q 817 -178 774 -178 l 828 -178 l 828 -260 q 786 -264 814 -264 z "},"Å":{"ha":946,"x_min":32,"x_max":915,"o":"m 365 1025 l 582 1025 l 915 0 l 736 0 l 657 243 l 286 243 l 208 0 l 32 0 l 365 1025 m 615 397 l 471 878 l 326 397 l 615 397 m 471 1064 q 347 1099 388 1064 q 306 1218 306 1135 q 347 1338 306 1301 q 471 1374 388 1374 q 594 1338 554 1374 q 635 1218 635 1303 q 595 1099 635 1135 q 471 1064 556 1064 m 471 1129 q 535 1149 515 1129 q 554 1218 554 1168 q 535 1288 554 1268 q 471 1308 515 1308 q 406 1288 426 1308 q 386 1218 386 1268 q 406 1149 386 1168 q 471 1129 426 1129 z "},"Ǻ":{"ha":946,"x_min":32,"x_max":915,"o":"m 471 1064 q 347 1099 388 1064 q 306 1218 306 1135 q 339 1329 306 1293 q 439 1372 372 1365 l 551 1547 l 693 1547 l 539 1367 q 611 1319 588 1354 q 635 1218 635 1283 q 595 1099 635 1135 q 471 1064 556 1064 m 471 1308 q 406 1288 426 1308 q 386 1218 386 1268 q 406 1149 386 1168 q 471 1129 426 1129 q 535 1149 515 1129 q 554 1218 554 1168 q 535 1288 554 1268 q 471 1308 515 1308 m 915 0 l 736 0 l 657 243 l 286 243 l 208 0 l 32 0 l 365 1025 l 582 1025 l 915 0 m 615 397 l 471 878 l 326 397 l 615 397 z "},"Ã":{"ha":946,"x_min":32,"x_max":915,"o":"m 365 1025 l 582 1025 l 915 0 l 736 0 l 657 243 l 286 243 l 208 0 l 32 0 l 365 1025 m 615 397 l 471 878 l 326 397 l 615 397 m 218 1104 q 262 1233 222 1193 q 360 1274 301 1274 q 419 1264 393 1274 q 481 1233 444 1254 q 528 1209 510 1217 q 567 1201 546 1201 q 615 1222 597 1201 q 635 1279 633 1242 l 722 1279 q 683 1150 719 1194 q 582 1106 646 1106 q 522 1116 550 1106 q 460 1146 494 1126 q 410 1170 429 1163 q 372 1178 392 1178 q 324 1158 343 1178 q 304 1104 306 1139 l 218 1104 z "},"Æ":{"ha":1354,"x_min":32,"x_max":1285,"o":"m 889 -7 q 722 31 778 -7 q 658 160 667 68 l 657 242 l 346 242 l 201 0 l 32 0 l 476 788 q 634 971 544 917 q 868 1025 724 1025 q 1285 1010 1050 1025 l 1285 867 l 903 867 q 833 847 854 867 q 813 785 813 826 l 813 588 l 1222 578 l 1222 443 l 813 433 l 813 257 q 842 176 813 197 q 928 154 872 154 l 1285 154 l 1285 13 q 889 -7 1049 -7 m 657 388 l 657 807 l 424 388 l 657 388 z "},"Ǽ":{"ha":1354,"x_min":32,"x_max":1285,"o":"m 889 -7 q 722 31 778 -7 q 658 160 667 68 l 657 242 l 346 242 l 201 0 l 32 0 l 476 788 q 634 971 544 917 q 868 1025 724 1025 q 1285 1010 1050 1025 l 1285 867 l 903 867 q 833 847 854 867 q 813 785 813 826 l 813 588 l 1222 578 l 1222 443 l 813 433 l 813 257 q 842 176 813 197 q 928 154 872 154 l 1285 154 l 1285 13 q 889 -7 1049 -7 m 657 388 l 657 807 l 424 388 l 657 388 m 819 1292 l 961 1292 l 796 1099 l 696 1099 l 819 1292 z "},"B":{"ha":860,"x_min":96,"x_max":804,"o":"m 96 1025 l 488 1025 q 771 758 771 1025 q 731 609 771 668 q 626 533 692 550 q 752 453 700 515 q 804 283 804 392 q 729 65 804 131 q 504 0 654 0 l 96 0 l 96 1025 m 490 592 q 575 631 543 592 q 607 735 607 669 q 486 871 607 871 l 267 871 l 267 592 l 490 592 m 499 154 q 604 191 568 154 q 640 313 640 228 q 601 419 640 381 q 499 458 561 458 l 267 458 l 267 154 l 499 154 z "},"Ḃ":{"ha":860,"x_min":96,"x_max":804,"o":"m 96 1025 l 488 1025 q 771 758 771 1025 q 731 609 771 668 q 626 533 692 550 q 752 453 700 515 q 804 283 804 392 q 729 65 804 131 q 504 0 654 0 l 96 0 l 96 1025 m 490 592 q 575 631 543 592 q 607 735 607 669 q 486 871 607 871 l 267 871 l 267 592 l 490 592 m 499 154 q 604 191 568 154 q 640 313 640 228 q 601 419 640 381 q 499 458 561 458 l 267 458 l 267 154 l 499 154 m 365 1125 q 347 1132 354 1125 q 339 1151 339 1139 l 339 1276 q 365 1304 339 1304 l 444 1304 q 464 1297 457 1304 q 471 1276 471 1289 l 471 1151 q 444 1125 471 1125 l 365 1125 z "},"C":{"ha":811,"x_min":69,"x_max":753,"o":"m 438 -8 q 229 33 307 -8 q 110 188 151 74 q 69 517 69 301 q 111 834 69 721 q 233 991 153 947 q 442 1035 314 1035 q 609 1022 525 1035 q 753 990 693 1008 l 753 858 q 634 874 711 867 q 476 881 557 881 q 335 852 385 881 q 264 746 286 824 q 242 514 242 668 q 263 282 242 360 q 332 175 283 204 q 475 146 381 146 q 753 161 633 146 l 753 29 q 438 -8 626 -8 z "},"Ć":{"ha":811,"x_min":69,"x_max":753,"o":"m 438 -8 q 229 33 307 -8 q 110 188 151 74 q 69 517 69 301 q 111 834 69 721 q 233 991 153 947 q 442 1035 314 1035 q 609 1022 525 1035 q 753 990 693 1008 l 753 858 q 634 874 711 867 q 476 881 557 881 q 335 852 385 881 q 264 746 286 824 q 242 514 242 668 q 263 282 242 360 q 332 175 283 204 q 475 146 381 146 q 753 161 633 146 l 753 29 q 438 -8 626 -8 m 522 1292 l 664 1292 l 499 1099 l 399 1099 l 522 1292 z "},"Č":{"ha":811,"x_min":69,"x_max":753,"o":"m 438 -8 q 229 33 307 -8 q 110 188 151 74 q 69 517 69 301 q 111 834 69 721 q 233 991 153 947 q 442 1035 314 1035 q 609 1022 525 1035 q 753 990 693 1008 l 753 858 q 634 874 711 867 q 476 881 557 881 q 335 852 385 881 q 264 746 286 824 q 242 514 242 668 q 263 282 242 360 q 332 175 283 204 q 475 146 381 146 q 753 161 633 146 l 753 29 q 438 -8 626 -8 m 238 1292 l 338 1292 l 442 1176 l 554 1292 l 656 1292 l 499 1099 l 379 1099 l 238 1292 z "},"Ç":{"ha":811,"x_min":69,"x_max":753,"o":"m 476 881 q 335 852 385 881 q 264 746 286 824 q 242 514 242 668 q 263 282 242 360 q 332 175 283 204 q 475 146 381 146 q 753 161 633 146 l 753 29 q 514 -7 657 -1 l 471 -74 q 541 -99 515 -76 q 567 -164 567 -122 q 531 -243 567 -215 q 424 -271 494 -271 l 365 -271 l 365 -200 l 392 -197 q 456 -143 456 -189 q 440 -108 456 -122 q 382 -89 424 -93 l 435 -8 q 228 34 306 -7 q 110 189 150 75 q 69 517 69 303 q 111 834 69 721 q 233 991 153 947 q 442 1035 314 1035 q 609 1022 525 1035 q 753 990 693 1008 l 753 858 q 634 874 711 867 q 476 881 557 881 z "},"Ḉ":{"ha":811,"x_min":69,"x_max":753,"o":"m 499 1099 l 399 1099 l 522 1292 l 664 1292 l 499 1099 m 476 881 q 335 852 385 881 q 264 746 286 824 q 242 514 242 668 q 263 282 242 360 q 332 175 283 204 q 475 146 381 146 q 753 161 633 146 l 753 29 q 514 -7 657 -1 l 471 -74 q 541 -99 515 -76 q 567 -164 567 -122 q 531 -243 567 -215 q 424 -271 494 -271 l 365 -271 l 365 -200 l 392 -197 q 456 -143 456 -189 q 440 -108 456 -122 q 382 -89 424 -93 l 435 -8 q 228 34 306 -7 q 110 189 150 75 q 69 517 69 303 q 111 834 69 721 q 233 991 153 947 q 442 1035 314 1035 q 609 1022 525 1035 q 753 990 693 1008 l 753 858 q 634 874 711 867 q 476 881 557 881 z "},"Ĉ":{"ha":811,"x_min":69,"x_max":753,"o":"m 438 -8 q 229 33 307 -8 q 110 188 151 74 q 69 517 69 301 q 111 834 69 721 q 233 991 153 947 q 442 1035 314 1035 q 609 1022 525 1035 q 753 990 693 1008 l 753 858 q 634 874 711 867 q 476 881 557 881 q 335 852 385 881 q 264 746 286 824 q 242 514 242 668 q 263 282 242 360 q 332 175 283 204 q 475 146 381 146 q 753 161 633 146 l 753 29 q 438 -8 626 -8 m 388 1292 l 506 1292 l 649 1099 l 547 1099 l 443 1214 l 332 1099 l 231 1099 l 388 1292 z "},"Ċ":{"ha":811,"x_min":69,"x_max":753,"o":"m 438 -8 q 229 33 307 -8 q 110 188 151 74 q 69 517 69 301 q 111 834 69 721 q 233 991 153 947 q 442 1035 314 1035 q 609 1022 525 1035 q 753 990 693 1008 l 753 858 q 634 874 711 867 q 476 881 557 881 q 335 852 385 881 q 264 746 286 824 q 242 514 242 668 q 263 282 242 360 q 332 175 283 204 q 475 146 381 146 q 753 161 633 146 l 753 29 q 438 -8 626 -8 m 399 1125 q 380 1132 388 1125 q 372 1151 372 1139 l 372 1276 q 399 1304 372 1304 l 478 1304 q 497 1297 490 1304 q 504 1276 504 1289 l 504 1151 q 478 1125 504 1125 l 399 1125 z "},"D":{"ha":939,"x_min":96,"x_max":869,"o":"m 96 1025 l 519 1025 q 790 894 710 1025 q 869 513 869 764 q 782 129 869 258 q 519 0 694 0 l 96 0 l 96 1025 m 503 154 q 651 245 604 154 q 699 513 699 336 q 678 729 699 651 q 615 839 657 807 q 503 871 572 871 l 267 871 l 267 154 l 503 154 z "},"Ð":{"ha":939,"x_min":18,"x_max":869,"o":"m 519 1025 q 790 894 710 1025 q 869 513 869 764 q 782 129 869 258 q 519 0 694 0 l 96 0 l 96 461 l 18 461 l 18 575 l 96 575 l 96 1025 l 519 1025 m 503 154 q 651 245 604 154 q 699 513 699 336 q 678 729 699 651 q 615 839 657 807 q 503 871 572 871 l 267 871 l 267 575 l 457 575 l 457 461 l 267 461 l 267 154 l 503 154 z "},"Ď":{"ha":939,"x_min":96,"x_max":869,"o":"m 96 1025 l 519 1025 q 790 894 710 1025 q 869 513 869 764 q 782 129 869 258 q 519 0 694 0 l 96 0 l 96 1025 m 503 154 q 651 245 604 154 q 699 513 699 336 q 678 729 699 651 q 615 839 657 807 q 503 871 572 871 l 267 871 l 267 154 l 503 154 m 246 1292 l 346 1292 l 450 1176 l 563 1292 l 664 1292 l 507 1099 l 388 1099 l 246 1292 z "},"Đ":{"ha":939,"x_min":18,"x_max":869,"o":"m 519 1025 q 790 894 710 1025 q 869 513 869 764 q 782 129 869 258 q 519 0 694 0 l 96 0 l 96 461 l 18 461 l 18 575 l 96 575 l 96 1025 l 519 1025 m 503 154 q 651 245 604 154 q 699 513 699 336 q 678 729 699 651 q 615 839 657 807 q 503 871 572 871 l 267 871 l 267 575 l 457 575 l 457 461 l 267 461 l 267 154 l 503 154 z "},"Ḋ":{"ha":939,"x_min":96,"x_max":869,"o":"m 96 1025 l 519 1025 q 790 894 710 1025 q 869 513 869 764 q 782 129 869 258 q 519 0 694 0 l 96 0 l 96 1025 m 503 154 q 651 245 604 154 q 699 513 699 336 q 678 729 699 651 q 615 839 657 807 q 503 871 572 871 l 267 871 l 267 154 l 503 154 m 407 1125 q 388 1132 396 1125 q 381 1151 381 1139 l 381 1276 q 407 1304 381 1304 l 486 1304 q 506 1297 499 1304 q 513 1276 513 1289 l 513 1151 q 486 1125 513 1125 l 407 1125 z "},"Ḍ":{"ha":939,"x_min":96,"x_max":869,"o":"m 96 1025 l 519 1025 q 790 894 710 1025 q 869 513 869 764 q 782 129 869 258 q 519 0 694 0 l 96 0 l 96 1025 m 503 154 q 651 245 604 154 q 699 513 699 336 q 678 729 699 651 q 615 839 657 807 q 503 871 572 871 l 267 871 l 267 154 l 503 154 m 374 -306 q 355 -299 363 -306 q 347 -279 347 -292 l 347 -154 q 374 -126 347 -126 l 453 -126 q 472 -134 465 -126 q 479 -154 479 -142 l 479 -279 q 453 -306 479 -306 l 374 -306 z "},"Ḏ":{"ha":939,"x_min":96,"x_max":869,"o":"m 96 1025 l 519 1025 q 790 894 710 1025 q 869 513 869 764 q 782 129 869 258 q 519 0 694 0 l 96 0 l 96 1025 m 503 154 q 651 245 604 154 q 699 513 699 336 q 678 729 699 651 q 615 839 657 807 q 503 871 572 871 l 267 871 l 267 154 l 503 154 m 224 -182 l 606 -182 l 606 -283 l 224 -283 l 224 -182 z "},"E":{"ha":825,"x_min":96,"x_max":756,"o":"m 333 -7 q 166 36 236 -7 q 96 210 96 79 l 96 801 q 160 972 96 919 q 314 1025 224 1025 q 539 1021 444 1025 q 756 1010 633 1017 l 756 867 l 368 867 q 293 842 319 867 q 267 769 267 818 l 267 588 l 693 578 l 693 443 l 267 433 l 267 257 q 367 154 267 154 l 756 154 l 756 11 q 333 -7 581 -4 z "},"É":{"ha":825,"x_min":96,"x_max":756,"o":"m 333 -7 q 166 36 236 -7 q 96 210 96 79 l 96 801 q 160 972 96 919 q 314 1025 224 1025 q 539 1021 444 1025 q 756 1010 633 1017 l 756 867 l 368 867 q 293 842 319 867 q 267 769 267 818 l 267 588 l 693 578 l 693 443 l 267 433 l 267 257 q 367 154 267 154 l 756 154 l 756 11 q 333 -7 581 -4 m 514 1292 l 656 1292 l 490 1099 l 390 1099 l 514 1292 z "},"Ĕ":{"ha":825,"x_min":96,"x_max":756,"o":"m 333 -7 q 166 36 236 -7 q 96 210 96 79 l 96 801 q 160 972 96 919 q 314 1025 224 1025 q 539 1021 444 1025 q 756 1010 633 1017 l 756 867 l 368 867 q 293 842 319 867 q 267 769 267 818 l 267 588 l 693 578 l 693 443 l 267 433 l 267 257 q 367 154 267 154 l 756 154 l 756 11 q 333 -7 581 -4 m 424 1090 q 285 1140 336 1090 q 235 1296 235 1190 l 315 1296 q 346 1200 315 1231 q 424 1169 376 1169 q 533 1296 533 1172 l 615 1296 q 565 1140 615 1190 q 424 1090 514 1090 z "},"Ě":{"ha":825,"x_min":96,"x_max":756,"o":"m 333 -7 q 166 36 236 -7 q 96 210 96 79 l 96 801 q 160 972 96 919 q 314 1025 224 1025 q 539 1021 444 1025 q 756 1010 633 1017 l 756 867 l 368 867 q 293 842 319 867 q 267 769 267 818 l 267 588 l 693 578 l 693 443 l 267 433 l 267 257 q 367 154 267 154 l 756 154 l 756 11 q 333 -7 581 -4 m 229 1292 l 329 1292 l 433 1176 l 546 1292 l 647 1292 l 490 1099 l 371 1099 l 229 1292 z "},"Ḝ":{"ha":825,"x_min":96,"x_max":756,"o":"m 424 1090 q 285 1140 336 1090 q 235 1296 235 1190 l 315 1296 q 346 1200 315 1231 q 424 1169 376 1169 q 533 1296 533 1172 l 615 1296 q 565 1140 615 1190 q 424 1090 514 1090 m 368 867 q 293 842 319 867 q 267 769 267 818 l 267 588 l 693 578 l 693 443 l 267 433 l 267 257 q 367 154 267 154 l 756 154 l 756 11 q 504 -3 657 1 l 460 -74 q 530 -99 504 -76 q 556 -164 556 -122 q 519 -243 556 -215 q 413 -271 483 -271 l 354 -271 l 354 -200 l 381 -197 q 444 -143 444 -189 q 428 -108 444 -122 q 371 -89 413 -93 l 425 -6 l 333 -7 q 166 36 236 -7 q 96 210 96 79 l 96 801 q 160 972 96 919 q 314 1025 224 1025 q 539 1021 444 1025 q 756 1010 633 1017 l 756 867 l 368 867 z "},"Ê":{"ha":825,"x_min":96,"x_max":756,"o":"m 333 -7 q 166 36 236 -7 q 96 210 96 79 l 96 801 q 160 972 96 919 q 314 1025 224 1025 q 539 1021 444 1025 q 756 1010 633 1017 l 756 867 l 368 867 q 293 842 319 867 q 267 769 267 818 l 267 588 l 693 578 l 693 443 l 267 433 l 267 257 q 367 154 267 154 l 756 154 l 756 11 q 333 -7 581 -4 m 379 1292 l 497 1292 l 640 1099 l 539 1099 l 435 1214 l 324 1099 l 222 1099 l 379 1292 z "},"Ế":{"ha":825,"x_min":96,"x_max":783,"o":"m 333 -7 q 166 36 236 -7 q 96 210 96 79 l 96 801 q 160 972 96 919 q 314 1025 224 1025 q 539 1021 444 1025 q 756 1010 633 1017 l 756 867 l 368 867 q 293 842 319 867 q 267 769 267 818 l 267 588 l 693 578 l 693 443 l 267 433 l 267 257 q 367 154 267 154 l 756 154 l 756 11 q 333 -7 581 -4 m 783 1389 l 660 1213 l 558 1213 l 643 1389 l 783 1389 m 496 1244 l 639 1099 l 539 1099 l 435 1167 l 322 1099 l 221 1099 l 378 1244 l 496 1244 z "},"Ệ":{"ha":825,"x_min":96,"x_max":756,"o":"m 333 -7 q 166 36 236 -7 q 96 210 96 79 l 96 801 q 160 972 96 919 q 314 1025 224 1025 q 539 1021 444 1025 q 756 1010 633 1017 l 756 867 l 368 867 q 293 842 319 867 q 267 769 267 818 l 267 588 l 693 578 l 693 443 l 267 433 l 267 257 q 367 154 267 154 l 756 154 l 756 11 q 333 -7 581 -4 m 379 1292 l 497 1292 l 640 1099 l 539 1099 l 435 1214 l 324 1099 l 222 1099 l 379 1292 m 415 -306 q 397 -299 404 -306 q 389 -279 389 -292 l 389 -154 q 415 -126 389 -126 l 494 -126 q 514 -134 507 -126 q 521 -154 521 -142 l 521 -279 q 494 -306 521 -306 l 415 -306 z "},"Ề":{"ha":825,"x_min":85,"x_max":756,"o":"m 333 -7 q 166 36 236 -7 q 96 210 96 79 l 96 801 q 160 972 96 919 q 314 1025 224 1025 q 539 1021 444 1025 q 756 1010 633 1017 l 756 867 l 368 867 q 293 842 319 867 q 267 769 267 818 l 267 588 l 693 578 l 693 443 l 267 433 l 267 257 q 367 154 267 154 l 756 154 l 756 11 q 333 -7 581 -4 m 225 1389 l 310 1213 l 208 1213 l 85 1389 l 225 1389 m 496 1244 l 639 1099 l 539 1099 l 435 1167 l 322 1099 l 221 1099 l 378 1244 l 496 1244 z "},"Ể":{"ha":825,"x_min":96,"x_max":756,"o":"m 333 -7 q 166 36 236 -7 q 96 210 96 79 l 96 801 q 160 972 96 919 q 314 1025 224 1025 q 539 1021 444 1025 q 756 1010 633 1017 l 756 867 l 368 867 q 293 842 319 867 q 267 769 267 818 l 267 588 l 693 578 l 693 443 l 267 433 l 267 257 q 367 154 267 154 l 756 154 l 756 11 q 333 -7 581 -4 m 592 1250 q 644 1304 644 1267 q 635 1333 644 1324 q 601 1343 625 1343 q 556 1335 576 1343 l 556 1396 q 624 1406 583 1406 q 701 1382 675 1406 q 726 1314 726 1358 q 592 1174 726 1211 l 592 1250 m 378 1244 l 496 1244 l 639 1099 l 539 1099 l 435 1167 l 322 1099 l 221 1099 l 378 1244 z "},"Ễ":{"ha":825,"x_min":96,"x_max":756,"o":"m 333 -7 q 166 36 236 -7 q 96 210 96 79 l 96 801 q 160 972 96 919 q 314 1025 224 1025 q 539 1021 444 1025 q 756 1010 633 1017 l 756 867 l 368 867 q 293 842 319 867 q 267 769 267 818 l 267 588 l 693 578 l 693 443 l 267 433 l 267 257 q 367 154 267 154 l 756 154 l 756 11 q 333 -7 581 -4 m 324 1435 q 425 1410 364 1435 q 501 1389 475 1389 q 545 1403 529 1389 q 561 1442 561 1417 l 649 1442 q 615 1336 643 1367 q 529 1306 586 1306 q 483 1312 504 1306 q 424 1331 461 1318 q 344 1351 369 1351 q 307 1339 321 1351 q 292 1304 293 1326 l 206 1304 q 241 1407 210 1379 q 324 1435 272 1435 m 639 1099 l 539 1099 l 435 1167 l 322 1099 l 221 1099 l 378 1244 l 496 1244 l 639 1099 z "},"Ȅ":{"ha":825,"x_min":96,"x_max":756,"o":"m 333 -7 q 166 36 236 -7 q 96 210 96 79 l 96 801 q 160 972 96 919 q 314 1025 224 1025 q 539 1021 444 1025 q 756 1010 633 1017 l 756 867 l 368 867 q 293 842 319 867 q 267 769 267 818 l 267 588 l 693 578 l 693 443 l 267 433 l 267 257 q 367 154 267 154 l 756 154 l 756 11 q 333 -7 581 -4 m 125 1292 l 265 1292 l 390 1099 l 289 1099 l 125 1292 m 357 1292 l 497 1292 l 622 1099 l 521 1099 l 357 1292 z "},"Ë":{"ha":825,"x_min":96,"x_max":756,"o":"m 333 -7 q 166 36 236 -7 q 96 210 96 79 l 96 801 q 160 972 96 919 q 314 1025 224 1025 q 539 1021 444 1025 q 756 1010 633 1017 l 756 867 l 368 867 q 293 842 319 867 q 267 769 267 818 l 267 588 l 693 578 l 693 443 l 267 433 l 267 257 q 367 154 267 154 l 756 154 l 756 11 q 333 -7 581 -4 m 231 1115 q 212 1122 219 1115 q 204 1142 204 1129 l 204 1267 q 211 1287 204 1279 q 231 1294 218 1294 l 311 1294 q 330 1287 324 1294 q 336 1267 336 1279 l 336 1142 q 311 1115 336 1115 l 231 1115 m 538 1115 q 519 1122 526 1115 q 511 1142 511 1129 l 511 1267 q 538 1294 511 1294 l 617 1294 q 636 1287 629 1294 q 643 1267 643 1279 l 643 1142 q 617 1115 643 1115 l 538 1115 z "},"Ė":{"ha":825,"x_min":96,"x_max":756,"o":"m 333 -7 q 166 36 236 -7 q 96 210 96 79 l 96 801 q 160 972 96 919 q 314 1025 224 1025 q 539 1021 444 1025 q 756 1010 633 1017 l 756 867 l 368 867 q 293 842 319 867 q 267 769 267 818 l 267 588 l 693 578 l 693 443 l 267 433 l 267 257 q 367 154 267 154 l 756 154 l 756 11 q 333 -7 581 -4 m 390 1125 q 372 1132 379 1125 q 364 1151 364 1139 l 364 1276 q 390 1304 364 1304 l 469 1304 q 489 1297 482 1304 q 496 1276 496 1289 l 496 1151 q 469 1125 496 1125 l 390 1125 z "},"Ẹ":{"ha":825,"x_min":96,"x_max":756,"o":"m 333 -7 q 166 36 236 -7 q 96 210 96 79 l 96 801 q 160 972 96 919 q 314 1025 224 1025 q 539 1021 444 1025 q 756 1010 633 1017 l 756 867 l 368 867 q 293 842 319 867 q 267 769 267 818 l 267 588 l 693 578 l 693 443 l 267 433 l 267 257 q 367 154 267 154 l 756 154 l 756 11 q 333 -7 581 -4 m 415 -306 q 397 -299 404 -306 q 389 -279 389 -292 l 389 -154 q 415 -126 389 -126 l 494 -126 q 514 -134 507 -126 q 521 -154 521 -142 l 521 -279 q 494 -306 521 -306 l 415 -306 z "},"È":{"ha":825,"x_min":96,"x_max":756,"o":"m 333 -7 q 166 36 236 -7 q 96 210 96 79 l 96 801 q 160 972 96 919 q 314 1025 224 1025 q 539 1021 444 1025 q 756 1010 633 1017 l 756 867 l 368 867 q 293 842 319 867 q 267 769 267 818 l 267 588 l 693 578 l 693 443 l 267 433 l 267 257 q 367 154 267 154 l 756 154 l 756 11 q 333 -7 581 -4 m 238 1292 l 378 1292 l 503 1099 l 401 1099 l 238 1292 z "},"Ẻ":{"ha":825,"x_min":96,"x_max":756,"o":"m 333 -7 q 166 36 236 -7 q 96 210 96 79 l 96 801 q 160 972 96 919 q 314 1025 224 1025 q 539 1021 444 1025 q 756 1010 633 1017 l 756 867 l 368 867 q 293 842 319 867 q 267 769 267 818 l 267 588 l 693 578 l 693 443 l 267 433 l 267 257 q 367 154 267 154 l 756 154 l 756 11 q 333 -7 581 -4 m 396 1144 q 460 1210 460 1164 q 407 1257 460 1257 q 360 1249 390 1257 l 360 1317 q 429 1328 393 1328 q 520 1298 489 1328 q 551 1215 551 1268 q 514 1126 551 1163 q 396 1068 476 1090 l 396 1144 z "},"Ȇ":{"ha":825,"x_min":96,"x_max":756,"o":"m 333 -7 q 166 36 236 -7 q 96 210 96 79 l 96 801 q 160 972 96 919 q 314 1025 224 1025 q 539 1021 444 1025 q 756 1010 633 1017 l 756 867 l 368 867 q 293 842 319 867 q 267 769 267 818 l 267 588 l 693 578 l 693 443 l 267 433 l 267 257 q 367 154 267 154 l 756 154 l 756 11 q 333 -7 581 -4 m 433 1299 q 572 1249 521 1299 q 622 1093 622 1199 l 542 1093 q 511 1189 542 1158 q 433 1219 481 1219 q 324 1093 324 1217 l 242 1093 q 292 1249 242 1199 q 433 1299 343 1299 z "},"Ē":{"ha":825,"x_min":96,"x_max":756,"o":"m 333 -7 q 166 36 236 -7 q 96 210 96 79 l 96 801 q 160 972 96 919 q 314 1025 224 1025 q 539 1021 444 1025 q 756 1010 633 1017 l 756 867 l 368 867 q 293 842 319 867 q 267 769 267 818 l 267 588 l 693 578 l 693 443 l 267 433 l 267 257 q 367 154 267 154 l 756 154 l 756 11 q 333 -7 581 -4 m 235 1235 l 617 1235 l 617 1133 l 235 1133 l 235 1235 z "},"Ḗ":{"ha":825,"x_min":96,"x_max":756,"o":"m 333 -7 q 166 36 236 -7 q 96 210 96 79 l 96 801 q 160 972 96 919 q 314 1025 224 1025 q 539 1021 444 1025 q 756 1010 633 1017 l 756 867 l 368 867 q 293 842 319 867 q 267 769 267 818 l 267 588 l 693 578 l 693 443 l 267 433 l 267 257 q 367 154 267 154 l 756 154 l 756 11 q 333 -7 581 -4 m 235 1235 l 617 1235 l 617 1133 l 235 1133 l 235 1235 m 504 1483 l 646 1483 l 481 1290 l 381 1290 l 504 1483 z "},"Ḕ":{"ha":825,"x_min":96,"x_max":756,"o":"m 333 -7 q 166 36 236 -7 q 96 210 96 79 l 96 801 q 160 972 96 919 q 314 1025 224 1025 q 539 1021 444 1025 q 756 1010 633 1017 l 756 867 l 368 867 q 293 842 319 867 q 267 769 267 818 l 267 588 l 693 578 l 693 443 l 267 433 l 267 257 q 367 154 267 154 l 756 154 l 756 11 q 333 -7 581 -4 m 235 1235 l 617 1235 l 617 1133 l 235 1133 l 235 1235 m 214 1483 l 354 1483 l 479 1290 l 378 1290 l 214 1483 z "},"Ę":{"ha":825,"x_min":96,"x_max":786,"o":"m 786 -167 l 786 -249 q 744 -253 771 -253 q 635 -217 672 -253 q 597 -128 597 -181 q 619 -51 597 -86 q 682 6 640 -17 q 333 -7 519 -4 q 166 36 236 -7 q 96 210 96 79 l 96 801 q 160 972 96 919 q 314 1025 224 1025 q 539 1021 444 1025 q 756 1010 633 1017 l 756 867 l 368 867 q 293 842 319 867 q 267 769 267 818 l 267 588 l 693 578 l 693 443 l 267 433 l 267 257 q 367 154 267 154 l 756 154 l 756 11 l 757 11 q 682 -89 682 -33 q 707 -146 682 -125 q 775 -167 732 -167 l 786 -167 z "},"Ẽ":{"ha":825,"x_min":96,"x_max":756,"o":"m 333 -7 q 166 36 236 -7 q 96 210 96 79 l 96 801 q 160 972 96 919 q 314 1025 224 1025 q 539 1021 444 1025 q 756 1010 633 1017 l 756 867 l 368 867 q 293 842 319 867 q 267 769 267 818 l 267 588 l 693 578 l 693 443 l 267 433 l 267 257 q 367 154 267 154 l 756 154 l 756 11 q 333 -7 581 -4 m 181 1104 q 224 1233 185 1193 q 322 1274 264 1274 q 381 1264 356 1274 q 443 1233 407 1254 q 490 1209 472 1217 q 529 1201 508 1201 q 578 1222 560 1201 q 597 1279 596 1242 l 685 1279 q 645 1150 682 1194 q 544 1106 608 1106 q 485 1116 513 1106 q 422 1146 457 1126 q 373 1170 392 1163 q 335 1178 354 1178 q 287 1158 306 1178 q 267 1104 268 1139 l 181 1104 z "},"F":{"ha":801,"x_min":96,"x_max":756,"o":"m 96 801 q 160 972 96 919 q 314 1025 224 1025 q 756 1010 588 1025 l 756 867 l 364 867 q 292 842 318 867 q 267 771 267 817 l 267 564 l 693 554 l 693 419 l 267 410 l 267 0 l 96 0 l 96 801 z "},"Ḟ":{"ha":801,"x_min":96,"x_max":756,"o":"m 96 801 q 160 972 96 919 q 314 1025 224 1025 q 756 1010 588 1025 l 756 867 l 364 867 q 292 842 318 867 q 267 771 267 817 l 267 564 l 693 554 l 693 419 l 267 410 l 267 0 l 96 0 l 96 801 m 390 1125 q 372 1132 379 1125 q 364 1151 364 1139 l 364 1276 q 390 1304 364 1304 l 469 1304 q 489 1297 482 1304 q 496 1276 496 1289 l 496 1151 q 469 1125 496 1125 l 390 1125 z "},"G":{"ha":918,"x_min":69,"x_max":824,"o":"m 388 -7 q 194 53 264 -7 q 97 226 124 113 q 69 514 69 339 q 101 805 69 693 q 212 976 132 917 q 438 1035 292 1035 q 778 993 607 1035 l 778 861 q 640 874 726 868 q 467 881 553 881 q 326 846 374 881 q 260 733 278 811 q 242 513 242 656 q 260 290 242 367 q 320 182 278 213 q 443 151 363 151 q 557 163 500 151 q 658 189 614 174 l 658 425 l 451 425 l 451 558 q 558 568 493 564 q 686 572 624 572 q 824 568 769 572 l 824 0 l 694 0 l 671 71 q 542 17 617 40 q 388 -7 467 -7 z "},"Ğ":{"ha":918,"x_min":69,"x_max":824,"o":"m 388 -7 q 194 53 264 -7 q 97 226 124 113 q 69 514 69 339 q 101 805 69 693 q 212 976 132 917 q 438 1035 292 1035 q 778 993 607 1035 l 778 861 q 640 874 726 868 q 467 881 553 881 q 326 846 374 881 q 260 733 278 811 q 242 513 242 656 q 260 290 242 367 q 320 182 278 213 q 443 151 363 151 q 557 163 500 151 q 658 189 614 174 l 658 425 l 451 425 l 451 558 q 558 568 493 564 q 686 572 624 572 q 824 568 769 572 l 824 0 l 694 0 l 671 71 q 542 17 617 40 q 388 -7 467 -7 m 443 1090 q 305 1140 356 1090 q 254 1296 254 1190 l 335 1296 q 365 1200 335 1231 q 443 1169 396 1169 q 553 1296 553 1172 l 635 1296 q 584 1140 635 1190 q 443 1090 533 1090 z "},"Ǧ":{"ha":918,"x_min":69,"x_max":824,"o":"m 388 -7 q 194 53 264 -7 q 97 226 124 113 q 69 514 69 339 q 101 805 69 693 q 212 976 132 917 q 438 1035 292 1035 q 778 993 607 1035 l 778 861 q 640 874 726 868 q 467 881 553 881 q 326 846 374 881 q 260 733 278 811 q 242 513 242 656 q 260 290 242 367 q 320 182 278 213 q 443 151 363 151 q 557 163 500 151 q 658 189 614 174 l 658 425 l 451 425 l 451 558 q 558 568 493 564 q 686 572 624 572 q 824 568 769 572 l 824 0 l 694 0 l 671 71 q 542 17 617 40 q 388 -7 467 -7 m 249 1292 l 349 1292 l 453 1176 l 565 1292 l 667 1292 l 510 1099 l 390 1099 l 249 1292 z "},"Ĝ":{"ha":918,"x_min":69,"x_max":824,"o":"m 388 -7 q 194 53 264 -7 q 97 226 124 113 q 69 514 69 339 q 101 805 69 693 q 212 976 132 917 q 438 1035 292 1035 q 778 993 607 1035 l 778 861 q 640 874 726 868 q 467 881 553 881 q 326 846 374 881 q 260 733 278 811 q 242 513 242 656 q 260 290 242 367 q 320 182 278 213 q 443 151 363 151 q 557 163 500 151 q 658 189 614 174 l 658 425 l 451 425 l 451 558 q 558 568 493 564 q 686 572 624 572 q 824 568 769 572 l 824 0 l 694 0 l 671 71 q 542 17 617 40 q 388 -7 467 -7 m 399 1292 l 517 1292 l 660 1099 l 558 1099 l 454 1214 l 343 1099 l 242 1099 l 399 1292 z "},"Ģ":{"ha":918,"x_min":69,"x_max":824,"o":"m 388 -7 q 194 53 264 -7 q 97 226 124 113 q 69 514 69 339 q 101 805 69 693 q 212 976 132 917 q 438 1035 292 1035 q 778 993 607 1035 l 778 861 q 640 874 726 868 q 467 881 553 881 q 326 846 374 881 q 260 733 278 811 q 242 513 242 656 q 260 290 242 367 q 320 182 278 213 q 443 151 363 151 q 557 163 500 151 q 658 189 614 174 l 658 425 l 451 425 l 451 558 q 558 568 493 564 q 686 572 624 572 q 824 568 769 572 l 824 0 l 694 0 l 671 71 q 542 17 617 40 q 388 -7 467 -7 m 364 -222 l 403 -214 q 451 -197 435 -207 q 474 -165 467 -187 q 482 -96 482 -142 l 588 -96 q 553 -249 588 -204 q 429 -293 519 -293 l 364 -293 l 364 -222 z "},"Ġ":{"ha":918,"x_min":69,"x_max":824,"o":"m 388 -7 q 194 53 264 -7 q 97 226 124 113 q 69 514 69 339 q 101 805 69 693 q 212 976 132 917 q 438 1035 292 1035 q 778 993 607 1035 l 778 861 q 640 874 726 868 q 467 881 553 881 q 326 846 374 881 q 260 733 278 811 q 242 513 242 656 q 260 290 242 367 q 320 182 278 213 q 443 151 363 151 q 557 163 500 151 q 658 189 614 174 l 658 425 l 451 425 l 451 558 q 558 568 493 564 q 686 572 624 572 q 824 568 769 572 l 824 0 l 694 0 l 671 71 q 542 17 617 40 q 388 -7 467 -7 m 410 1125 q 391 1132 399 1125 q 383 1151 383 1139 l 383 1276 q 410 1304 383 1304 l 489 1304 q 508 1297 501 1304 q 515 1276 515 1289 l 515 1151 q 489 1125 515 1125 l 410 1125 z "},"Ḡ":{"ha":918,"x_min":69,"x_max":824,"o":"m 388 -7 q 194 53 264 -7 q 97 226 124 113 q 69 514 69 339 q 101 805 69 693 q 212 976 132 917 q 438 1035 292 1035 q 778 993 607 1035 l 778 861 q 640 874 726 868 q 467 881 553 881 q 326 846 374 881 q 260 733 278 811 q 242 513 242 656 q 260 290 242 367 q 320 182 278 213 q 443 151 363 151 q 557 163 500 151 q 658 189 614 174 l 658 425 l 451 425 l 451 558 q 558 568 493 564 q 686 572 624 572 q 824 568 769 572 l 824 0 l 694 0 l 671 71 q 542 17 617 40 q 388 -7 467 -7 m 254 1235 l 636 1235 l 636 1133 l 254 1133 l 254 1235 z "},"H":{"ha":967,"x_min":96,"x_max":871,"o":"m 96 1025 l 267 1025 l 267 582 l 699 582 l 699 1025 l 871 1025 l 871 0 l 699 0 l 699 428 l 267 428 l 267 0 l 96 0 l 96 1025 z "},"Ħ":{"ha":967,"x_min":18,"x_max":949,"o":"m 949 722 l 871 722 l 871 0 l 699 0 l 699 428 l 267 428 l 267 0 l 96 0 l 96 722 l 18 722 l 18 813 l 96 813 l 96 1025 l 267 1025 l 267 813 l 699 813 l 699 1025 l 871 1025 l 871 813 l 949 813 l 949 722 m 699 722 l 267 722 l 267 582 l 699 582 l 699 722 z "},"Ḫ":{"ha":967,"x_min":96,"x_max":871,"o":"m 96 1025 l 267 1025 l 267 582 l 699 582 l 699 1025 l 871 1025 l 871 0 l 699 0 l 699 428 l 267 428 l 267 0 l 96 0 l 96 1025 m 482 -312 q 344 -262 394 -312 q 293 -107 293 -212 l 374 -107 q 404 -203 374 -172 q 482 -233 435 -233 q 592 -107 592 -231 l 674 -107 q 623 -262 674 -212 q 482 -312 572 -312 z "},"Ĥ":{"ha":967,"x_min":96,"x_max":871,"o":"m 96 1025 l 267 1025 l 267 582 l 699 582 l 699 1025 l 871 1025 l 871 0 l 699 0 l 699 428 l 267 428 l 267 0 l 96 0 l 96 1025 m 429 1292 l 547 1292 l 690 1099 l 589 1099 l 485 1214 l 374 1099 l 272 1099 l 429 1292 z "},"Ḥ":{"ha":967,"x_min":96,"x_max":871,"o":"m 96 1025 l 267 1025 l 267 582 l 699 582 l 699 1025 l 871 1025 l 871 0 l 699 0 l 699 428 l 267 428 l 267 0 l 96 0 l 96 1025 m 443 -306 q 424 -299 432 -306 q 417 -279 417 -292 l 417 -154 q 443 -126 417 -126 l 522 -126 q 542 -134 535 -126 q 549 -154 549 -142 l 549 -279 q 522 -306 549 -306 l 443 -306 z "},"I":{"ha":363,"x_min":96,"x_max":267,"o":"m 96 1025 l 267 1025 l 267 0 l 96 0 l 96 1025 z "},"Í":{"ha":363,"x_min":96,"x_max":404,"o":"m 96 1025 l 267 1025 l 267 0 l 96 0 l 96 1025 m 263 1292 l 404 1292 l 239 1099 l 139 1099 l 263 1292 z "},"Ĭ":{"ha":363,"x_min":-17,"x_max":364,"o":"m 96 1025 l 267 1025 l 267 0 l 96 0 l 96 1025 m 172 1090 q 34 1140 85 1090 q -17 1296 -17 1190 l 64 1296 q 94 1200 64 1231 q 172 1169 125 1169 q 282 1296 282 1172 l 364 1296 q 313 1140 364 1190 q 172 1090 263 1090 z "},"Î":{"ha":363,"x_min":-29,"x_max":389,"o":"m 96 1025 l 267 1025 l 267 0 l 96 0 l 96 1025 m 128 1292 l 246 1292 l 389 1099 l 288 1099 l 183 1214 l 72 1099 l -29 1099 l 128 1292 z "},"Ȉ":{"ha":363,"x_min":-126,"x_max":371,"o":"m 96 1025 l 267 1025 l 267 0 l 96 0 l 96 1025 m -126 1292 l 14 1292 l 139 1099 l 38 1099 l -126 1292 m 106 1292 l 246 1292 l 371 1099 l 269 1099 l 106 1292 z "},"Ï":{"ha":363,"x_min":-47,"x_max":392,"o":"m 96 1025 l 267 1025 l 267 0 l 96 0 l 96 1025 m -21 1115 q -40 1122 -32 1115 q -47 1142 -47 1129 l -47 1267 q -40 1287 -47 1279 q -21 1294 -33 1294 l 60 1294 q 78 1287 72 1294 q 85 1267 85 1279 l 85 1142 q 60 1115 85 1115 l -21 1115 m 286 1115 q 267 1122 275 1115 q 260 1142 260 1129 l 260 1267 q 286 1294 260 1294 l 365 1294 q 385 1287 378 1294 q 392 1267 392 1279 l 392 1142 q 365 1115 392 1115 l 286 1115 z "},"Ḯ":{"ha":363,"x_min":-47,"x_max":396,"o":"m 96 1025 l 267 1025 l 267 0 l 96 0 l 96 1025 m -21 1115 q -40 1122 -32 1115 q -47 1142 -47 1129 l -47 1267 q -40 1287 -47 1279 q -21 1294 -33 1294 l 60 1294 q 78 1287 72 1294 q 85 1267 85 1279 l 85 1142 q 60 1115 85 1115 l -21 1115 m 286 1115 q 267 1122 275 1115 q 260 1142 260 1129 l 260 1267 q 286 1294 260 1294 l 365 1294 q 385 1287 378 1294 q 392 1267 392 1279 l 392 1142 q 365 1115 392 1115 l 286 1115 m 254 1533 l 396 1533 l 231 1340 l 131 1340 l 254 1533 z "},"İ":{"ha":363,"x_min":96,"x_max":267,"o":"m 96 1025 l 267 1025 l 267 0 l 96 0 l 96 1025 m 139 1125 q 120 1132 128 1125 q 113 1151 113 1139 l 113 1276 q 139 1304 113 1304 l 218 1304 q 238 1297 231 1304 q 244 1276 244 1289 l 244 1151 q 218 1125 244 1125 l 139 1125 z "},"Ị":{"ha":363,"x_min":96,"x_max":267,"o":"m 96 1025 l 267 1025 l 267 0 l 96 0 l 96 1025 m 142 -306 q 123 -299 131 -306 q 115 -279 115 -292 l 115 -154 q 142 -126 115 -126 l 221 -126 q 240 -134 233 -126 q 247 -154 247 -142 l 247 -279 q 221 -306 247 -306 l 142 -306 z "},"Ì":{"ha":363,"x_min":-14,"x_max":267,"o":"m 96 1025 l 267 1025 l 267 0 l 96 0 l 96 1025 m -14 1292 l 126 1292 l 251 1099 l 150 1099 l -14 1292 z "},"Ỉ":{"ha":363,"x_min":96,"x_max":300,"o":"m 96 1025 l 267 1025 l 267 0 l 96 0 l 96 1025 m 144 1144 q 208 1210 208 1164 q 156 1257 208 1257 q 108 1249 139 1257 l 108 1317 q 178 1328 142 1328 q 269 1298 238 1328 q 300 1215 300 1268 q 263 1126 300 1163 q 144 1068 225 1090 l 144 1144 z "},"Ȋ":{"ha":363,"x_min":-10,"x_max":371,"o":"m 96 1025 l 267 1025 l 267 0 l 96 0 l 96 1025 m 182 1299 q 320 1249 269 1299 q 371 1093 371 1199 l 290 1093 q 260 1189 290 1158 q 182 1219 229 1219 q 72 1093 72 1217 l -10 1093 q 41 1249 -10 1199 q 182 1299 92 1299 z "},"Ī":{"ha":363,"x_min":-17,"x_max":365,"o":"m 96 1025 l 267 1025 l 267 0 l 96 0 l 96 1025 m -17 1235 l 365 1235 l 365 1133 l -17 1133 l -17 1235 z "},"Į":{"ha":363,"x_min":96,"x_max":297,"o":"m 96 1025 l 267 1025 l 267 0 l 96 0 l 96 1025 m 256 -264 q 146 -228 183 -264 q 108 -139 108 -192 q 133 -58 108 -94 q 204 0 157 -22 l 268 0 q 193 -100 193 -44 q 218 -157 193 -136 q 286 -178 243 -178 l 297 -178 l 297 -260 q 256 -264 283 -264 z "},"Ĩ":{"ha":363,"x_min":-72,"x_max":432,"o":"m 96 1025 l 267 1025 l 267 0 l 96 0 l 96 1025 m -72 1104 q -28 1233 -68 1193 q 69 1274 11 1274 q 128 1264 103 1274 q 190 1233 154 1254 q 238 1209 219 1217 q 276 1201 256 1201 q 325 1222 307 1201 q 344 1279 343 1242 l 432 1279 q 392 1150 429 1194 q 292 1106 356 1106 q 232 1116 260 1106 q 169 1146 204 1126 q 120 1170 139 1163 q 82 1178 101 1178 q 34 1158 53 1178 q 14 1104 15 1139 l -72 1104 z "},"J":{"ha":551,"x_min":36,"x_max":457,"o":"m 201 -8 q 115 0 160 -8 q 36 21 69 8 l 36 157 q 164 146 114 146 q 254 174 224 146 q 285 267 285 201 l 285 1025 l 457 1025 l 457 242 q 396 52 457 113 q 201 -8 335 -8 z "},"Ĵ":{"ha":551,"x_min":36,"x_max":578,"o":"m 201 -8 q 115 0 160 -8 q 36 21 69 8 l 36 157 q 164 146 114 146 q 254 174 224 146 q 285 267 285 201 l 285 1025 l 457 1025 l 457 242 q 396 52 457 113 q 201 -8 335 -8 m 317 1292 l 435 1292 l 578 1099 l 476 1099 l 372 1214 l 261 1099 l 160 1099 l 317 1292 z "},"K":{"ha":876,"x_min":96,"x_max":844,"o":"m 96 1025 l 267 1025 l 267 588 l 419 588 l 654 1025 l 838 1025 l 556 511 l 844 0 l 661 0 l 418 432 l 267 432 l 267 0 l 96 0 l 96 1025 z "},"Ķ":{"ha":876,"x_min":96,"x_max":844,"o":"m 96 1025 l 267 1025 l 267 588 l 419 588 l 654 1025 l 838 1025 l 556 511 l 844 0 l 661 0 l 418 432 l 267 432 l 267 0 l 96 0 l 96 1025 m 314 -222 l 353 -214 q 401 -197 385 -207 q 424 -165 417 -187 q 432 -96 432 -142 l 538 -96 q 503 -249 538 -204 q 379 -293 469 -293 l 314 -293 l 314 -222 z "},"L":{"ha":742,"x_min":96,"x_max":708,"o":"m 325 0 q 153 53 211 0 q 96 229 96 107 l 96 1025 l 267 1025 l 267 257 q 294 178 267 200 q 368 156 321 156 l 708 156 l 708 0 l 325 0 z "},"Ĺ":{"ha":742,"x_min":96,"x_max":708,"o":"m 325 0 q 153 53 211 0 q 96 229 96 107 l 96 1025 l 267 1025 l 267 257 q 294 178 267 200 q 368 156 321 156 l 708 156 l 708 0 l 325 0 m 263 1292 l 404 1292 l 239 1099 l 139 1099 l 263 1292 z "},"Ľ":{"ha":742,"x_min":96,"x_max":708,"o":"m 325 0 q 153 53 211 0 q 96 229 96 107 l 96 1025 l 267 1025 l 267 257 q 294 178 267 200 q 368 156 321 156 l 708 156 l 708 0 l 325 0 m 372 1000 l 372 1088 l 529 1088 l 529 1000 l 519 808 l 385 808 l 372 1000 z "},"Ļ":{"ha":742,"x_min":96,"x_max":708,"o":"m 325 0 q 153 53 211 0 q 96 229 96 107 l 96 1025 l 267 1025 l 267 257 q 294 178 267 200 q 368 156 321 156 l 708 156 l 708 0 l 325 0 m 275 -222 l 314 -214 q 362 -197 346 -207 q 385 -165 378 -187 q 393 -96 393 -142 l 499 -96 q 465 -249 499 -204 q 340 -293 431 -293 l 275 -293 l 275 -222 z "},"Ŀ":{"ha":742,"x_min":96,"x_max":708,"o":"m 325 0 q 153 53 211 0 q 96 229 96 107 l 96 1025 l 267 1025 l 267 257 q 294 178 267 200 q 368 156 321 156 l 708 156 l 708 0 l 325 0 m 521 474 q 502 481 510 474 q 494 499 494 488 l 494 601 q 521 629 494 629 l 619 629 q 646 601 646 629 l 646 499 q 619 474 646 474 l 521 474 z "},"Ḷ":{"ha":742,"x_min":96,"x_max":708,"o":"m 325 0 q 153 53 211 0 q 96 229 96 107 l 96 1025 l 267 1025 l 267 257 q 294 178 267 200 q 368 156 321 156 l 708 156 l 708 0 l 325 0 m 354 -306 q 335 -299 343 -306 q 328 -279 328 -292 l 328 -154 q 354 -126 328 -126 l 433 -126 q 453 -134 446 -126 q 460 -154 460 -142 l 460 -279 q 433 -306 460 -306 l 354 -306 z "},"Ḻ":{"ha":742,"x_min":96,"x_max":708,"o":"m 325 0 q 153 53 211 0 q 96 229 96 107 l 96 1025 l 267 1025 l 267 257 q 294 178 267 200 q 368 156 321 156 l 708 156 l 708 0 l 325 0 m 204 -182 l 586 -182 l 586 -283 l 204 -283 l 204 -182 z "},"Ł":{"ha":742,"x_min":-3,"x_max":708,"o":"m 708 156 l 708 0 l 325 0 q 153 53 211 0 q 96 229 96 107 l 96 469 l -3 426 l -3 521 l 96 564 l 96 1025 l 267 1025 l 267 617 l 449 696 l 449 601 l 267 522 l 267 257 q 294 178 267 200 q 368 156 321 156 l 708 156 z "},"M":{"ha":1203,"x_min":68,"x_max":1136,"o":"m 969 0 l 883 733 l 681 0 l 519 0 l 315 729 l 233 0 l 68 0 l 186 1025 l 353 1025 l 601 204 l 849 1025 l 1015 1025 l 1136 0 l 969 0 z "},"Ṁ":{"ha":1203,"x_min":68,"x_max":1136,"o":"m 969 0 l 883 733 l 681 0 l 519 0 l 315 729 l 233 0 l 68 0 l 186 1025 l 353 1025 l 601 204 l 849 1025 l 1015 1025 l 1136 0 l 969 0 m 550 1125 q 531 1132 539 1125 q 524 1151 524 1139 l 524 1276 q 550 1304 524 1304 l 629 1304 q 649 1297 642 1304 q 656 1276 656 1289 l 656 1151 q 629 1125 656 1125 l 550 1125 z "},"Ṃ":{"ha":1203,"x_min":68,"x_max":1136,"o":"m 969 0 l 883 733 l 681 0 l 519 0 l 315 729 l 233 0 l 68 0 l 186 1025 l 353 1025 l 601 204 l 849 1025 l 1015 1025 l 1136 0 l 969 0 m 553 -306 q 534 -299 542 -306 q 526 -279 526 -292 l 526 -154 q 553 -126 526 -126 l 632 -126 q 651 -134 644 -126 q 658 -154 658 -142 l 658 -279 q 632 -306 658 -306 l 553 -306 z "},"N":{"ha":968,"x_min":107,"x_max":883,"o":"m 107 1025 l 244 1025 l 711 293 l 711 1025 l 883 1025 l 883 0 l 746 0 l 279 732 l 279 0 l 107 0 l 107 1025 z "},"Ń":{"ha":968,"x_min":107,"x_max":883,"o":"m 107 1025 l 244 1025 l 711 293 l 711 1025 l 883 1025 l 883 0 l 746 0 l 279 732 l 279 0 l 107 0 l 107 1025 m 554 1292 l 696 1292 l 531 1099 l 431 1099 l 554 1292 z "},"Ň":{"ha":968,"x_min":107,"x_max":883,"o":"m 107 1025 l 244 1025 l 711 293 l 711 1025 l 883 1025 l 883 0 l 746 0 l 279 732 l 279 0 l 107 0 l 107 1025 m 269 1292 l 369 1292 l 474 1176 l 586 1292 l 688 1292 l 531 1099 l 411 1099 l 269 1292 z "},"Ņ":{"ha":968,"x_min":107,"x_max":883,"o":"m 107 1025 l 244 1025 l 711 293 l 711 1025 l 883 1025 l 883 0 l 746 0 l 279 732 l 279 0 l 107 0 l 107 1025 m 356 -222 l 394 -214 q 442 -197 426 -207 q 466 -165 458 -187 q 474 -96 474 -142 l 579 -96 q 545 -249 579 -204 q 421 -293 511 -293 l 356 -293 l 356 -222 z "},"Ṅ":{"ha":968,"x_min":107,"x_max":883,"o":"m 107 1025 l 244 1025 l 711 293 l 711 1025 l 883 1025 l 883 0 l 746 0 l 279 732 l 279 0 l 107 0 l 107 1025 m 433 -306 q 415 -299 422 -306 q 407 -279 407 -292 l 407 -154 q 433 -126 407 -126 l 513 -126 q 532 -134 525 -126 q 539 -154 539 -142 l 539 -279 q 513 -306 539 -306 l 433 -306 z "},"Ṇ":{"ha":968,"x_min":107,"x_max":883,"o":"m 107 1025 l 244 1025 l 711 293 l 711 1025 l 883 1025 l 883 0 l 746 0 l 279 732 l 279 0 l 107 0 l 107 1025 m 433 -306 q 415 -299 422 -306 q 407 -279 407 -292 l 407 -154 q 433 -126 407 -126 l 513 -126 q 532 -134 525 -126 q 539 -154 539 -142 l 539 -279 q 513 -306 539 -306 l 433 -306 z "},"Ŋ":{"ha":960,"x_min":107,"x_max":883,"o":"m 883 1025 l 883 -87 q 820 -277 883 -217 q 619 -337 757 -337 q 531 -329 576 -337 q 454 -308 486 -321 l 454 -172 q 588 -183 535 -183 q 680 -156 649 -183 q 711 -62 711 -128 l 711 54 l 279 732 l 279 0 l 107 0 l 107 1025 l 244 1025 l 711 293 l 711 1025 l 883 1025 z "},"Ṉ":{"ha":968,"x_min":107,"x_max":883,"o":"m 107 1025 l 244 1025 l 711 293 l 711 1025 l 883 1025 l 883 0 l 746 0 l 279 732 l 279 0 l 107 0 l 107 1025 m 283 -182 l 665 -182 l 665 -283 l 283 -283 l 283 -182 z "},"Ñ":{"ha":968,"x_min":107,"x_max":883,"o":"m 107 1025 l 244 1025 l 711 293 l 711 1025 l 883 1025 l 883 0 l 746 0 l 279 732 l 279 0 l 107 0 l 107 1025 m 221 1104 q 265 1233 225 1193 q 363 1274 304 1274 q 422 1264 396 1274 q 483 1233 447 1254 q 531 1209 513 1217 q 569 1201 549 1201 q 618 1222 600 1201 q 638 1279 636 1242 l 725 1279 q 685 1150 722 1194 q 585 1106 649 1106 q 525 1116 553 1106 q 463 1146 497 1126 q 413 1170 432 1163 q 375 1178 394 1178 q 327 1158 346 1178 q 307 1104 308 1139 l 221 1104 z "},"O":{"ha":965,"x_min":69,"x_max":896,"o":"m 482 -8 q 246 31 333 -8 q 114 183 158 71 q 69 510 69 294 q 115 839 69 725 q 247 994 160 953 q 482 1035 335 1035 q 719 994 631 1035 q 851 840 807 953 q 896 510 896 726 q 851 183 896 294 q 719 31 806 71 q 482 -8 632 -8 m 482 146 q 628 174 578 146 q 701 278 679 201 q 724 510 724 356 q 701 749 724 669 q 628 854 678 828 q 482 881 578 881 q 339 853 389 881 q 265 748 289 826 q 242 510 242 669 q 263 278 242 354 q 335 174 285 201 q 482 146 385 146 z "},"Ó":{"ha":965,"x_min":69,"x_max":896,"o":"m 482 -8 q 246 31 333 -8 q 114 183 158 71 q 69 510 69 294 q 115 839 69 725 q 247 994 160 953 q 482 1035 335 1035 q 719 994 631 1035 q 851 840 807 953 q 896 510 896 726 q 851 183 896 294 q 719 31 806 71 q 482 -8 632 -8 m 482 146 q 628 174 578 146 q 701 278 679 201 q 724 510 724 356 q 701 749 724 669 q 628 854 678 828 q 482 881 578 881 q 339 853 389 881 q 265 748 289 826 q 242 510 242 669 q 263 278 242 354 q 335 174 285 201 q 482 146 385 146 m 563 1292 l 704 1292 l 539 1099 l 439 1099 l 563 1292 z "},"Ŏ":{"ha":965,"x_min":69,"x_max":896,"o":"m 482 -8 q 246 31 333 -8 q 114 183 158 71 q 69 510 69 294 q 115 839 69 725 q 247 994 160 953 q 482 1035 335 1035 q 719 994 631 1035 q 851 840 807 953 q 896 510 896 726 q 851 183 896 294 q 719 31 806 71 q 482 -8 632 -8 m 482 146 q 628 174 578 146 q 701 278 679 201 q 724 510 724 356 q 701 749 724 669 q 628 854 678 828 q 482 881 578 881 q 339 853 389 881 q 265 748 289 826 q 242 510 242 669 q 263 278 242 354 q 335 174 285 201 q 482 146 385 146 m 472 1090 q 334 1140 385 1090 q 283 1296 283 1190 l 364 1296 q 394 1200 364 1231 q 472 1169 425 1169 q 582 1296 582 1172 l 664 1296 q 613 1140 664 1190 q 472 1090 563 1090 z "},"Ô":{"ha":965,"x_min":69,"x_max":896,"o":"m 482 -8 q 246 31 333 -8 q 114 183 158 71 q 69 510 69 294 q 115 839 69 725 q 247 994 160 953 q 482 1035 335 1035 q 719 994 631 1035 q 851 840 807 953 q 896 510 896 726 q 851 183 896 294 q 719 31 806 71 q 482 -8 632 -8 m 482 146 q 628 174 578 146 q 701 278 679 201 q 724 510 724 356 q 701 749 724 669 q 628 854 678 828 q 482 881 578 881 q 339 853 389 881 q 265 748 289 826 q 242 510 242 669 q 263 278 242 354 q 335 174 285 201 q 482 146 385 146 m 428 1292 l 546 1292 l 689 1099 l 588 1099 l 483 1214 l 372 1099 l 271 1099 l 428 1292 z "},"Ố":{"ha":965,"x_min":69,"x_max":896,"o":"m 482 -8 q 246 31 333 -8 q 114 183 158 71 q 69 510 69 294 q 115 839 69 725 q 247 994 160 953 q 482 1035 335 1035 q 719 994 631 1035 q 851 840 807 953 q 896 510 896 726 q 851 183 896 294 q 719 31 806 71 q 482 -8 632 -8 m 482 146 q 628 174 578 146 q 701 278 679 201 q 724 510 724 356 q 701 749 724 669 q 628 854 678 828 q 482 881 578 881 q 339 853 389 881 q 265 748 289 826 q 242 510 242 669 q 263 278 242 354 q 335 174 285 201 q 482 146 385 146 m 832 1389 l 708 1213 l 607 1213 l 692 1389 l 832 1389 m 544 1244 l 688 1099 l 588 1099 l 483 1167 l 371 1099 l 269 1099 l 426 1244 l 544 1244 z "},"Ộ":{"ha":965,"x_min":69,"x_max":896,"o":"m 482 -8 q 246 31 333 -8 q 114 183 158 71 q 69 510 69 294 q 115 839 69 725 q 247 994 160 953 q 482 1035 335 1035 q 719 994 631 1035 q 851 840 807 953 q 896 510 896 726 q 851 183 896 294 q 719 31 806 71 q 482 -8 632 -8 m 482 146 q 628 174 578 146 q 701 278 679 201 q 724 510 724 356 q 701 749 724 669 q 628 854 678 828 q 482 881 578 881 q 339 853 389 881 q 265 748 289 826 q 242 510 242 669 q 263 278 242 354 q 335 174 285 201 q 482 146 385 146 m 428 1292 l 546 1292 l 689 1099 l 588 1099 l 483 1214 l 372 1099 l 271 1099 l 428 1292 m 442 -306 q 423 -299 431 -306 q 415 -279 415 -292 l 415 -154 q 442 -126 415 -126 l 521 -126 q 540 -134 533 -126 q 547 -154 547 -142 l 547 -279 q 521 -306 547 -306 l 442 -306 z "},"Ồ":{"ha":965,"x_min":69,"x_max":896,"o":"m 482 -8 q 246 31 333 -8 q 114 183 158 71 q 69 510 69 294 q 115 839 69 725 q 247 994 160 953 q 482 1035 335 1035 q 719 994 631 1035 q 851 840 807 953 q 896 510 896 726 q 851 183 896 294 q 719 31 806 71 q 482 -8 632 -8 m 482 146 q 628 174 578 146 q 701 278 679 201 q 724 510 724 356 q 701 749 724 669 q 628 854 678 828 q 482 881 578 881 q 339 853 389 881 q 265 748 289 826 q 242 510 242 669 q 263 278 242 354 q 335 174 285 201 q 482 146 385 146 m 274 1389 l 358 1213 l 257 1213 l 133 1389 l 274 1389 m 544 1244 l 688 1099 l 588 1099 l 483 1167 l 371 1099 l 269 1099 l 426 1244 l 544 1244 z "},"Ổ":{"ha":965,"x_min":69,"x_max":896,"o":"m 482 -8 q 246 31 333 -8 q 114 183 158 71 q 69 510 69 294 q 115 839 69 725 q 247 994 160 953 q 482 1035 335 1035 q 719 994 631 1035 q 851 840 807 953 q 896 510 896 726 q 851 183 896 294 q 719 31 806 71 q 482 -8 632 -8 m 482 146 q 628 174 578 146 q 701 278 679 201 q 724 510 724 356 q 701 749 724 669 q 628 854 678 828 q 482 881 578 881 q 339 853 389 881 q 265 748 289 826 q 242 510 242 669 q 263 278 242 354 q 335 174 285 201 q 482 146 385 146 m 640 1250 q 693 1304 693 1267 q 683 1333 693 1324 q 650 1343 674 1343 q 604 1335 625 1343 l 604 1396 q 672 1406 632 1406 q 749 1382 724 1406 q 775 1314 775 1358 q 640 1174 775 1211 l 640 1250 m 426 1244 l 544 1244 l 688 1099 l 588 1099 l 483 1167 l 371 1099 l 269 1099 l 426 1244 z "},"Ỗ":{"ha":965,"x_min":69,"x_max":896,"o":"m 482 -8 q 246 31 333 -8 q 114 183 158 71 q 69 510 69 294 q 115 839 69 725 q 247 994 160 953 q 482 1035 335 1035 q 719 994 631 1035 q 851 840 807 953 q 896 510 896 726 q 851 183 896 294 q 719 31 806 71 q 482 -8 632 -8 m 482 146 q 628 174 578 146 q 701 278 679 201 q 724 510 724 356 q 701 749 724 669 q 628 854 678 828 q 482 881 578 881 q 339 853 389 881 q 265 748 289 826 q 242 510 242 669 q 263 278 242 354 q 335 174 285 201 q 482 146 385 146 m 372 1435 q 474 1410 413 1435 q 550 1389 524 1389 q 594 1403 578 1389 q 610 1442 610 1417 l 697 1442 q 663 1336 692 1367 q 578 1306 635 1306 q 531 1312 553 1306 q 472 1331 510 1318 q 393 1351 418 1351 q 356 1339 369 1351 q 340 1304 342 1326 l 254 1304 q 290 1407 258 1379 q 372 1435 321 1435 m 688 1099 l 588 1099 l 483 1167 l 371 1099 l 269 1099 l 426 1244 l 544 1244 l 688 1099 z "},"Ȍ":{"ha":965,"x_min":69,"x_max":896,"o":"m 482 -8 q 246 31 333 -8 q 114 183 158 71 q 69 510 69 294 q 115 839 69 725 q 247 994 160 953 q 482 1035 335 1035 q 719 994 631 1035 q 851 840 807 953 q 896 510 896 726 q 851 183 896 294 q 719 31 806 71 q 482 -8 632 -8 m 482 146 q 628 174 578 146 q 701 278 679 201 q 724 510 724 356 q 701 749 724 669 q 628 854 678 828 q 482 881 578 881 q 339 853 389 881 q 265 748 289 826 q 242 510 242 669 q 263 278 242 354 q 335 174 285 201 q 482 146 385 146 m 174 1292 l 314 1292 l 439 1099 l 338 1099 l 174 1292 m 406 1292 l 546 1292 l 671 1099 l 569 1099 l 406 1292 z "},"Ö":{"ha":965,"x_min":69,"x_max":896,"o":"m 482 -8 q 246 31 333 -8 q 114 183 158 71 q 69 510 69 294 q 115 839 69 725 q 247 994 160 953 q 482 1035 335 1035 q 719 994 631 1035 q 851 840 807 953 q 896 510 896 726 q 851 183 896 294 q 719 31 806 71 q 482 -8 632 -8 m 482 146 q 628 174 578 146 q 701 278 679 201 q 724 510 724 356 q 701 749 724 669 q 628 854 678 828 q 482 881 578 881 q 339 853 389 881 q 265 748 289 826 q 242 510 242 669 q 263 278 242 354 q 335 174 285 201 q 482 146 385 146 m 279 1115 q 260 1122 268 1115 q 253 1142 253 1129 l 253 1267 q 260 1287 253 1279 q 279 1294 267 1294 l 360 1294 q 378 1287 372 1294 q 385 1267 385 1279 l 385 1142 q 360 1115 385 1115 l 279 1115 m 586 1115 q 567 1122 575 1115 q 560 1142 560 1129 l 560 1267 q 586 1294 560 1294 l 665 1294 q 685 1287 678 1294 q 692 1267 692 1279 l 692 1142 q 665 1115 692 1115 l 586 1115 z "},"Ȫ":{"ha":965,"x_min":69,"x_max":896,"o":"m 482 -8 q 246 31 333 -8 q 114 183 158 71 q 69 510 69 294 q 115 839 69 725 q 247 994 160 953 q 482 1035 335 1035 q 719 994 631 1035 q 851 840 807 953 q 896 510 896 726 q 851 183 896 294 q 719 31 806 71 q 482 -8 632 -8 m 482 146 q 628 174 578 146 q 701 278 679 201 q 724 510 724 356 q 701 749 724 669 q 628 854 678 828 q 482 881 578 881 q 339 853 389 881 q 265 748 289 826 q 242 510 242 669 q 263 278 242 354 q 335 174 285 201 q 482 146 385 146 m 292 1115 q 273 1122 281 1115 q 265 1142 265 1129 l 265 1267 q 272 1287 265 1279 q 292 1294 279 1294 l 372 1294 q 391 1287 385 1294 q 397 1267 397 1279 l 397 1142 q 372 1115 397 1115 l 292 1115 m 599 1115 q 580 1122 588 1115 q 572 1142 572 1129 l 572 1267 q 599 1294 572 1294 l 678 1294 q 697 1287 690 1294 q 704 1267 704 1279 l 704 1142 q 678 1115 704 1115 l 599 1115 m 296 1483 l 678 1483 l 678 1382 l 296 1382 l 296 1483 z "},"Ȱ":{"ha":965,"x_min":69,"x_max":896,"o":"m 482 -8 q 246 31 333 -8 q 114 183 158 71 q 69 510 69 294 q 115 839 69 725 q 247 994 160 953 q 482 1035 335 1035 q 719 994 631 1035 q 851 840 807 953 q 896 510 896 726 q 851 183 896 294 q 719 31 806 71 q 482 -8 632 -8 m 482 146 q 628 174 578 146 q 701 278 679 201 q 724 510 724 356 q 701 749 724 669 q 628 854 678 828 q 482 881 578 881 q 339 853 389 881 q 265 748 289 826 q 242 510 242 669 q 263 278 242 354 q 335 174 285 201 q 482 146 385 146 m 439 1125 q 420 1132 428 1125 q 413 1151 413 1139 l 413 1276 q 439 1304 413 1304 l 518 1304 q 538 1297 531 1304 q 544 1276 544 1289 l 544 1151 q 518 1125 544 1125 l 439 1125 m 283 1478 l 665 1478 l 665 1376 l 283 1376 l 283 1478 z "},"Ọ":{"ha":965,"x_min":69,"x_max":896,"o":"m 482 -8 q 246 31 333 -8 q 114 183 158 71 q 69 510 69 294 q 115 839 69 725 q 247 994 160 953 q 482 1035 335 1035 q 719 994 631 1035 q 851 840 807 953 q 896 510 896 726 q 851 183 896 294 q 719 31 806 71 q 482 -8 632 -8 m 482 146 q 628 174 578 146 q 701 278 679 201 q 724 510 724 356 q 701 749 724 669 q 628 854 678 828 q 482 881 578 881 q 339 853 389 881 q 265 748 289 826 q 242 510 242 669 q 263 278 242 354 q 335 174 285 201 q 482 146 385 146 m 442 -306 q 423 -299 431 -306 q 415 -279 415 -292 l 415 -154 q 442 -126 415 -126 l 521 -126 q 540 -134 533 -126 q 547 -154 547 -142 l 547 -279 q 521 -306 547 -306 l 442 -306 z "},"Ò":{"ha":965,"x_min":69,"x_max":896,"o":"m 482 -8 q 246 31 333 -8 q 114 183 158 71 q 69 510 69 294 q 115 839 69 725 q 247 994 160 953 q 482 1035 335 1035 q 719 994 631 1035 q 851 840 807 953 q 896 510 896 726 q 851 183 896 294 q 719 31 806 71 q 482 -8 632 -8 m 482 146 q 628 174 578 146 q 701 278 679 201 q 724 510 724 356 q 701 749 724 669 q 628 854 678 828 q 482 881 578 881 q 339 853 389 881 q 265 748 289 826 q 242 510 242 669 q 263 278 242 354 q 335 174 285 201 q 482 146 385 146 m 286 1292 l 426 1292 l 551 1099 l 450 1099 l 286 1292 z "},"Ỏ":{"ha":965,"x_min":69,"x_max":896,"o":"m 482 -8 q 246 31 333 -8 q 114 183 158 71 q 69 510 69 294 q 115 839 69 725 q 247 994 160 953 q 482 1035 335 1035 q 719 994 631 1035 q 851 840 807 953 q 896 510 896 726 q 851 183 896 294 q 719 31 806 71 q 482 -8 632 -8 m 482 146 q 628 174 578 146 q 701 278 679 201 q 724 510 724 356 q 701 749 724 669 q 628 854 678 828 q 482 881 578 881 q 339 853 389 881 q 265 748 289 826 q 242 510 242 669 q 263 278 242 354 q 335 174 285 201 q 482 146 385 146 m 444 1144 q 508 1210 508 1164 q 456 1257 508 1257 q 408 1249 439 1257 l 408 1317 q 478 1328 442 1328 q 569 1298 538 1328 q 600 1215 600 1268 q 563 1126 600 1163 q 444 1068 525 1090 l 444 1144 z "},"Ơ":{"ha":965,"x_min":69,"x_max":918,"o":"m 918 1181 q 884 1022 918 1081 q 789 942 850 963 q 869 781 843 885 q 896 510 896 676 q 851 183 896 294 q 719 31 806 71 q 482 -8 632 -8 q 246 31 333 -8 q 114 183 158 71 q 69 510 69 294 q 115 839 69 725 q 247 994 160 953 q 482 1035 335 1035 q 618 1025 561 1035 l 694 1025 q 771 1061 744 1025 q 797 1181 797 1097 l 918 1181 m 482 146 q 628 174 578 146 q 701 278 679 201 q 724 510 724 356 q 701 749 724 669 q 628 854 678 828 q 482 881 578 881 q 339 853 389 881 q 265 748 289 826 q 242 510 242 669 q 263 278 242 354 q 335 174 285 201 q 482 146 385 146 z "},"Ớ":{"ha":965,"x_min":69,"x_max":918,"o":"m 918 1181 q 884 1022 918 1081 q 789 942 850 963 q 869 781 843 885 q 896 510 896 676 q 851 183 896 294 q 719 31 806 71 q 482 -8 632 -8 q 246 31 333 -8 q 114 183 158 71 q 69 510 69 294 q 115 839 69 725 q 247 994 160 953 q 482 1035 335 1035 q 618 1025 561 1035 l 694 1025 q 771 1061 744 1025 q 797 1181 797 1097 l 918 1181 m 482 146 q 628 174 578 146 q 701 278 679 201 q 724 510 724 356 q 701 749 724 669 q 628 854 678 828 q 482 881 578 881 q 339 853 389 881 q 265 748 289 826 q 242 510 242 669 q 263 278 242 354 q 335 174 285 201 q 482 146 385 146 m 540 1292 l 682 1292 l 517 1099 l 417 1099 l 540 1292 z "},"Ợ":{"ha":965,"x_min":69,"x_max":918,"o":"m 918 1181 q 884 1022 918 1081 q 789 942 850 963 q 869 781 843 885 q 896 510 896 676 q 851 183 896 294 q 719 31 806 71 q 482 -8 632 -8 q 246 31 333 -8 q 114 183 158 71 q 69 510 69 294 q 115 839 69 725 q 247 994 160 953 q 482 1035 335 1035 q 618 1025 561 1035 l 694 1025 q 771 1061 744 1025 q 797 1181 797 1097 l 918 1181 m 482 146 q 628 174 578 146 q 701 278 679 201 q 724 510 724 356 q 701 749 724 669 q 628 854 678 828 q 482 881 578 881 q 339 853 389 881 q 265 748 289 826 q 242 510 242 669 q 263 278 242 354 q 335 174 285 201 q 482 146 385 146 m 447 -306 q 428 -299 436 -306 q 421 -279 421 -292 l 421 -154 q 447 -126 421 -126 l 526 -126 q 546 -134 539 -126 q 553 -154 553 -142 l 553 -279 q 526 -306 553 -306 l 447 -306 z "},"Ờ":{"ha":965,"x_min":69,"x_max":918,"o":"m 918 1181 q 884 1022 918 1081 q 789 942 850 963 q 869 781 843 885 q 896 510 896 676 q 851 183 896 294 q 719 31 806 71 q 482 -8 632 -8 q 246 31 333 -8 q 114 183 158 71 q 69 510 69 294 q 115 839 69 725 q 247 994 160 953 q 482 1035 335 1035 q 618 1025 561 1035 l 694 1025 q 771 1061 744 1025 q 797 1181 797 1097 l 918 1181 m 482 146 q 628 174 578 146 q 701 278 679 201 q 724 510 724 356 q 701 749 724 669 q 628 854 678 828 q 482 881 578 881 q 339 853 389 881 q 265 748 289 826 q 242 510 242 669 q 263 278 242 354 q 335 174 285 201 q 482 146 385 146 m 256 1292 l 396 1292 l 521 1099 l 419 1099 l 256 1292 z "},"Ở":{"ha":965,"x_min":69,"x_max":918,"o":"m 918 1181 q 884 1022 918 1081 q 789 942 850 963 q 869 781 843 885 q 896 510 896 676 q 851 183 896 294 q 719 31 806 71 q 482 -8 632 -8 q 246 31 333 -8 q 114 183 158 71 q 69 510 69 294 q 115 839 69 725 q 247 994 160 953 q 482 1035 335 1035 q 618 1025 561 1035 l 694 1025 q 771 1061 744 1025 q 797 1181 797 1097 l 918 1181 m 482 146 q 628 174 578 146 q 701 278 679 201 q 724 510 724 356 q 701 749 724 669 q 628 854 678 828 q 482 881 578 881 q 339 853 389 881 q 265 748 289 826 q 242 510 242 669 q 263 278 242 354 q 335 174 285 201 q 482 146 385 146 m 443 1144 q 507 1210 507 1164 q 454 1257 507 1257 q 407 1249 438 1257 l 407 1317 q 476 1328 440 1328 q 567 1298 536 1328 q 599 1215 599 1268 q 561 1126 599 1163 q 443 1068 524 1090 l 443 1144 z "},"Ỡ":{"ha":965,"x_min":69,"x_max":918,"o":"m 918 1181 q 884 1022 918 1081 q 789 942 850 963 q 869 781 843 885 q 896 510 896 676 q 851 183 896 294 q 719 31 806 71 q 482 -8 632 -8 q 246 31 333 -8 q 114 183 158 71 q 69 510 69 294 q 115 839 69 725 q 247 994 160 953 q 482 1035 335 1035 q 618 1025 561 1035 l 694 1025 q 771 1061 744 1025 q 797 1181 797 1097 l 918 1181 m 482 146 q 628 174 578 146 q 701 278 679 201 q 724 510 724 356 q 701 749 724 669 q 628 854 678 828 q 482 881 578 881 q 339 853 389 881 q 265 748 289 826 q 242 510 242 669 q 263 278 242 354 q 335 174 285 201 q 482 146 385 146 m 224 1104 q 267 1233 228 1193 q 365 1274 307 1274 q 424 1264 399 1274 q 486 1233 450 1254 q 533 1209 515 1217 q 572 1201 551 1201 q 621 1222 603 1201 q 640 1279 639 1242 l 728 1279 q 688 1150 725 1194 q 588 1106 651 1106 q 528 1116 556 1106 q 465 1146 500 1126 q 416 1170 435 1163 q 378 1178 397 1178 q 330 1158 349 1178 q 310 1104 311 1139 l 224 1104 z "},"Ő":{"ha":965,"x_min":69,"x_max":896,"o":"m 482 -8 q 246 31 333 -8 q 114 183 158 71 q 69 510 69 294 q 115 839 69 725 q 247 994 160 953 q 482 1035 335 1035 q 719 994 631 1035 q 851 840 807 953 q 896 510 896 726 q 851 183 896 294 q 719 31 806 71 q 482 -8 632 -8 m 482 146 q 628 174 578 146 q 701 278 679 201 q 724 510 724 356 q 701 749 724 669 q 628 854 678 828 q 482 881 578 881 q 339 853 389 881 q 265 748 289 826 q 242 510 242 669 q 263 278 242 354 q 335 174 285 201 q 482 146 385 146 m 417 1292 l 549 1292 l 400 1099 l 300 1099 l 417 1292 m 638 1292 l 769 1292 l 621 1099 l 521 1099 l 638 1292 z "},"Ȏ":{"ha":965,"x_min":69,"x_max":896,"o":"m 482 -8 q 246 31 333 -8 q 114 183 158 71 q 69 510 69 294 q 115 839 69 725 q 247 994 160 953 q 482 1035 335 1035 q 719 994 631 1035 q 851 840 807 953 q 896 510 896 726 q 851 183 896 294 q 719 31 806 71 q 482 -8 632 -8 m 482 146 q 628 174 578 146 q 701 278 679 201 q 724 510 724 356 q 701 749 724 669 q 628 854 678 828 q 482 881 578 881 q 339 853 389 881 q 265 748 289 826 q 242 510 242 669 q 263 278 242 354 q 335 174 285 201 q 482 146 385 146 m 482 1299 q 620 1249 569 1299 q 671 1093 671 1199 l 590 1093 q 560 1189 590 1158 q 482 1219 529 1219 q 372 1093 372 1217 l 290 1093 q 341 1249 290 1199 q 482 1299 392 1299 z "},"Ō":{"ha":965,"x_min":69,"x_max":896,"o":"m 482 -8 q 246 31 333 -8 q 114 183 158 71 q 69 510 69 294 q 115 839 69 725 q 247 994 160 953 q 482 1035 335 1035 q 719 994 631 1035 q 851 840 807 953 q 896 510 896 726 q 851 183 896 294 q 719 31 806 71 q 482 -8 632 -8 m 482 146 q 628 174 578 146 q 701 278 679 201 q 724 510 724 356 q 701 749 724 669 q 628 854 678 828 q 482 881 578 881 q 339 853 389 881 q 265 748 289 826 q 242 510 242 669 q 263 278 242 354 q 335 174 285 201 q 482 146 385 146 m 283 1235 l 665 1235 l 665 1133 l 283 1133 l 283 1235 z "},"Ṓ":{"ha":965,"x_min":69,"x_max":896,"o":"m 482 -8 q 246 31 333 -8 q 114 183 158 71 q 69 510 69 294 q 115 839 69 725 q 247 994 160 953 q 482 1035 335 1035 q 719 994 631 1035 q 851 840 807 953 q 896 510 896 726 q 851 183 896 294 q 719 31 806 71 q 482 -8 632 -8 m 482 146 q 628 174 578 146 q 701 278 679 201 q 724 510 724 356 q 701 749 724 669 q 628 854 678 828 q 482 881 578 881 q 339 853 389 881 q 265 748 289 826 q 242 510 242 669 q 263 278 242 354 q 335 174 285 201 q 482 146 385 146 m 283 1235 l 665 1235 l 665 1133 l 283 1133 l 283 1235 m 556 1492 l 697 1492 l 532 1299 l 432 1299 l 556 1492 z "},"Ṑ":{"ha":965,"x_min":69,"x_max":896,"o":"m 482 -8 q 246 31 333 -8 q 114 183 158 71 q 69 510 69 294 q 115 839 69 725 q 247 994 160 953 q 482 1035 335 1035 q 719 994 631 1035 q 851 840 807 953 q 896 510 896 726 q 851 183 896 294 q 719 31 806 71 q 482 -8 632 -8 m 482 146 q 628 174 578 146 q 701 278 679 201 q 724 510 724 356 q 701 749 724 669 q 628 854 678 828 q 482 881 578 881 q 339 853 389 881 q 265 748 289 826 q 242 510 242 669 q 263 278 242 354 q 335 174 285 201 q 482 146 385 146 m 283 1235 l 665 1235 l 665 1133 l 283 1133 l 283 1235 m 263 1492 l 403 1492 l 528 1299 l 426 1299 l 263 1492 z "},"Ǫ":{"ha":965,"x_min":69,"x_max":896,"o":"m 579 -4 q 511 -100 511 -47 q 536 -157 511 -136 q 604 -178 561 -178 l 615 -178 l 615 -260 q 574 -264 600 -264 q 464 -228 501 -264 q 426 -139 426 -192 q 447 -65 426 -99 q 507 -8 468 -31 l 482 -8 q 246 31 333 -8 q 114 183 158 71 q 69 510 69 294 q 115 839 69 725 q 247 994 160 953 q 482 1035 335 1035 q 719 994 631 1035 q 851 840 807 953 q 896 510 896 726 q 861 212 896 321 q 758 55 826 103 q 579 -4 690 7 m 242 510 q 263 278 242 354 q 335 174 285 201 q 482 146 385 146 q 628 174 578 146 q 701 278 679 201 q 724 510 724 356 q 701 749 724 669 q 628 854 678 828 q 482 881 578 881 q 339 853 389 881 q 265 748 289 826 q 242 510 242 669 z "},"Ø":{"ha":965,"x_min":69,"x_max":896,"o":"m 810 918 q 874 759 853 858 q 896 510 896 660 q 851 183 896 294 q 719 31 806 71 q 482 -8 632 -8 q 337 3 399 -8 q 228 40 275 14 l 201 0 l 86 0 l 156 106 q 91 263 113 164 q 69 510 69 361 q 115 839 69 725 q 247 994 160 953 q 482 1035 335 1035 q 628 1023 565 1035 q 736 983 690 1011 l 764 1025 l 881 1025 l 810 918 m 242 510 q 265 271 242 347 l 644 843 q 578 872 617 864 q 482 881 539 881 q 339 853 389 881 q 265 748 289 826 q 242 510 242 669 m 482 146 q 628 174 578 146 q 701 278 679 201 q 724 510 724 356 q 700 753 724 674 l 322 182 q 388 154 349 163 q 482 146 426 146 z "},"Ǿ":{"ha":965,"x_min":69,"x_max":896,"o":"m 810 918 q 874 759 853 858 q 896 510 896 660 q 851 183 896 294 q 719 31 806 71 q 482 -8 632 -8 q 337 3 399 -8 q 228 40 275 14 l 201 0 l 86 0 l 156 106 q 91 263 113 164 q 69 510 69 361 q 115 839 69 725 q 247 994 160 953 q 482 1035 335 1035 q 628 1023 565 1035 q 736 983 690 1011 l 764 1025 l 881 1025 l 810 918 m 242 510 q 265 271 242 347 l 644 843 q 578 872 617 864 q 482 881 539 881 q 339 853 389 881 q 265 748 289 826 q 242 510 242 669 m 482 146 q 628 174 578 146 q 701 278 679 201 q 724 510 724 356 q 700 753 724 674 l 322 182 q 388 154 349 163 q 482 146 426 146 m 563 1292 l 704 1292 l 539 1099 l 439 1099 l 563 1292 z "},"Õ":{"ha":965,"x_min":69,"x_max":896,"o":"m 482 -8 q 246 31 333 -8 q 114 183 158 71 q 69 510 69 294 q 115 839 69 725 q 247 994 160 953 q 482 1035 335 1035 q 719 994 631 1035 q 851 840 807 953 q 896 510 896 726 q 851 183 896 294 q 719 31 806 71 q 482 -8 632 -8 m 482 146 q 628 174 578 146 q 701 278 679 201 q 724 510 724 356 q 701 749 724 669 q 628 854 678 828 q 482 881 578 881 q 339 853 389 881 q 265 748 289 826 q 242 510 242 669 q 263 278 242 354 q 335 174 285 201 q 482 146 385 146 m 229 1104 q 273 1233 233 1193 q 371 1274 313 1274 q 430 1264 404 1274 q 492 1233 456 1254 q 539 1209 521 1217 q 578 1201 557 1201 q 626 1222 608 1201 q 646 1279 644 1242 l 733 1279 q 694 1150 731 1194 q 593 1106 657 1106 q 533 1116 561 1106 q 471 1146 506 1126 q 422 1170 440 1163 q 383 1178 403 1178 q 335 1158 354 1178 q 315 1104 317 1139 l 229 1104 z "},"Ṍ":{"ha":965,"x_min":69,"x_max":896,"o":"m 482 -8 q 246 31 333 -8 q 114 183 158 71 q 69 510 69 294 q 115 839 69 725 q 247 994 160 953 q 482 1035 335 1035 q 719 994 631 1035 q 851 840 807 953 q 896 510 896 726 q 851 183 896 294 q 719 31 806 71 q 482 -8 632 -8 m 482 146 q 628 174 578 146 q 701 278 679 201 q 724 510 724 356 q 701 749 724 669 q 628 854 678 828 q 482 881 578 881 q 339 853 389 881 q 265 748 289 826 q 242 510 242 669 q 263 278 242 354 q 335 174 285 201 q 482 146 385 146 m 229 1104 q 273 1233 233 1193 q 371 1274 313 1274 q 430 1264 404 1274 q 492 1233 456 1254 q 539 1209 521 1217 q 578 1201 557 1201 q 626 1222 608 1201 q 646 1279 644 1242 l 733 1279 q 694 1150 731 1194 q 593 1106 657 1106 q 533 1116 561 1106 q 471 1146 506 1126 q 422 1170 440 1163 q 383 1178 403 1178 q 335 1158 354 1178 q 315 1104 317 1139 l 229 1104 m 539 1517 l 681 1517 l 515 1324 l 415 1324 l 539 1517 z "},"Ṏ":{"ha":965,"x_min":69,"x_max":896,"o":"m 482 -8 q 246 31 333 -8 q 114 183 158 71 q 69 510 69 294 q 115 839 69 725 q 247 994 160 953 q 482 1035 335 1035 q 719 994 631 1035 q 851 840 807 953 q 896 510 896 726 q 851 183 896 294 q 719 31 806 71 q 482 -8 632 -8 m 482 146 q 628 174 578 146 q 701 278 679 201 q 724 510 724 356 q 701 749 724 669 q 628 854 678 828 q 482 881 578 881 q 339 853 389 881 q 265 748 289 826 q 242 510 242 669 q 263 278 242 354 q 335 174 285 201 q 482 146 385 146 m 229 1104 q 273 1233 233 1193 q 371 1274 313 1274 q 430 1264 404 1274 q 492 1233 456 1254 q 539 1209 521 1217 q 578 1201 557 1201 q 626 1222 608 1201 q 646 1279 644 1242 l 733 1279 q 694 1150 731 1194 q 593 1106 657 1106 q 533 1116 561 1106 q 471 1146 506 1126 q 422 1170 440 1163 q 383 1178 403 1178 q 335 1158 354 1178 q 315 1104 317 1139 l 229 1104 m 286 1340 q 267 1347 275 1340 q 260 1367 260 1354 l 260 1492 q 267 1512 260 1504 q 286 1519 274 1519 l 367 1519 q 385 1512 379 1519 q 392 1492 392 1504 l 392 1367 q 367 1340 392 1340 l 286 1340 m 593 1340 q 574 1347 582 1340 q 567 1367 567 1354 l 567 1492 q 593 1519 567 1519 l 672 1519 q 692 1512 685 1519 q 699 1492 699 1504 l 699 1367 q 672 1340 699 1340 l 593 1340 z "},"Ȭ":{"ha":965,"x_min":69,"x_max":896,"o":"m 482 -8 q 246 31 333 -8 q 114 183 158 71 q 69 510 69 294 q 115 839 69 725 q 247 994 160 953 q 482 1035 335 1035 q 719 994 631 1035 q 851 840 807 953 q 896 510 896 726 q 851 183 896 294 q 719 31 806 71 q 482 -8 632 -8 m 482 146 q 628 174 578 146 q 701 278 679 201 q 724 510 724 356 q 701 749 724 669 q 628 854 678 828 q 482 881 578 881 q 339 853 389 881 q 265 748 289 826 q 242 510 242 669 q 263 278 242 354 q 335 174 285 201 q 482 146 385 146 m 304 1460 l 686 1460 l 686 1358 l 304 1358 l 304 1460 m 229 1104 q 273 1233 233 1193 q 371 1274 313 1274 q 430 1264 404 1274 q 492 1233 456 1254 q 539 1209 521 1217 q 578 1201 557 1201 q 626 1222 608 1201 q 646 1279 644 1242 l 733 1279 q 694 1150 731 1194 q 593 1106 657 1106 q 533 1116 561 1106 q 471 1146 506 1126 q 422 1170 440 1163 q 383 1178 403 1178 q 335 1158 354 1178 q 315 1104 317 1139 l 229 1104 z "},"Œ":{"ha":1453,"x_min":69,"x_max":1383,"o":"m 996 867 q 921 842 947 867 q 894 769 894 818 l 894 588 l 1321 578 l 1321 443 l 894 433 l 894 257 q 994 154 894 154 l 1383 154 l 1383 11 q 961 -7 1208 -4 q 768 63 825 -7 q 650 8 719 24 q 482 -8 581 -8 q 246 31 333 -8 q 114 183 158 71 q 69 510 69 294 q 115 839 69 725 q 247 994 160 953 q 482 1035 335 1035 q 654 1017 583 1035 q 774 957 725 1000 q 848 1008 804 992 q 939 1025 892 1025 q 1383 1010 1133 1025 l 1383 867 l 996 867 m 482 146 q 628 174 578 146 q 701 278 679 201 q 724 510 724 356 q 701 749 724 669 q 628 854 678 828 q 482 881 578 881 q 339 853 389 881 q 265 748 289 826 q 242 510 242 669 q 263 278 242 354 q 335 174 285 201 q 482 146 385 146 z "},"P":{"ha":854,"x_min":96,"x_max":804,"o":"m 96 1025 l 519 1025 q 724 955 643 1025 q 804 682 804 885 q 522 329 804 329 q 396 336 479 329 q 267 350 313 343 l 267 0 l 96 0 l 96 1025 m 497 485 q 597 531 561 485 q 632 681 632 576 q 503 871 632 871 l 267 871 l 267 485 l 497 485 z "},"Ṗ":{"ha":854,"x_min":96,"x_max":804,"o":"m 96 1025 l 519 1025 q 724 955 643 1025 q 804 682 804 885 q 522 329 804 329 q 396 336 479 329 q 267 350 313 343 l 267 0 l 96 0 l 96 1025 m 497 485 q 597 531 561 485 q 632 681 632 576 q 503 871 632 871 l 267 871 l 267 485 l 497 485 m 372 1125 q 353 1132 361 1125 q 346 1151 346 1139 l 346 1276 q 372 1304 346 1304 l 451 1304 q 471 1297 464 1304 q 478 1276 478 1289 l 478 1151 q 451 1125 478 1125 l 372 1125 z "},"Þ":{"ha":801,"x_min":96,"x_max":751,"o":"m 96 1025 l 267 1025 l 267 851 l 467 851 q 671 785 590 851 q 751 528 751 719 q 469 194 751 194 q 267 215 418 194 l 267 0 l 96 0 l 96 1025 m 444 350 q 544 391 508 350 q 579 526 579 432 q 450 697 579 697 l 267 697 l 267 350 l 444 350 z "},"Q":{"ha":965,"x_min":69,"x_max":896,"o":"m 482 -8 q 246 31 333 -8 q 114 183 158 71 q 69 510 69 294 q 115 839 69 725 q 247 994 160 953 q 482 1035 335 1035 q 719 994 631 1035 q 851 840 807 953 q 896 510 896 726 q 851 183 896 294 q 719 31 806 71 q 482 -8 632 -8 m 482 146 q 628 174 578 146 q 701 278 679 201 q 724 510 724 356 q 701 749 724 669 q 628 854 678 828 q 482 881 578 881 q 339 853 389 881 q 265 748 289 826 q 242 510 242 669 q 263 278 242 354 q 335 174 285 201 q 482 146 385 146 m 710 -260 q 537 -206 611 -260 q 454 -50 463 -151 l 574 -50 q 621 -114 585 -93 q 703 -135 657 -135 q 783 -122 731 -135 l 783 -250 q 710 -260 742 -260 z "},"R":{"ha":861,"x_min":96,"x_max":819,"o":"m 96 1025 l 513 1025 q 719 956 643 1025 q 796 707 796 888 q 748 508 796 571 q 622 419 700 446 l 819 0 l 646 0 l 468 394 q 267 397 383 394 l 267 0 l 96 0 l 96 1025 m 483 532 q 587 570 550 532 q 624 707 624 608 q 587 836 624 801 q 483 871 550 871 l 267 871 l 267 532 l 483 532 z "},"Ŕ":{"ha":861,"x_min":96,"x_max":819,"o":"m 96 1025 l 513 1025 q 719 956 643 1025 q 796 707 796 888 q 748 508 796 571 q 622 419 700 446 l 819 0 l 646 0 l 468 394 q 267 397 383 394 l 267 0 l 96 0 l 96 1025 m 483 532 q 587 570 550 532 q 624 707 624 608 q 587 836 624 801 q 483 871 550 871 l 267 871 l 267 532 l 483 532 m 493 1292 l 635 1292 l 469 1099 l 369 1099 l 493 1292 z "},"Ř":{"ha":861,"x_min":96,"x_max":819,"o":"m 96 1025 l 513 1025 q 719 956 643 1025 q 796 707 796 888 q 748 508 796 571 q 622 419 700 446 l 819 0 l 646 0 l 468 394 q 267 397 383 394 l 267 0 l 96 0 l 96 1025 m 483 532 q 587 570 550 532 q 624 707 624 608 q 587 836 624 801 q 483 871 550 871 l 267 871 l 267 532 l 483 532 m 208 1292 l 308 1292 l 413 1176 l 525 1292 l 626 1292 l 469 1099 l 350 1099 l 208 1292 z "},"Ŗ":{"ha":861,"x_min":96,"x_max":819,"o":"m 96 1025 l 513 1025 q 719 956 643 1025 q 796 707 796 888 q 748 508 796 571 q 622 419 700 446 l 819 0 l 646 0 l 468 394 q 267 397 383 394 l 267 0 l 96 0 l 96 1025 m 483 532 q 587 570 550 532 q 624 707 624 608 q 587 836 624 801 q 483 871 550 871 l 267 871 l 267 532 l 483 532 m 300 -222 l 339 -214 q 387 -197 371 -207 q 410 -165 403 -187 q 418 -96 418 -142 l 524 -96 q 490 -249 524 -204 q 365 -293 456 -293 l 300 -293 l 300 -222 z "},"Ȑ":{"ha":861,"x_min":96,"x_max":819,"o":"m 96 1025 l 513 1025 q 719 956 643 1025 q 796 707 796 888 q 748 508 796 571 q 622 419 700 446 l 819 0 l 646 0 l 468 394 q 267 397 383 394 l 267 0 l 96 0 l 96 1025 m 483 532 q 587 570 550 532 q 624 707 624 608 q 587 836 624 801 q 483 871 550 871 l 267 871 l 267 532 l 483 532 m 104 1292 l 244 1292 l 369 1099 l 268 1099 l 104 1292 m 336 1292 l 476 1292 l 601 1099 l 500 1099 l 336 1292 z "},"Ṛ":{"ha":861,"x_min":96,"x_max":819,"o":"m 96 1025 l 513 1025 q 719 956 643 1025 q 796 707 796 888 q 748 508 796 571 q 622 419 700 446 l 819 0 l 646 0 l 468 394 q 267 397 383 394 l 267 0 l 96 0 l 96 1025 m 483 532 q 587 570 550 532 q 624 707 624 608 q 587 836 624 801 q 483 871 550 871 l 267 871 l 267 532 l 483 532 m 378 -306 q 359 -299 367 -306 q 351 -279 351 -292 l 351 -154 q 378 -126 351 -126 l 457 -126 q 476 -134 469 -126 q 483 -154 483 -142 l 483 -279 q 457 -306 483 -306 l 378 -306 z "},"Ȓ":{"ha":861,"x_min":96,"x_max":819,"o":"m 96 1025 l 513 1025 q 719 956 643 1025 q 796 707 796 888 q 748 508 796 571 q 622 419 700 446 l 819 0 l 646 0 l 468 394 q 267 397 383 394 l 267 0 l 96 0 l 96 1025 m 483 532 q 587 570 550 532 q 624 707 624 608 q 587 836 624 801 q 483 871 550 871 l 267 871 l 267 532 l 483 532 m 413 1299 q 551 1249 500 1299 q 601 1093 601 1199 l 521 1093 q 490 1189 521 1158 q 413 1219 460 1219 q 303 1093 303 1217 l 221 1093 q 272 1249 221 1199 q 413 1299 322 1299 z "},"Ṟ":{"ha":861,"x_min":96,"x_max":819,"o":"m 96 1025 l 513 1025 q 719 956 643 1025 q 796 707 796 888 q 748 508 796 571 q 622 419 700 446 l 819 0 l 646 0 l 468 394 q 267 397 383 394 l 267 0 l 96 0 l 96 1025 m 483 532 q 587 570 550 532 q 624 707 624 608 q 587 836 624 801 q 483 871 550 871 l 267 871 l 267 532 l 483 532 m 228 -182 l 610 -182 l 610 -283 l 228 -283 l 228 -182 z "},"S":{"ha":813,"x_min":71,"x_max":743,"o":"m 399 -8 q 232 0 324 -8 q 81 22 140 8 l 81 157 q 390 146 206 146 q 531 172 483 146 q 579 268 579 199 l 579 317 q 549 400 579 371 q 458 429 518 429 l 363 429 q 144 493 217 429 q 71 700 71 557 l 71 753 q 151 965 71 897 q 390 1033 232 1033 q 548 1024 463 1033 q 694 1001 633 1014 l 694 867 q 410 879 507 879 q 278 851 322 879 q 235 746 235 822 l 235 711 q 269 621 235 649 q 372 593 303 593 l 479 593 q 676 523 608 593 q 743 338 743 453 l 743 272 q 654 52 743 113 q 399 -8 565 -8 z "},"Ś":{"ha":813,"x_min":71,"x_max":743,"o":"m 399 -8 q 232 0 324 -8 q 81 22 140 8 l 81 157 q 390 146 206 146 q 531 172 483 146 q 579 268 579 199 l 579 317 q 549 400 579 371 q 458 429 518 429 l 363 429 q 144 493 217 429 q 71 700 71 557 l 71 753 q 151 965 71 897 q 390 1033 232 1033 q 548 1024 463 1033 q 694 1001 633 1014 l 694 867 q 410 879 507 879 q 278 851 322 879 q 235 746 235 822 l 235 711 q 269 621 235 649 q 372 593 303 593 l 479 593 q 676 523 608 593 q 743 338 743 453 l 743 272 q 654 52 743 113 q 399 -8 565 -8 m 479 1292 l 621 1292 l 456 1099 l 356 1099 l 479 1292 z "},"Ṥ":{"ha":813,"x_min":71,"x_max":743,"o":"m 399 -8 q 232 0 324 -8 q 81 22 140 8 l 81 157 q 390 146 206 146 q 531 172 483 146 q 579 268 579 199 l 579 317 q 549 400 579 371 q 458 429 518 429 l 363 429 q 144 493 217 429 q 71 700 71 557 l 71 753 q 151 965 71 897 q 390 1033 232 1033 q 548 1024 463 1033 q 694 1001 633 1014 l 694 867 q 410 879 507 879 q 278 851 322 879 q 235 746 235 822 l 235 711 q 269 621 235 649 q 372 593 303 593 l 479 593 q 676 523 608 593 q 743 338 743 453 l 743 272 q 654 52 743 113 q 399 -8 565 -8 m 440 1292 l 582 1292 l 417 1099 l 317 1099 l 440 1292 m 414 1332 q 395 1339 403 1332 q 388 1358 388 1346 l 388 1483 q 414 1511 388 1511 l 493 1511 q 513 1503 506 1511 q 519 1483 519 1496 l 519 1358 q 493 1332 519 1332 l 414 1332 z "},"Š":{"ha":813,"x_min":71,"x_max":743,"o":"m 399 -8 q 232 0 324 -8 q 81 22 140 8 l 81 157 q 390 146 206 146 q 531 172 483 146 q 579 268 579 199 l 579 317 q 549 400 579 371 q 458 429 518 429 l 363 429 q 144 493 217 429 q 71 700 71 557 l 71 753 q 151 965 71 897 q 390 1033 232 1033 q 548 1024 463 1033 q 694 1001 633 1014 l 694 867 q 410 879 507 879 q 278 851 322 879 q 235 746 235 822 l 235 711 q 269 621 235 649 q 372 593 303 593 l 479 593 q 676 523 608 593 q 743 338 743 453 l 743 272 q 654 52 743 113 q 399 -8 565 -8 m 194 1292 l 294 1292 l 399 1176 l 511 1292 l 613 1292 l 456 1099 l 336 1099 l 194 1292 z "},"Ṧ":{"ha":813,"x_min":71,"x_max":743,"o":"m 399 -8 q 232 0 324 -8 q 81 22 140 8 l 81 157 q 390 146 206 146 q 531 172 483 146 q 579 268 579 199 l 579 317 q 549 400 579 371 q 458 429 518 429 l 363 429 q 144 493 217 429 q 71 700 71 557 l 71 753 q 151 965 71 897 q 390 1033 232 1033 q 548 1024 463 1033 q 694 1001 633 1014 l 694 867 q 410 879 507 879 q 278 851 322 879 q 235 746 235 822 l 235 711 q 269 621 235 649 q 372 593 303 593 l 479 593 q 676 523 608 593 q 743 338 743 453 l 743 272 q 654 52 743 113 q 399 -8 565 -8 m 194 1292 l 294 1292 l 399 1176 l 511 1292 l 613 1292 l 456 1099 l 336 1099 l 194 1292 m 356 1340 q 337 1347 344 1340 q 329 1367 329 1354 l 329 1492 q 356 1519 329 1519 l 435 1519 q 454 1512 447 1519 q 461 1492 461 1504 l 461 1367 q 435 1340 461 1340 l 356 1340 z "},"Ş":{"ha":813,"x_min":71,"x_max":743,"o":"m 479 593 q 676 523 608 593 q 743 338 743 453 l 743 272 q 666 62 743 124 q 444 -7 589 0 l 403 -74 q 473 -99 447 -76 q 499 -164 499 -122 q 463 -243 499 -215 q 356 -271 426 -271 l 297 -271 l 297 -200 l 324 -197 q 388 -143 388 -189 q 372 -108 388 -122 q 314 -89 356 -93 l 367 -8 q 212 2 292 -6 q 81 22 132 10 l 81 157 q 390 146 206 146 q 531 172 483 146 q 579 268 579 199 l 579 317 q 549 400 579 371 q 458 429 518 429 l 363 429 q 144 493 217 429 q 71 700 71 557 l 71 753 q 151 965 71 897 q 390 1033 232 1033 q 548 1024 463 1033 q 694 1001 633 1014 l 694 867 q 410 879 507 879 q 278 851 322 879 q 235 746 235 822 l 235 711 q 269 621 235 649 q 372 593 303 593 l 479 593 z "},"Ŝ":{"ha":813,"x_min":71,"x_max":743,"o":"m 399 -8 q 232 0 324 -8 q 81 22 140 8 l 81 157 q 390 146 206 146 q 531 172 483 146 q 579 268 579 199 l 579 317 q 549 400 579 371 q 458 429 518 429 l 363 429 q 144 493 217 429 q 71 700 71 557 l 71 753 q 151 965 71 897 q 390 1033 232 1033 q 548 1024 463 1033 q 694 1001 633 1014 l 694 867 q 410 879 507 879 q 278 851 322 879 q 235 746 235 822 l 235 711 q 269 621 235 649 q 372 593 303 593 l 479 593 q 676 523 608 593 q 743 338 743 453 l 743 272 q 654 52 743 113 q 399 -8 565 -8 m 344 1292 l 463 1292 l 606 1099 l 504 1099 l 400 1214 l 289 1099 l 188 1099 l 344 1292 z "},"Ș":{"ha":813,"x_min":71,"x_max":743,"o":"m 399 -8 q 232 0 324 -8 q 81 22 140 8 l 81 157 q 390 146 206 146 q 531 172 483 146 q 579 268 579 199 l 579 317 q 549 400 579 371 q 458 429 518 429 l 363 429 q 144 493 217 429 q 71 700 71 557 l 71 753 q 151 965 71 897 q 390 1033 232 1033 q 548 1024 463 1033 q 694 1001 633 1014 l 694 867 q 410 879 507 879 q 278 851 322 879 q 235 746 235 822 l 235 711 q 269 621 235 649 q 372 593 303 593 l 479 593 q 676 523 608 593 q 743 338 743 453 l 743 272 q 654 52 743 113 q 399 -8 565 -8 m 281 -222 l 319 -214 q 367 -197 351 -207 q 391 -165 383 -187 q 399 -96 399 -142 l 504 -96 q 470 -249 504 -204 q 346 -293 436 -293 l 281 -293 l 281 -222 z "},"Ṡ":{"ha":813,"x_min":71,"x_max":743,"o":"m 399 -8 q 232 0 324 -8 q 81 22 140 8 l 81 157 q 390 146 206 146 q 531 172 483 146 q 579 268 579 199 l 579 317 q 549 400 579 371 q 458 429 518 429 l 363 429 q 144 493 217 429 q 71 700 71 557 l 71 753 q 151 965 71 897 q 390 1033 232 1033 q 548 1024 463 1033 q 694 1001 633 1014 l 694 867 q 410 879 507 879 q 278 851 322 879 q 235 746 235 822 l 235 711 q 269 621 235 649 q 372 593 303 593 l 479 593 q 676 523 608 593 q 743 338 743 453 l 743 272 q 654 52 743 113 q 399 -8 565 -8 m 356 1125 q 337 1132 344 1125 q 329 1151 329 1139 l 329 1276 q 356 1304 329 1304 l 435 1304 q 454 1297 447 1304 q 461 1276 461 1289 l 461 1151 q 435 1125 461 1125 l 356 1125 z "},"Ṣ":{"ha":813,"x_min":71,"x_max":743,"o":"m 399 -8 q 232 0 324 -8 q 81 22 140 8 l 81 157 q 390 146 206 146 q 531 172 483 146 q 579 268 579 199 l 579 317 q 549 400 579 371 q 458 429 518 429 l 363 429 q 144 493 217 429 q 71 700 71 557 l 71 753 q 151 965 71 897 q 390 1033 232 1033 q 548 1024 463 1033 q 694 1001 633 1014 l 694 867 q 410 879 507 879 q 278 851 322 879 q 235 746 235 822 l 235 711 q 269 621 235 649 q 372 593 303 593 l 479 593 q 676 523 608 593 q 743 338 743 453 l 743 272 q 654 52 743 113 q 399 -8 565 -8 m 358 -306 q 340 -299 347 -306 q 332 -279 332 -292 l 332 -154 q 358 -126 332 -126 l 438 -126 q 457 -134 450 -126 q 464 -154 464 -142 l 464 -279 q 438 -306 464 -306 l 358 -306 z "},"Ṩ":{"ha":813,"x_min":71,"x_max":743,"o":"m 399 -8 q 232 0 324 -8 q 81 22 140 8 l 81 157 q 390 146 206 146 q 531 172 483 146 q 579 268 579 199 l 579 317 q 549 400 579 371 q 458 429 518 429 l 363 429 q 144 493 217 429 q 71 700 71 557 l 71 753 q 151 965 71 897 q 390 1033 232 1033 q 548 1024 463 1033 q 694 1001 633 1014 l 694 867 q 410 879 507 879 q 278 851 322 879 q 235 746 235 822 l 235 711 q 269 621 235 649 q 372 593 303 593 l 479 593 q 676 523 608 593 q 743 338 743 453 l 743 272 q 654 52 743 113 q 399 -8 565 -8 m 358 -306 q 340 -299 347 -306 q 332 -279 332 -292 l 332 -154 q 358 -126 332 -126 l 438 -126 q 457 -134 450 -126 q 464 -154 464 -142 l 464 -279 q 438 -306 464 -306 l 358 -306 m 356 1125 q 337 1132 344 1125 q 329 1151 329 1139 l 329 1276 q 356 1304 329 1304 l 435 1304 q 454 1297 447 1304 q 461 1276 461 1289 l 461 1151 q 435 1125 461 1125 l 356 1125 z "},"ẞ":{"ha":978,"x_min":96,"x_max":908,"o":"m 644 564 q 840 503 771 564 q 908 324 908 442 l 908 257 q 826 49 908 106 q 588 -8 743 -8 q 477 -1 539 -8 q 372 15 415 6 l 372 150 q 564 147 478 147 q 692 173 647 147 q 736 268 736 199 l 736 313 q 703 398 736 371 q 599 425 671 425 l 431 425 l 431 564 l 569 564 l 560 753 l 661 871 l 383 871 q 297 842 326 871 q 267 760 267 814 l 267 0 l 96 0 l 96 757 q 173 960 96 896 q 374 1025 250 1025 q 849 1013 624 1025 l 840 997 l 849 1003 l 719 690 l 606 564 l 644 564 z "},"Ə":{"ha":861,"x_min":65,"x_max":792,"o":"m 421 -8 q 155 101 244 -8 q 65 457 65 210 l 65 571 l 618 571 q 588 763 617 696 q 500 855 560 829 q 333 881 440 881 q 110 865 224 881 l 110 997 q 379 1035 225 1035 q 609 994 521 1035 q 744 844 697 954 q 792 526 792 733 q 746 199 792 317 q 619 37 700 82 q 421 -8 539 -8 m 421 146 q 563 208 514 146 q 615 432 611 269 l 239 432 q 258 263 240 325 q 314 174 275 201 q 421 146 353 146 z "},"T":{"ha":804,"x_min":22,"x_max":782,"o":"m 317 871 l 22 871 l 22 1025 l 782 1025 l 782 871 l 489 871 l 489 0 l 317 0 l 317 871 z "},"Ŧ":{"ha":804,"x_min":22,"x_max":782,"o":"m 489 871 l 489 579 l 728 579 l 728 490 l 489 490 l 489 0 l 317 0 l 317 490 l 76 490 l 76 579 l 317 579 l 317 871 l 22 871 l 22 1025 l 782 1025 l 782 871 l 489 871 z "},"Ť":{"ha":804,"x_min":22,"x_max":782,"o":"m 317 871 l 22 871 l 22 1025 l 782 1025 l 782 871 l 489 871 l 489 0 l 317 0 l 317 871 m 199 1292 l 299 1292 l 403 1176 l 515 1292 l 617 1292 l 460 1099 l 340 1099 l 199 1292 z "},"Ţ":{"ha":804,"x_min":22,"x_max":782,"o":"m 454 0 l 407 -74 q 477 -99 451 -76 q 503 -164 503 -122 q 467 -243 503 -215 q 360 -271 431 -271 l 301 -271 l 301 -200 l 328 -197 q 392 -143 392 -189 q 376 -108 392 -122 q 318 -89 360 -93 l 376 0 l 317 0 l 317 871 l 22 871 l 22 1025 l 782 1025 l 782 871 l 489 871 l 489 0 l 454 0 z "},"Ț":{"ha":804,"x_min":22,"x_max":782,"o":"m 317 871 l 22 871 l 22 1025 l 782 1025 l 782 871 l 489 871 l 489 0 l 317 0 l 317 871 m 239 -222 l 278 -214 q 326 -197 310 -207 q 349 -165 342 -187 q 357 -96 357 -142 l 463 -96 q 428 -249 463 -204 q 304 -293 394 -293 l 239 -293 l 239 -222 z "},"Ṫ":{"ha":804,"x_min":22,"x_max":782,"o":"m 317 871 l 22 871 l 22 1025 l 782 1025 l 782 871 l 489 871 l 489 0 l 317 0 l 317 871 m 360 1125 q 341 1132 349 1125 q 333 1151 333 1139 l 333 1276 q 360 1304 333 1304 l 439 1304 q 458 1297 451 1304 q 465 1276 465 1289 l 465 1151 q 439 1125 465 1125 l 360 1125 z "},"Ṭ":{"ha":804,"x_min":22,"x_max":782,"o":"m 317 871 l 22 871 l 22 1025 l 782 1025 l 782 871 l 489 871 l 489 0 l 317 0 l 317 871 m 363 -306 q 344 -299 351 -306 q 336 -279 336 -292 l 336 -154 q 363 -126 336 -126 l 442 -126 q 461 -134 454 -126 q 468 -154 468 -142 l 468 -279 q 442 -306 468 -306 l 363 -306 z "},"Ṯ":{"ha":804,"x_min":22,"x_max":782,"o":"m 317 871 l 22 871 l 22 1025 l 782 1025 l 782 871 l 489 871 l 489 0 l 317 0 l 317 871 m 213 -182 l 594 -182 l 594 -283 l 213 -283 l 213 -182 z "},"U":{"ha":947,"x_min":82,"x_max":865,"o":"m 474 -7 q 183 66 283 -7 q 82 326 82 139 l 82 1025 l 253 1025 l 253 326 q 308 188 253 229 q 474 147 364 147 q 639 188 583 147 q 694 326 694 229 l 694 1025 l 865 1025 l 865 326 q 765 66 865 139 q 474 -7 664 -7 z "},"Ú":{"ha":947,"x_min":82,"x_max":865,"o":"m 474 -7 q 183 66 283 -7 q 82 326 82 139 l 82 1025 l 253 1025 l 253 326 q 308 188 253 229 q 474 147 364 147 q 639 188 583 147 q 694 326 694 229 l 694 1025 l 865 1025 l 865 326 q 765 66 865 139 q 474 -7 664 -7 m 544 1292 l 686 1292 l 521 1099 l 421 1099 l 544 1292 z "},"Ŭ":{"ha":947,"x_min":82,"x_max":865,"o":"m 474 -7 q 183 66 283 -7 q 82 326 82 139 l 82 1025 l 253 1025 l 253 326 q 308 188 253 229 q 474 147 364 147 q 639 188 583 147 q 694 326 694 229 l 694 1025 l 865 1025 l 865 326 q 765 66 865 139 q 474 -7 664 -7 m 454 1090 q 316 1140 367 1090 q 265 1296 265 1190 l 346 1296 q 376 1200 346 1231 q 454 1169 407 1169 q 564 1296 564 1172 l 646 1296 q 595 1140 646 1190 q 454 1090 544 1090 z "},"Û":{"ha":947,"x_min":82,"x_max":865,"o":"m 474 -7 q 183 66 283 -7 q 82 326 82 139 l 82 1025 l 253 1025 l 253 326 q 308 188 253 229 q 474 147 364 147 q 639 188 583 147 q 694 326 694 229 l 694 1025 l 865 1025 l 865 326 q 765 66 865 139 q 474 -7 664 -7 m 410 1292 l 528 1292 l 671 1099 l 569 1099 l 465 1214 l 354 1099 l 253 1099 l 410 1292 z "},"Ȕ":{"ha":947,"x_min":82,"x_max":865,"o":"m 474 -7 q 183 66 283 -7 q 82 326 82 139 l 82 1025 l 253 1025 l 253 326 q 308 188 253 229 q 474 147 364 147 q 639 188 583 147 q 694 326 694 229 l 694 1025 l 865 1025 l 865 326 q 765 66 865 139 q 474 -7 664 -7 m 156 1292 l 296 1292 l 421 1099 l 319 1099 l 156 1292 m 388 1292 l 528 1292 l 653 1099 l 551 1099 l 388 1292 z "},"Ü":{"ha":947,"x_min":82,"x_max":865,"o":"m 474 -7 q 183 66 283 -7 q 82 326 82 139 l 82 1025 l 253 1025 l 253 326 q 308 188 253 229 q 474 147 364 147 q 639 188 583 147 q 694 326 694 229 l 694 1025 l 865 1025 l 865 326 q 765 66 865 139 q 474 -7 664 -7 m 261 1115 q 242 1122 250 1115 q 235 1142 235 1129 l 235 1267 q 242 1287 235 1279 q 261 1294 249 1294 l 342 1294 q 360 1287 354 1294 q 367 1267 367 1279 l 367 1142 q 342 1115 367 1115 l 261 1115 m 568 1115 q 549 1122 557 1115 q 542 1142 542 1129 l 542 1267 q 568 1294 542 1294 l 647 1294 q 667 1287 660 1294 q 674 1267 674 1279 l 674 1142 q 647 1115 674 1115 l 568 1115 z "},"Ụ":{"ha":947,"x_min":82,"x_max":865,"o":"m 474 -7 q 183 66 283 -7 q 82 326 82 139 l 82 1025 l 253 1025 l 253 326 q 308 188 253 229 q 474 147 364 147 q 639 188 583 147 q 694 326 694 229 l 694 1025 l 865 1025 l 865 326 q 765 66 865 139 q 474 -7 664 -7 m 424 -306 q 405 -299 413 -306 q 397 -279 397 -292 l 397 -154 q 424 -126 397 -126 l 503 -126 q 522 -134 515 -126 q 529 -154 529 -142 l 529 -279 q 503 -306 529 -306 l 424 -306 z "},"Ù":{"ha":947,"x_min":82,"x_max":865,"o":"m 474 -7 q 183 66 283 -7 q 82 326 82 139 l 82 1025 l 253 1025 l 253 326 q 308 188 253 229 q 474 147 364 147 q 639 188 583 147 q 694 326 694 229 l 694 1025 l 865 1025 l 865 326 q 765 66 865 139 q 474 -7 664 -7 m 268 1292 l 408 1292 l 533 1099 l 432 1099 l 268 1292 z "},"Ủ":{"ha":947,"x_min":82,"x_max":865,"o":"m 474 -7 q 183 66 283 -7 q 82 326 82 139 l 82 1025 l 253 1025 l 253 326 q 308 188 253 229 q 474 147 364 147 q 639 188 583 147 q 694 326 694 229 l 694 1025 l 865 1025 l 865 326 q 765 66 865 139 q 474 -7 664 -7 m 426 1144 q 490 1210 490 1164 q 438 1257 490 1257 q 390 1249 421 1257 l 390 1317 q 460 1328 424 1328 q 551 1298 519 1328 q 582 1215 582 1268 q 544 1126 582 1163 q 426 1068 507 1090 l 426 1144 z "},"Ư":{"ha":947,"x_min":82,"x_max":993,"o":"m 993 1181 q 959 1022 993 1082 q 865 942 925 963 l 865 326 q 765 66 865 139 q 474 -7 664 -7 q 183 66 283 -7 q 82 326 82 139 l 82 1025 l 253 1025 l 253 326 q 308 188 253 229 q 474 147 364 147 q 639 188 583 147 q 694 326 694 229 l 694 1025 l 771 1025 q 847 1061 821 1025 q 874 1181 874 1097 l 993 1181 z "},"Ứ":{"ha":947,"x_min":82,"x_max":993,"o":"m 993 1181 q 959 1022 993 1082 q 865 942 925 963 l 865 326 q 765 66 865 139 q 474 -7 664 -7 q 183 66 283 -7 q 82 326 82 139 l 82 1025 l 253 1025 l 253 326 q 308 188 253 229 q 474 147 364 147 q 639 188 583 147 q 694 326 694 229 l 694 1025 l 771 1025 q 847 1061 821 1025 q 874 1181 874 1097 l 993 1181 m 535 1292 l 676 1292 l 511 1099 l 411 1099 l 535 1292 z "},"Ự":{"ha":947,"x_min":82,"x_max":993,"o":"m 993 1181 q 959 1022 993 1082 q 865 942 925 963 l 865 326 q 765 66 865 139 q 474 -7 664 -7 q 183 66 283 -7 q 82 326 82 139 l 82 1025 l 253 1025 l 253 326 q 308 188 253 229 q 474 147 364 147 q 639 188 583 147 q 694 326 694 229 l 694 1025 l 771 1025 q 847 1061 821 1025 q 874 1181 874 1097 l 993 1181 m 417 -306 q 398 -299 406 -306 q 390 -279 390 -292 l 390 -154 q 417 -126 390 -126 l 496 -126 q 515 -134 508 -126 q 522 -154 522 -142 l 522 -279 q 496 -306 522 -306 l 417 -306 z "},"Ừ":{"ha":947,"x_min":82,"x_max":993,"o":"m 993 1181 q 959 1022 993 1082 q 865 942 925 963 l 865 326 q 765 66 865 139 q 474 -7 664 -7 q 183 66 283 -7 q 82 326 82 139 l 82 1025 l 253 1025 l 253 326 q 308 188 253 229 q 474 147 364 147 q 639 188 583 147 q 694 326 694 229 l 694 1025 l 771 1025 q 847 1061 821 1025 q 874 1181 874 1097 l 993 1181 m 269 1292 l 410 1292 l 535 1099 l 433 1099 l 269 1292 z "},"Ử":{"ha":947,"x_min":82,"x_max":993,"o":"m 993 1181 q 959 1022 993 1082 q 865 942 925 963 l 865 326 q 765 66 865 139 q 474 -7 664 -7 q 183 66 283 -7 q 82 326 82 139 l 82 1025 l 253 1025 l 253 326 q 308 188 253 229 q 474 147 364 147 q 639 188 583 147 q 694 326 694 229 l 694 1025 l 771 1025 q 847 1061 821 1025 q 874 1181 874 1097 l 993 1181 m 439 1144 q 503 1210 503 1164 q 450 1257 503 1257 q 403 1249 433 1257 l 403 1317 q 472 1328 436 1328 q 563 1298 532 1328 q 594 1215 594 1268 q 557 1126 594 1163 q 439 1068 519 1090 l 439 1144 z "},"Ữ":{"ha":947,"x_min":82,"x_max":993,"o":"m 993 1181 q 959 1022 993 1082 q 865 942 925 963 l 865 326 q 765 66 865 139 q 474 -7 664 -7 q 183 66 283 -7 q 82 326 82 139 l 82 1025 l 253 1025 l 253 326 q 308 188 253 229 q 474 147 364 147 q 639 188 583 147 q 694 326 694 229 l 694 1025 l 771 1025 q 847 1061 821 1025 q 874 1181 874 1097 l 993 1181 m 232 1104 q 276 1233 236 1193 q 374 1274 315 1274 q 433 1264 407 1274 q 494 1233 458 1254 q 542 1209 524 1217 q 581 1201 560 1201 q 629 1222 611 1201 q 649 1279 647 1242 l 736 1279 q 697 1150 733 1194 q 596 1106 660 1106 q 536 1116 564 1106 q 474 1146 508 1126 q 424 1170 443 1163 q 386 1178 406 1178 q 338 1158 357 1178 q 318 1104 319 1139 l 232 1104 z "},"Ű":{"ha":947,"x_min":82,"x_max":865,"o":"m 474 -7 q 183 66 283 -7 q 82 326 82 139 l 82 1025 l 253 1025 l 253 326 q 308 188 253 229 q 474 147 364 147 q 639 188 583 147 q 694 326 694 229 l 694 1025 l 865 1025 l 865 326 q 765 66 865 139 q 474 -7 664 -7 m 399 1292 l 531 1292 l 382 1099 l 282 1099 l 399 1292 m 619 1292 l 751 1292 l 603 1099 l 503 1099 l 619 1292 z "},"Ȗ":{"ha":947,"x_min":82,"x_max":865,"o":"m 474 -7 q 183 66 283 -7 q 82 326 82 139 l 82 1025 l 253 1025 l 253 326 q 308 188 253 229 q 474 147 364 147 q 639 188 583 147 q 694 326 694 229 l 694 1025 l 865 1025 l 865 326 q 765 66 865 139 q 474 -7 664 -7 m 464 1299 q 602 1249 551 1299 q 653 1093 653 1199 l 572 1093 q 542 1189 572 1158 q 464 1219 511 1219 q 354 1093 354 1217 l 272 1093 q 323 1249 272 1199 q 464 1299 374 1299 z "},"Ū":{"ha":947,"x_min":82,"x_max":865,"o":"m 474 -7 q 183 66 283 -7 q 82 326 82 139 l 82 1025 l 253 1025 l 253 326 q 308 188 253 229 q 474 147 364 147 q 639 188 583 147 q 694 326 694 229 l 694 1025 l 865 1025 l 865 326 q 765 66 865 139 q 474 -7 664 -7 m 265 1235 l 647 1235 l 647 1133 l 265 1133 l 265 1235 z "},"Ṻ":{"ha":947,"x_min":82,"x_max":865,"o":"m 474 -7 q 183 66 283 -7 q 82 326 82 139 l 82 1025 l 253 1025 l 253 326 q 308 188 253 229 q 474 147 364 147 q 639 188 583 147 q 694 326 694 229 l 694 1025 l 865 1025 l 865 326 q 765 66 865 139 q 474 -7 664 -7 m 265 1235 l 647 1235 l 647 1133 l 265 1133 l 265 1235 m 261 1307 q 242 1314 250 1307 q 235 1333 235 1321 l 235 1458 q 242 1478 235 1471 q 261 1486 249 1486 l 342 1486 q 360 1478 354 1486 q 367 1458 367 1471 l 367 1333 q 342 1307 367 1307 l 261 1307 m 568 1307 q 549 1314 557 1307 q 542 1333 542 1321 l 542 1458 q 568 1486 542 1486 l 647 1486 q 667 1478 660 1486 q 674 1458 674 1471 l 674 1333 q 647 1307 674 1307 l 568 1307 z "},"Ų":{"ha":947,"x_min":82,"x_max":865,"o":"m 865 1025 l 865 326 q 794 94 865 169 q 589 0 722 18 l 592 0 q 517 -100 517 -44 q 542 -157 517 -136 q 610 -178 567 -178 l 621 -178 l 621 -260 q 579 -264 607 -264 q 469 -228 507 -264 q 432 -139 432 -192 q 517 -6 432 -54 q 474 -7 503 -7 q 183 66 283 -7 q 82 326 82 139 l 82 1025 l 253 1025 l 253 326 q 308 188 253 229 q 474 147 364 147 q 639 188 583 147 q 694 326 694 229 l 694 1025 l 865 1025 z "},"Ů":{"ha":947,"x_min":82,"x_max":865,"o":"m 474 -7 q 183 66 283 -7 q 82 326 82 139 l 82 1025 l 253 1025 l 253 326 q 308 188 253 229 q 474 147 364 147 q 639 188 583 147 q 694 326 694 229 l 694 1025 l 865 1025 l 865 326 q 765 66 865 139 q 474 -7 664 -7 m 464 1064 q 340 1099 381 1064 q 299 1218 299 1135 q 340 1338 299 1301 q 464 1374 381 1374 q 588 1338 547 1374 q 628 1218 628 1303 q 588 1099 628 1135 q 464 1064 549 1064 m 464 1129 q 528 1149 508 1129 q 547 1218 547 1168 q 528 1288 547 1268 q 464 1308 508 1308 q 399 1288 419 1308 q 379 1218 379 1268 q 399 1149 379 1168 q 464 1129 419 1129 z "},"Ũ":{"ha":947,"x_min":82,"x_max":865,"o":"m 474 -7 q 183 66 283 -7 q 82 326 82 139 l 82 1025 l 253 1025 l 253 326 q 308 188 253 229 q 474 147 364 147 q 639 188 583 147 q 694 326 694 229 l 694 1025 l 865 1025 l 865 326 q 765 66 865 139 q 474 -7 664 -7 m 211 1104 q 255 1233 215 1193 q 353 1274 294 1274 q 412 1264 386 1274 q 474 1233 438 1254 q 521 1209 503 1217 q 560 1201 539 1201 q 608 1222 590 1201 q 628 1279 626 1242 l 715 1279 q 676 1150 713 1194 q 575 1106 639 1106 q 515 1116 543 1106 q 453 1146 488 1126 q 403 1170 422 1163 q 365 1178 385 1178 q 317 1158 336 1178 q 297 1104 299 1139 l 211 1104 z "},"Ṹ":{"ha":947,"x_min":82,"x_max":865,"o":"m 474 -7 q 183 66 283 -7 q 82 326 82 139 l 82 1025 l 253 1025 l 253 326 q 308 188 253 229 q 474 147 364 147 q 639 188 583 147 q 694 326 694 229 l 694 1025 l 865 1025 l 865 326 q 765 66 865 139 q 474 -7 664 -7 m 211 1104 q 255 1233 215 1193 q 353 1274 294 1274 q 412 1264 386 1274 q 474 1233 438 1254 q 521 1209 503 1217 q 560 1201 539 1201 q 608 1222 590 1201 q 628 1279 626 1242 l 715 1279 q 676 1150 713 1194 q 575 1106 639 1106 q 515 1116 543 1106 q 453 1146 488 1126 q 403 1170 422 1163 q 365 1178 385 1178 q 317 1158 336 1178 q 297 1104 299 1139 l 211 1104 m 544 1500 l 686 1500 l 521 1307 l 421 1307 l 544 1500 z "},"V":{"ha":946,"x_min":32,"x_max":915,"o":"m 32 1025 l 210 1025 l 474 185 l 738 1025 l 915 1025 l 582 0 l 365 0 l 32 1025 z "},"W":{"ha":1376,"x_min":32,"x_max":1344,"o":"m 32 1025 l 210 1025 l 394 250 l 608 1025 l 769 1025 l 982 250 l 1167 1025 l 1344 1025 l 1093 0 l 915 0 l 689 776 l 461 0 l 283 0 l 32 1025 z "},"Ẃ":{"ha":1376,"x_min":32,"x_max":1344,"o":"m 32 1025 l 210 1025 l 394 250 l 608 1025 l 769 1025 l 982 250 l 1167 1025 l 1344 1025 l 1093 0 l 915 0 l 689 776 l 461 0 l 283 0 l 32 1025 m 799 1292 l 940 1292 l 775 1099 l 675 1099 l 799 1292 z "},"Ŵ":{"ha":1376,"x_min":32,"x_max":1344,"o":"m 32 1025 l 210 1025 l 394 250 l 608 1025 l 769 1025 l 982 250 l 1167 1025 l 1344 1025 l 1093 0 l 915 0 l 689 776 l 461 0 l 283 0 l 32 1025 m 664 1292 l 782 1292 l 925 1099 l 824 1099 l 719 1214 l 608 1099 l 507 1099 l 664 1292 z "},"Ẅ":{"ha":1376,"x_min":32,"x_max":1344,"o":"m 32 1025 l 210 1025 l 394 250 l 608 1025 l 769 1025 l 982 250 l 1167 1025 l 1344 1025 l 1093 0 l 915 0 l 689 776 l 461 0 l 283 0 l 32 1025 m 515 1115 q 497 1122 504 1115 q 489 1142 489 1129 l 489 1267 q 496 1287 489 1279 q 515 1294 503 1294 l 596 1294 q 615 1287 608 1294 q 621 1267 621 1279 l 621 1142 q 596 1115 621 1115 l 515 1115 m 822 1115 q 803 1122 811 1115 q 796 1142 796 1129 l 796 1267 q 822 1294 796 1294 l 901 1294 q 921 1287 914 1294 q 928 1267 928 1279 l 928 1142 q 901 1115 928 1115 l 822 1115 z "},"Ẁ":{"ha":1376,"x_min":32,"x_max":1344,"o":"m 32 1025 l 210 1025 l 394 250 l 608 1025 l 769 1025 l 982 250 l 1167 1025 l 1344 1025 l 1093 0 l 915 0 l 689 776 l 461 0 l 283 0 l 32 1025 m 522 1292 l 663 1292 l 788 1099 l 686 1099 l 522 1292 z "},"X":{"ha":901,"x_min":33,"x_max":869,"o":"m 550 503 l 865 0 l 675 0 l 443 369 l 226 0 l 38 0 l 353 514 l 33 1025 l 222 1025 l 460 647 l 679 1025 l 869 1025 l 550 503 z "},"Y":{"ha":867,"x_min":33,"x_max":835,"o":"m 347 321 l 33 1025 l 211 1025 l 436 496 l 661 1025 l 835 1025 l 519 321 l 519 0 l 347 0 l 347 321 z "},"Ý":{"ha":867,"x_min":33,"x_max":835,"o":"m 347 321 l 33 1025 l 211 1025 l 436 496 l 661 1025 l 835 1025 l 519 321 l 519 0 l 347 0 l 347 321 m 517 1292 l 658 1292 l 493 1099 l 393 1099 l 517 1292 z "},"Ŷ":{"ha":867,"x_min":33,"x_max":835,"o":"m 347 321 l 33 1025 l 211 1025 l 436 496 l 661 1025 l 835 1025 l 519 321 l 519 0 l 347 0 l 347 321 m 382 1292 l 500 1292 l 643 1099 l 542 1099 l 438 1214 l 326 1099 l 225 1099 l 382 1292 z "},"Ÿ":{"ha":867,"x_min":33,"x_max":835,"o":"m 347 321 l 33 1025 l 211 1025 l 436 496 l 661 1025 l 835 1025 l 519 321 l 519 0 l 347 0 l 347 321 m 233 1115 q 215 1122 222 1115 q 207 1142 207 1129 l 207 1267 q 214 1287 207 1279 q 233 1294 221 1294 l 314 1294 q 333 1287 326 1294 q 339 1267 339 1279 l 339 1142 q 314 1115 339 1115 l 233 1115 m 540 1115 q 522 1122 529 1115 q 514 1142 514 1129 l 514 1267 q 540 1294 514 1294 l 619 1294 q 639 1287 632 1294 q 646 1267 646 1279 l 646 1142 q 619 1115 646 1115 l 540 1115 z "},"Ẏ":{"ha":867,"x_min":33,"x_max":835,"o":"m 347 321 l 33 1025 l 211 1025 l 436 496 l 661 1025 l 835 1025 l 519 321 l 519 0 l 347 0 l 347 321 m 396 -306 q 377 -299 385 -306 q 369 -279 369 -292 l 369 -154 q 396 -126 369 -126 l 475 -126 q 494 -134 488 -126 q 501 -154 501 -142 l 501 -279 q 475 -306 501 -306 l 396 -306 z "},"Ỵ":{"ha":867,"x_min":33,"x_max":835,"o":"m 347 321 l 33 1025 l 211 1025 l 436 496 l 661 1025 l 835 1025 l 519 321 l 519 0 l 347 0 l 347 321 m 396 -306 q 377 -299 385 -306 q 369 -279 369 -292 l 369 -154 q 396 -126 369 -126 l 475 -126 q 494 -134 488 -126 q 501 -154 501 -142 l 501 -279 q 475 -306 501 -306 l 396 -306 z "},"Ỳ":{"ha":867,"x_min":33,"x_max":835,"o":"m 347 321 l 33 1025 l 211 1025 l 436 496 l 661 1025 l 835 1025 l 519 321 l 519 0 l 347 0 l 347 321 m 240 1292 l 381 1292 l 506 1099 l 404 1099 l 240 1292 z "},"Ỷ":{"ha":867,"x_min":33,"x_max":835,"o":"m 347 321 l 33 1025 l 211 1025 l 436 496 l 661 1025 l 835 1025 l 519 321 l 519 0 l 347 0 l 347 321 m 399 1144 q 463 1210 463 1164 q 410 1257 463 1257 q 363 1249 393 1257 l 363 1317 q 432 1328 396 1328 q 523 1298 492 1328 q 554 1215 554 1268 q 517 1126 554 1163 q 399 1068 479 1090 l 399 1144 z "},"Ȳ":{"ha":867,"x_min":33,"x_max":835,"o":"m 347 321 l 33 1025 l 211 1025 l 436 496 l 661 1025 l 835 1025 l 519 321 l 519 0 l 347 0 l 347 321 m 238 1235 l 619 1235 l 619 1133 l 238 1133 l 238 1235 z "},"Ỹ":{"ha":867,"x_min":33,"x_max":835,"o":"m 347 321 l 33 1025 l 211 1025 l 436 496 l 661 1025 l 835 1025 l 519 321 l 519 0 l 347 0 l 347 321 m 183 1104 q 227 1233 188 1193 q 325 1274 267 1274 q 384 1264 358 1274 q 446 1233 410 1254 q 493 1209 475 1217 q 532 1201 511 1201 q 581 1222 563 1201 q 600 1279 599 1242 l 688 1279 q 648 1150 685 1194 q 547 1106 611 1106 q 488 1116 515 1106 q 425 1146 460 1126 q 376 1170 394 1163 q 338 1178 357 1178 q 290 1158 308 1178 q 269 1104 271 1139 l 183 1104 z "},"Z":{"ha":790,"x_min":56,"x_max":739,"o":"m 56 139 l 531 871 l 56 871 l 56 1025 l 739 1025 l 739 888 l 265 154 l 739 154 l 739 0 l 56 0 l 56 139 z "},"Ź":{"ha":790,"x_min":56,"x_max":739,"o":"m 56 139 l 531 871 l 56 871 l 56 1025 l 739 1025 l 739 888 l 265 154 l 739 154 l 739 0 l 56 0 l 56 139 m 471 1292 l 613 1292 l 447 1099 l 347 1099 l 471 1292 z "},"Ž":{"ha":790,"x_min":56,"x_max":739,"o":"m 56 139 l 531 871 l 56 871 l 56 1025 l 739 1025 l 739 888 l 265 154 l 739 154 l 739 0 l 56 0 l 56 139 m 186 1292 l 286 1292 l 390 1176 l 503 1292 l 604 1292 l 447 1099 l 328 1099 l 186 1292 z "},"Ż":{"ha":790,"x_min":56,"x_max":739,"o":"m 56 139 l 531 871 l 56 871 l 56 1025 l 739 1025 l 739 888 l 265 154 l 739 154 l 739 0 l 56 0 l 56 139 m 347 1125 q 328 1132 336 1125 q 321 1151 321 1139 l 321 1276 q 347 1304 321 1304 l 426 1304 q 446 1297 439 1304 q 453 1276 453 1289 l 453 1151 q 426 1125 453 1125 l 347 1125 z "},"Ẓ":{"ha":790,"x_min":56,"x_max":739,"o":"m 56 139 l 531 871 l 56 871 l 56 1025 l 739 1025 l 739 888 l 265 154 l 739 154 l 739 0 l 56 0 l 56 139 m 350 -306 q 331 -299 339 -306 q 324 -279 324 -292 l 324 -154 q 350 -126 324 -126 l 429 -126 q 449 -134 442 -126 q 456 -154 456 -142 l 456 -279 q 429 -306 456 -306 l 350 -306 z "},"a":{"ha":761,"x_min":53,"x_max":678,"o":"m 242 -8 q 105 42 157 -8 q 53 179 53 93 l 53 242 q 113 383 53 331 q 293 436 174 436 l 506 436 l 506 501 q 492 568 506 543 q 440 606 478 593 q 332 619 403 619 l 107 619 l 107 719 q 399 754 233 754 q 609 699 540 754 q 678 513 678 643 l 678 0 l 543 0 l 514 81 q 457 47 500 68 q 356 8 414 25 q 242 -8 299 -8 m 325 113 q 428 133 364 113 q 506 160 493 153 l 506 354 l 344 346 q 224 239 224 336 l 224 208 q 252 136 224 158 q 325 113 281 114 z "},"á":{"ha":761,"x_min":53,"x_max":678,"o":"m 242 -8 q 105 42 157 -8 q 53 179 53 93 l 53 242 q 113 383 53 331 q 293 436 174 436 l 506 436 l 506 501 q 492 568 506 543 q 440 606 478 593 q 332 619 403 619 l 107 619 l 107 719 q 399 754 233 754 q 609 699 540 754 q 678 513 678 643 l 678 0 l 543 0 l 514 81 q 457 47 500 68 q 356 8 414 25 q 242 -8 299 -8 m 325 113 q 428 133 364 113 q 506 160 493 153 l 506 354 l 344 346 q 224 239 224 336 l 224 208 q 252 136 224 158 q 325 113 281 114 m 444 1069 l 586 1069 l 421 876 l 321 876 l 444 1069 z "},"ă":{"ha":761,"x_min":53,"x_max":678,"o":"m 242 -8 q 105 42 157 -8 q 53 179 53 93 l 53 242 q 113 383 53 331 q 293 436 174 436 l 506 436 l 506 501 q 492 568 506 543 q 440 606 478 593 q 332 619 403 619 l 107 619 l 107 719 q 399 754 233 754 q 609 699 540 754 q 678 513 678 643 l 678 0 l 543 0 l 514 81 q 457 47 500 68 q 356 8 414 25 q 242 -8 299 -8 m 325 113 q 428 133 364 113 q 506 160 493 153 l 506 354 l 344 346 q 224 239 224 336 l 224 208 q 252 136 224 158 q 325 113 281 114 m 365 868 q 227 918 278 868 q 176 1074 176 968 l 257 1074 q 288 978 257 1008 q 365 947 318 947 q 475 1074 475 950 l 557 1074 q 506 918 557 968 q 365 868 456 868 z "},"ắ":{"ha":761,"x_min":53,"x_max":678,"o":"m 242 -8 q 105 42 157 -8 q 53 179 53 93 l 53 242 q 113 383 53 331 q 293 436 174 436 l 506 436 l 506 501 q 492 568 506 543 q 440 606 478 593 q 332 619 403 619 l 107 619 l 107 719 q 399 754 233 754 q 609 699 540 754 q 678 513 678 643 l 678 0 l 543 0 l 514 81 q 457 47 500 68 q 356 8 414 25 q 242 -8 299 -8 m 325 113 q 428 133 364 113 q 506 160 493 153 l 506 354 l 344 346 q 224 239 224 336 l 224 208 q 252 136 224 158 q 325 113 281 114 m 436 1233 l 578 1233 l 413 1040 l 313 1040 l 436 1233 m 257 1015 q 286 946 257 968 q 361 924 315 924 q 475 1015 475 924 l 557 1015 q 506 892 557 932 q 365 853 456 853 q 226 892 276 853 q 176 1015 176 932 l 257 1015 z "},"ặ":{"ha":761,"x_min":53,"x_max":678,"o":"m 242 -8 q 105 42 157 -8 q 53 179 53 93 l 53 242 q 113 383 53 331 q 293 436 174 436 l 506 436 l 506 501 q 492 568 506 543 q 440 606 478 593 q 332 619 403 619 l 107 619 l 107 719 q 399 754 233 754 q 609 699 540 754 q 678 513 678 643 l 678 0 l 543 0 l 514 81 q 457 47 500 68 q 356 8 414 25 q 242 -8 299 -8 m 325 113 q 428 133 364 113 q 506 160 493 153 l 506 354 l 344 346 q 224 239 224 336 l 224 208 q 252 136 224 158 q 325 113 281 114 m 365 868 q 227 918 278 868 q 176 1074 176 968 l 257 1074 q 288 978 257 1008 q 365 947 318 947 q 475 1074 475 950 l 557 1074 q 506 918 557 968 q 365 868 456 868 m 329 -306 q 310 -299 318 -306 q 303 -279 303 -292 l 303 -154 q 310 -134 303 -142 q 329 -126 317 -126 l 410 -126 q 428 -134 422 -126 q 435 -154 435 -142 l 435 -279 q 410 -306 435 -306 l 329 -306 z "},"ằ":{"ha":761,"x_min":53,"x_max":678,"o":"m 242 -8 q 105 42 157 -8 q 53 179 53 93 l 53 242 q 113 383 53 331 q 293 436 174 436 l 506 436 l 506 501 q 492 568 506 543 q 440 606 478 593 q 332 619 403 619 l 107 619 l 107 719 q 399 754 233 754 q 609 699 540 754 q 678 513 678 643 l 678 0 l 543 0 l 514 81 q 457 47 500 68 q 356 8 414 25 q 242 -8 299 -8 m 325 113 q 428 133 364 113 q 506 160 493 153 l 506 354 l 344 346 q 224 239 224 336 l 224 208 q 252 136 224 158 q 325 113 281 114 m 165 1233 l 306 1233 l 431 1040 l 329 1040 l 165 1233 m 257 1015 q 286 946 257 968 q 361 924 315 924 q 475 1015 475 924 l 557 1015 q 506 892 557 932 q 365 853 456 853 q 226 892 276 853 q 176 1015 176 932 l 257 1015 z "},"ẳ":{"ha":761,"x_min":53,"x_max":678,"o":"m 242 -8 q 105 42 157 -8 q 53 179 53 93 l 53 242 q 113 383 53 331 q 293 436 174 436 l 506 436 l 506 501 q 492 568 506 543 q 440 606 478 593 q 332 619 403 619 l 107 619 l 107 719 q 399 754 233 754 q 609 699 540 754 q 678 513 678 643 l 678 0 l 543 0 l 514 81 q 457 47 500 68 q 356 8 414 25 q 242 -8 299 -8 m 325 113 q 428 133 364 113 q 506 160 493 153 l 506 354 l 344 346 q 224 239 224 336 l 224 208 q 252 136 224 158 q 325 113 281 114 m 338 1057 q 401 1122 401 1076 q 349 1169 401 1169 q 301 1161 332 1169 l 301 1229 q 371 1240 335 1240 q 462 1210 431 1240 q 493 1128 493 1181 q 456 1039 493 1075 q 338 981 418 1003 l 338 1057 m 365 853 q 226 892 276 853 q 176 1015 176 932 l 257 1015 q 286 946 257 968 q 361 924 315 924 q 475 1015 475 924 l 557 1015 q 506 892 557 932 q 365 853 456 853 z "},"ẵ":{"ha":761,"x_min":53,"x_max":678,"o":"m 242 -8 q 105 42 157 -8 q 53 179 53 93 l 53 242 q 113 383 53 331 q 293 436 174 436 l 506 436 l 506 501 q 492 568 506 543 q 440 606 478 593 q 332 619 403 619 l 107 619 l 107 719 q 399 754 233 754 q 609 699 540 754 q 678 513 678 643 l 678 0 l 543 0 l 514 81 q 457 47 500 68 q 356 8 414 25 q 242 -8 299 -8 m 325 113 q 428 133 364 113 q 506 160 493 153 l 506 354 l 344 346 q 224 239 224 336 l 224 208 q 252 136 224 158 q 325 113 281 114 m 265 1197 q 308 1192 288 1197 q 346 1180 329 1186 q 367 1172 363 1174 q 406 1158 386 1164 q 443 1151 426 1151 q 487 1165 471 1151 q 503 1203 503 1178 l 590 1203 q 556 1099 585 1129 q 471 1068 528 1068 q 424 1074 447 1068 q 369 1093 400 1081 q 294 1114 319 1114 q 251 1101 268 1114 q 233 1065 235 1088 l 147 1065 q 183 1169 151 1140 q 265 1197 215 1197 m 257 1015 q 286 946 257 968 q 361 924 315 924 q 475 1015 475 924 l 557 1015 q 506 892 557 932 q 365 853 456 853 q 226 892 276 853 q 176 1015 176 932 l 257 1015 z "},"â":{"ha":761,"x_min":53,"x_max":678,"o":"m 242 -8 q 105 42 157 -8 q 53 179 53 93 l 53 242 q 113 383 53 331 q 293 436 174 436 l 506 436 l 506 501 q 492 568 506 543 q 440 606 478 593 q 332 619 403 619 l 107 619 l 107 719 q 399 754 233 754 q 609 699 540 754 q 678 513 678 643 l 678 0 l 543 0 l 514 81 q 457 47 500 68 q 356 8 414 25 q 242 -8 299 -8 m 325 113 q 428 133 364 113 q 506 160 493 153 l 506 354 l 344 346 q 224 239 224 336 l 224 208 q 252 136 224 158 q 325 113 281 114 m 321 1069 l 439 1069 l 582 876 l 481 876 l 376 992 l 265 876 l 164 876 l 321 1069 z "},"ấ":{"ha":761,"x_min":53,"x_max":725,"o":"m 242 -8 q 105 42 157 -8 q 53 179 53 93 l 53 242 q 113 383 53 331 q 293 436 174 436 l 506 436 l 506 501 q 492 568 506 543 q 440 606 478 593 q 332 619 403 619 l 107 619 l 107 719 q 399 754 233 754 q 609 699 540 754 q 678 513 678 643 l 678 0 l 543 0 l 514 81 q 457 47 500 68 q 356 8 414 25 q 242 -8 299 -8 m 325 113 q 428 133 364 113 q 506 160 493 153 l 506 354 l 344 346 q 224 239 224 336 l 224 208 q 252 136 224 158 q 325 113 281 114 m 725 1167 l 601 990 l 500 990 l 585 1167 l 725 1167 m 438 1022 l 581 876 l 481 876 l 376 944 l 264 876 l 163 876 l 319 1022 l 438 1022 z "},"ậ":{"ha":761,"x_min":53,"x_max":678,"o":"m 242 -8 q 105 42 157 -8 q 53 179 53 93 l 53 242 q 113 383 53 331 q 293 436 174 436 l 506 436 l 506 501 q 492 568 506 543 q 440 606 478 593 q 332 619 403 619 l 107 619 l 107 719 q 399 754 233 754 q 609 699 540 754 q 678 513 678 643 l 678 0 l 543 0 l 514 81 q 457 47 500 68 q 356 8 414 25 q 242 -8 299 -8 m 325 113 q 428 133 364 113 q 506 160 493 153 l 506 354 l 344 346 q 224 239 224 336 l 224 208 q 252 136 224 158 q 325 113 281 114 m 321 1069 l 439 1069 l 582 876 l 481 876 l 376 992 l 265 876 l 164 876 l 321 1069 m 329 -306 q 310 -299 318 -306 q 303 -279 303 -292 l 303 -154 q 310 -134 303 -142 q 329 -126 317 -126 l 410 -126 q 428 -134 422 -126 q 435 -154 435 -142 l 435 -279 q 410 -306 435 -306 l 329 -306 z "},"ầ":{"ha":761,"x_min":26,"x_max":678,"o":"m 242 -8 q 105 42 157 -8 q 53 179 53 93 l 53 242 q 113 383 53 331 q 293 436 174 436 l 506 436 l 506 501 q 492 568 506 543 q 440 606 478 593 q 332 619 403 619 l 107 619 l 107 719 q 399 754 233 754 q 609 699 540 754 q 678 513 678 643 l 678 0 l 543 0 l 514 81 q 457 47 500 68 q 356 8 414 25 q 242 -8 299 -8 m 325 113 q 428 133 364 113 q 506 160 493 153 l 506 354 l 344 346 q 224 239 224 336 l 224 208 q 252 136 224 158 q 325 113 281 114 m 167 1167 l 251 990 l 150 990 l 26 1167 l 167 1167 m 438 1022 l 581 876 l 481 876 l 376 944 l 264 876 l 163 876 l 319 1022 l 438 1022 z "},"ẩ":{"ha":761,"x_min":53,"x_max":678,"o":"m 242 -8 q 105 42 157 -8 q 53 179 53 93 l 53 242 q 113 383 53 331 q 293 436 174 436 l 506 436 l 506 501 q 492 568 506 543 q 440 606 478 593 q 332 619 403 619 l 107 619 l 107 719 q 399 754 233 754 q 609 699 540 754 q 678 513 678 643 l 678 0 l 543 0 l 514 81 q 457 47 500 68 q 356 8 414 25 q 242 -8 299 -8 m 325 113 q 428 133 364 113 q 506 160 493 153 l 506 354 l 344 346 q 224 239 224 336 l 224 208 q 252 136 224 158 q 325 113 281 114 m 533 1028 q 586 1082 586 1044 q 576 1111 586 1101 q 543 1121 567 1121 q 497 1113 518 1121 l 497 1174 q 565 1183 525 1183 q 642 1160 617 1183 q 668 1092 668 1136 q 533 951 668 989 l 533 1028 m 319 1022 l 438 1022 l 581 876 l 481 876 l 376 944 l 264 876 l 163 876 l 319 1022 z "},"ẫ":{"ha":761,"x_min":53,"x_max":678,"o":"m 242 -8 q 105 42 157 -8 q 53 179 53 93 l 53 242 q 113 383 53 331 q 293 436 174 436 l 506 436 l 506 501 q 492 568 506 543 q 440 606 478 593 q 332 619 403 619 l 107 619 l 107 719 q 399 754 233 754 q 609 699 540 754 q 678 513 678 643 l 678 0 l 543 0 l 514 81 q 457 47 500 68 q 356 8 414 25 q 242 -8 299 -8 m 325 113 q 428 133 364 113 q 506 160 493 153 l 506 354 l 344 346 q 224 239 224 336 l 224 208 q 252 136 224 158 q 325 113 281 114 m 265 1213 q 367 1188 306 1213 q 443 1167 417 1167 q 487 1181 471 1167 q 503 1219 503 1194 l 590 1219 q 556 1114 585 1144 q 471 1083 528 1083 q 424 1090 446 1083 q 365 1108 403 1096 q 286 1129 311 1129 q 249 1117 263 1129 q 233 1082 235 1104 l 147 1082 q 183 1185 151 1157 q 265 1213 214 1213 m 581 876 l 481 876 l 376 944 l 264 876 l 163 876 l 319 1022 l 438 1022 l 581 876 z "},"ȁ":{"ha":761,"x_min":53,"x_max":678,"o":"m 242 -8 q 105 42 157 -8 q 53 179 53 93 l 53 242 q 113 383 53 331 q 293 436 174 436 l 506 436 l 506 501 q 492 568 506 543 q 440 606 478 593 q 332 619 403 619 l 107 619 l 107 719 q 399 754 233 754 q 609 699 540 754 q 678 513 678 643 l 678 0 l 543 0 l 514 81 q 457 47 500 68 q 356 8 414 25 q 242 -8 299 -8 m 325 113 q 428 133 364 113 q 506 160 493 153 l 506 354 l 344 346 q 224 239 224 336 l 224 208 q 252 136 224 158 q 325 113 281 114 m 69 1069 l 211 1069 l 335 876 l 235 876 l 69 1069 m 301 1069 l 443 1069 l 567 876 l 467 876 l 301 1069 z "},"ä":{"ha":761,"x_min":53,"x_max":678,"o":"m 242 -8 q 105 42 157 -8 q 53 179 53 93 l 53 242 q 113 383 53 331 q 293 436 174 436 l 506 436 l 506 501 q 492 568 506 543 q 440 606 478 593 q 332 619 403 619 l 107 619 l 107 719 q 399 754 233 754 q 609 699 540 754 q 678 513 678 643 l 678 0 l 543 0 l 514 81 q 457 47 500 68 q 356 8 414 25 q 242 -8 299 -8 m 325 113 q 428 133 364 113 q 506 160 493 153 l 506 354 l 344 346 q 224 239 224 336 l 224 208 q 252 136 224 158 q 325 113 281 114 m 194 893 q 176 900 183 893 q 168 919 168 907 l 168 1044 q 175 1065 168 1057 q 194 1072 182 1072 l 275 1072 q 294 1065 288 1072 q 300 1044 300 1057 l 300 919 q 275 893 300 893 l 194 893 m 467 893 q 448 900 456 893 q 440 919 440 907 l 440 1044 q 467 1072 440 1072 l 547 1072 q 566 1065 560 1072 q 572 1044 572 1057 l 572 919 q 547 893 572 893 l 467 893 z "},"ạ":{"ha":761,"x_min":53,"x_max":678,"o":"m 242 -8 q 105 42 157 -8 q 53 179 53 93 l 53 242 q 113 383 53 331 q 293 436 174 436 l 506 436 l 506 501 q 492 568 506 543 q 440 606 478 593 q 332 619 403 619 l 107 619 l 107 719 q 399 754 233 754 q 609 699 540 754 q 678 513 678 643 l 678 0 l 543 0 l 514 81 q 457 47 500 68 q 356 8 414 25 q 242 -8 299 -8 m 325 113 q 428 133 364 113 q 506 160 493 153 l 506 354 l 344 346 q 224 239 224 336 l 224 208 q 252 136 224 158 q 325 113 281 114 m 329 -306 q 310 -299 318 -306 q 303 -279 303 -292 l 303 -154 q 310 -134 303 -142 q 329 -126 317 -126 l 410 -126 q 428 -134 422 -126 q 435 -154 435 -142 l 435 -279 q 410 -306 435 -306 l 329 -306 z "},"à":{"ha":761,"x_min":53,"x_max":678,"o":"m 242 -8 q 105 42 157 -8 q 53 179 53 93 l 53 242 q 113 383 53 331 q 293 436 174 436 l 506 436 l 506 501 q 492 568 506 543 q 440 606 478 593 q 332 619 403 619 l 107 619 l 107 719 q 399 754 233 754 q 609 699 540 754 q 678 513 678 643 l 678 0 l 543 0 l 514 81 q 457 47 500 68 q 356 8 414 25 q 242 -8 299 -8 m 325 113 q 428 133 364 113 q 506 160 493 153 l 506 354 l 344 346 q 224 239 224 336 l 224 208 q 252 136 224 158 q 325 113 281 114 m 190 1069 l 331 1069 l 456 876 l 354 876 l 190 1069 z "},"ả":{"ha":761,"x_min":53,"x_max":678,"o":"m 242 -8 q 105 42 157 -8 q 53 179 53 93 l 53 242 q 113 383 53 331 q 293 436 174 436 l 506 436 l 506 501 q 492 568 506 543 q 440 606 478 593 q 332 619 403 619 l 107 619 l 107 719 q 399 754 233 754 q 609 699 540 754 q 678 513 678 643 l 678 0 l 543 0 l 514 81 q 457 47 500 68 q 356 8 414 25 q 242 -8 299 -8 m 325 113 q 428 133 364 113 q 506 160 493 153 l 506 354 l 344 346 q 224 239 224 336 l 224 208 q 252 136 224 158 q 325 113 281 114 m 340 906 q 404 971 404 925 q 351 1018 404 1018 q 304 1010 335 1018 l 304 1078 q 374 1089 338 1089 q 465 1059 433 1089 q 496 976 496 1029 q 458 888 496 924 q 340 829 421 851 l 340 906 z "},"ȃ":{"ha":761,"x_min":53,"x_max":678,"o":"m 242 -8 q 105 42 157 -8 q 53 179 53 93 l 53 242 q 113 383 53 331 q 293 436 174 436 l 506 436 l 506 501 q 492 568 506 543 q 440 606 478 593 q 332 619 403 619 l 107 619 l 107 719 q 399 754 233 754 q 609 699 540 754 q 678 513 678 643 l 678 0 l 543 0 l 514 81 q 457 47 500 68 q 356 8 414 25 q 242 -8 299 -8 m 325 113 q 428 133 364 113 q 506 160 493 153 l 506 354 l 344 346 q 224 239 224 336 l 224 208 q 252 136 224 158 q 325 113 281 114 m 376 1076 q 515 1026 464 1076 q 565 871 565 976 l 485 871 q 454 967 485 936 q 376 997 424 997 q 267 871 267 994 l 185 871 q 235 1026 185 976 q 376 1076 286 1076 z "},"ā":{"ha":761,"x_min":53,"x_max":678,"o":"m 242 -8 q 105 42 157 -8 q 53 179 53 93 l 53 242 q 113 383 53 331 q 293 436 174 436 l 506 436 l 506 501 q 492 568 506 543 q 440 606 478 593 q 332 619 403 619 l 107 619 l 107 719 q 399 754 233 754 q 609 699 540 754 q 678 513 678 643 l 678 0 l 543 0 l 514 81 q 457 47 500 68 q 356 8 414 25 q 242 -8 299 -8 m 325 113 q 428 133 364 113 q 506 160 493 153 l 506 354 l 344 346 q 224 239 224 336 l 224 208 q 252 136 224 158 q 325 113 281 114 m 179 1013 l 561 1013 l 561 911 l 179 911 l 179 1013 z "},"ą":{"ha":761,"x_min":53,"x_max":707,"o":"m 707 -178 l 707 -260 q 665 -264 693 -264 q 556 -228 593 -264 q 518 -139 518 -192 q 542 -58 518 -94 q 614 0 567 -22 l 543 0 l 514 81 q 457 47 500 68 q 356 8 414 25 q 242 -8 299 -8 q 105 42 157 -8 q 53 179 53 93 l 53 242 q 113 383 53 331 q 293 436 174 436 l 506 436 l 506 501 q 492 568 506 543 q 440 606 478 593 q 332 619 403 619 l 107 619 l 107 719 q 399 754 233 754 q 609 699 540 754 q 678 513 678 643 l 678 0 q 603 -100 603 -44 q 628 -157 603 -136 q 696 -178 653 -178 l 707 -178 m 506 354 l 344 346 q 224 239 224 336 l 224 208 q 252 136 224 158 q 325 113 281 114 q 428 133 364 113 q 506 160 493 153 l 506 354 z "},"å":{"ha":761,"x_min":53,"x_max":678,"o":"m 242 -8 q 105 42 157 -8 q 53 179 53 93 l 53 242 q 113 383 53 331 q 293 436 174 436 l 506 436 l 506 501 q 492 568 506 543 q 440 606 478 593 q 332 619 403 619 l 107 619 l 107 719 q 399 754 233 754 q 609 699 540 754 q 678 513 678 643 l 678 0 l 543 0 l 514 81 q 457 47 500 68 q 356 8 414 25 q 242 -8 299 -8 m 325 113 q 428 133 364 113 q 506 160 493 153 l 506 354 l 344 346 q 224 239 224 336 l 224 208 q 252 136 224 158 q 325 113 281 114 m 375 817 q 251 852 292 817 q 210 971 210 888 q 251 1090 210 1054 q 375 1126 292 1126 q 499 1091 458 1126 q 539 971 539 1056 q 499 852 539 888 q 375 817 460 817 m 375 882 q 439 901 419 882 q 458 971 458 921 q 439 1041 458 1021 q 375 1061 419 1061 q 310 1041 331 1061 q 290 971 290 1021 q 310 901 290 921 q 375 882 331 882 z "},"ǻ":{"ha":761,"x_min":53,"x_max":678,"o":"m 375 817 q 251 852 292 817 q 210 971 210 888 q 243 1083 210 1047 q 344 1125 276 1119 l 451 1292 l 593 1292 l 444 1118 q 515 1072 492 1107 q 539 971 539 1036 q 499 852 539 888 q 375 817 460 817 m 375 1061 q 310 1041 331 1061 q 290 971 290 1021 q 310 901 290 921 q 375 882 331 882 q 439 901 419 882 q 458 971 458 921 q 439 1041 458 1021 q 375 1061 419 1061 m 399 754 q 609 699 540 754 q 678 513 678 643 l 678 0 l 543 0 l 514 81 q 457 47 500 68 q 356 8 414 25 q 242 -8 299 -8 q 105 42 157 -8 q 53 179 53 93 l 53 242 q 113 383 53 331 q 293 436 174 436 l 506 436 l 506 501 q 492 568 506 543 q 440 606 478 593 q 332 619 403 619 l 107 619 l 107 719 q 399 754 233 754 m 506 354 l 344 346 q 224 239 224 336 l 224 208 q 252 136 224 158 q 325 113 281 114 q 428 133 364 113 q 506 160 493 153 l 506 354 z "},"ã":{"ha":761,"x_min":53,"x_max":678,"o":"m 242 -8 q 105 42 157 -8 q 53 179 53 93 l 53 242 q 113 383 53 331 q 293 436 174 436 l 506 436 l 506 501 q 492 568 506 543 q 440 606 478 593 q 332 619 403 619 l 107 619 l 107 719 q 399 754 233 754 q 609 699 540 754 q 678 513 678 643 l 678 0 l 543 0 l 514 81 q 457 47 500 68 q 356 8 414 25 q 242 -8 299 -8 m 325 113 q 428 133 364 113 q 506 160 493 153 l 506 354 l 344 346 q 224 239 224 336 l 224 208 q 252 136 224 158 q 325 113 281 114 m 133 882 q 177 1011 138 971 q 275 1051 217 1051 q 334 1042 308 1051 q 396 1011 360 1032 q 443 987 425 994 q 482 979 461 979 q 531 999 513 979 q 550 1057 549 1019 l 638 1057 q 598 928 635 972 q 497 883 561 883 q 438 894 465 883 q 375 924 410 904 q 326 948 344 940 q 288 956 307 956 q 240 936 258 956 q 219 882 221 917 l 133 882 z "},"æ":{"ha":1197,"x_min":56,"x_max":1125,"o":"m 250 -8 q 104 45 153 -8 q 56 183 56 99 l 56 239 q 115 379 56 326 q 294 432 175 432 l 508 432 l 508 506 q 472 590 508 561 q 349 619 435 619 l 110 619 l 110 719 q 232 746 172 738 q 372 754 292 754 q 512 728 451 754 q 601 653 572 701 q 836 754 664 754 q 1002 731 940 754 q 1094 652 1064 708 q 1125 496 1125 596 q 1066 359 1125 399 q 885 319 1007 319 l 676 319 q 702 196 676 239 q 775 138 728 153 q 894 122 822 122 l 1103 122 l 1103 21 q 813 -8 992 -8 q 656 29 721 -8 q 557 125 590 67 q 423 31 504 69 q 250 -8 342 -8 m 879 429 q 947 445 925 429 q 969 500 969 461 q 936 597 969 569 q 824 625 903 625 q 733 608 764 625 q 690 550 703 592 q 676 429 678 508 l 879 429 m 328 113 q 431 136 379 113 q 522 200 482 160 q 506 346 507 260 l 328 336 q 252 308 276 335 q 228 240 228 281 l 228 211 q 328 113 228 113 z "},"ǽ":{"ha":1197,"x_min":56,"x_max":1125,"o":"m 250 -8 q 104 45 153 -8 q 56 183 56 99 l 56 239 q 115 379 56 326 q 294 432 175 432 l 508 432 l 508 506 q 472 590 508 561 q 349 619 435 619 l 110 619 l 110 719 q 232 746 172 738 q 372 754 292 754 q 512 728 451 754 q 601 653 572 701 q 836 754 664 754 q 1002 731 940 754 q 1094 652 1064 708 q 1125 496 1125 596 q 1066 359 1125 399 q 885 319 1007 319 l 676 319 q 702 196 676 239 q 775 138 728 153 q 894 122 822 122 l 1103 122 l 1103 21 q 813 -8 992 -8 q 656 29 721 -8 q 557 125 590 67 q 423 31 504 69 q 250 -8 342 -8 m 879 429 q 947 445 925 429 q 969 500 969 461 q 936 597 969 569 q 824 625 903 625 q 733 608 764 625 q 690 550 703 592 q 676 429 678 508 l 879 429 m 328 113 q 431 136 379 113 q 522 200 482 160 q 506 346 507 260 l 328 336 q 252 308 276 335 q 228 240 228 281 l 228 211 q 328 113 228 113 m 669 1069 l 811 1069 l 646 876 l 546 876 l 669 1069 z "},"b":{"ha":810,"x_min":88,"x_max":744,"o":"m 488 -8 q 363 13 418 -8 q 260 72 308 35 l 231 0 l 88 0 l 88 1060 l 260 1060 l 260 688 q 372 735 313 717 q 479 754 431 754 q 632 715 574 754 q 717 591 690 676 q 744 365 744 506 q 682 85 744 179 q 488 -8 619 -8 m 425 132 q 534 189 496 132 q 572 374 572 246 q 553 526 572 474 q 503 597 535 579 q 425 615 472 615 q 260 567 347 615 l 260 178 q 425 132 346 132 z "},"ḃ":{"ha":810,"x_min":88,"x_max":744,"o":"m 488 -8 q 363 13 418 -8 q 260 72 308 35 l 231 0 l 88 0 l 88 1060 l 260 1060 l 260 688 q 372 735 313 717 q 479 754 431 754 q 632 715 574 754 q 717 591 690 676 q 744 365 744 506 q 682 85 744 179 q 488 -8 619 -8 m 425 132 q 534 189 496 132 q 572 374 572 246 q 553 526 572 474 q 503 597 535 579 q 425 615 472 615 q 260 567 347 615 l 260 178 q 425 132 346 132 m 132 1181 q 113 1188 121 1181 q 106 1207 106 1194 l 106 1332 q 132 1360 106 1360 l 211 1360 q 231 1352 224 1360 q 238 1332 238 1344 l 238 1207 q 211 1181 238 1181 l 132 1181 z "},"c":{"ha":681,"x_min":65,"x_max":642,"o":"m 372 -8 q 145 76 225 -8 q 65 369 65 160 q 101 602 65 518 q 205 720 138 686 q 376 754 272 754 q 631 725 510 754 l 631 626 l 428 626 q 317 605 358 626 q 256 528 276 583 q 236 369 236 472 q 256 215 236 268 q 317 142 276 161 q 429 122 358 122 l 642 122 l 642 25 q 515 1 588 11 q 372 -8 442 -8 z "},"ć":{"ha":681,"x_min":65,"x_max":642,"o":"m 372 -8 q 145 76 225 -8 q 65 369 65 160 q 101 602 65 518 q 205 720 138 686 q 376 754 272 754 q 631 725 510 754 l 631 626 l 428 626 q 317 605 358 626 q 256 528 276 583 q 236 369 236 472 q 256 215 236 268 q 317 142 276 161 q 429 122 358 122 l 642 122 l 642 25 q 515 1 588 11 q 372 -8 442 -8 m 444 1069 l 586 1069 l 421 876 l 321 876 l 444 1069 z "},"č":{"ha":681,"x_min":65,"x_max":642,"o":"m 372 -8 q 145 76 225 -8 q 65 369 65 160 q 101 602 65 518 q 205 720 138 686 q 376 754 272 754 q 631 725 510 754 l 631 626 l 428 626 q 317 605 358 626 q 256 528 276 583 q 236 369 236 472 q 256 215 236 268 q 317 142 276 161 q 429 122 358 122 l 642 122 l 642 25 q 515 1 588 11 q 372 -8 442 -8 m 171 1069 l 271 1069 l 375 954 l 488 1069 l 589 1069 l 432 876 l 313 876 l 171 1069 z "},"ç":{"ha":681,"x_min":65,"x_max":642,"o":"m 642 25 q 422 -7 547 0 l 379 -74 q 449 -99 424 -76 q 475 -164 475 -122 q 439 -243 475 -215 q 332 -271 403 -271 l 274 -271 l 274 -200 l 300 -197 q 364 -143 364 -189 q 348 -108 364 -122 q 290 -89 332 -93 l 343 -7 q 138 85 210 0 q 65 369 65 169 q 101 602 65 518 q 205 720 138 686 q 376 754 272 754 q 631 725 510 754 l 631 626 l 428 626 q 317 605 358 626 q 256 528 276 583 q 236 369 236 472 q 256 215 236 268 q 317 142 276 161 q 429 122 358 122 l 642 122 l 642 25 z "},"ḉ":{"ha":681,"x_min":65,"x_max":642,"o":"m 421 876 l 321 876 l 444 1069 l 586 1069 l 421 876 m 642 25 q 422 -7 547 0 l 379 -74 q 449 -99 424 -76 q 475 -164 475 -122 q 439 -243 475 -215 q 332 -271 403 -271 l 274 -271 l 274 -200 l 300 -197 q 364 -143 364 -189 q 348 -108 364 -122 q 290 -89 332 -93 l 343 -7 q 138 85 210 0 q 65 369 65 169 q 101 602 65 518 q 205 720 138 686 q 376 754 272 754 q 631 725 510 754 l 631 626 l 428 626 q 317 605 358 626 q 256 528 276 583 q 236 369 236 472 q 256 215 236 268 q 317 142 276 161 q 429 122 358 122 l 642 122 l 642 25 z "},"ĉ":{"ha":681,"x_min":65,"x_max":642,"o":"m 372 -8 q 145 76 225 -8 q 65 369 65 160 q 101 602 65 518 q 205 720 138 686 q 376 754 272 754 q 631 725 510 754 l 631 626 l 428 626 q 317 605 358 626 q 256 528 276 583 q 236 369 236 472 q 256 215 236 268 q 317 142 276 161 q 429 122 358 122 l 642 122 l 642 25 q 515 1 588 11 q 372 -8 442 -8 m 321 1069 l 439 1069 l 582 876 l 481 876 l 376 992 l 265 876 l 164 876 l 321 1069 z "},"ċ":{"ha":681,"x_min":65,"x_max":642,"o":"m 372 -8 q 145 76 225 -8 q 65 369 65 160 q 101 602 65 518 q 205 720 138 686 q 376 754 272 754 q 631 725 510 754 l 631 626 l 428 626 q 317 605 358 626 q 256 528 276 583 q 236 369 236 472 q 256 215 236 268 q 317 142 276 161 q 429 122 358 122 l 642 122 l 642 25 q 515 1 588 11 q 372 -8 442 -8 m 333 903 q 315 910 322 903 q 307 929 307 917 l 307 1054 q 333 1082 307 1082 l 413 1082 q 432 1074 425 1082 q 439 1054 439 1067 l 439 929 q 413 903 439 903 l 333 903 z "},"d":{"ha":806,"x_min":65,"x_max":721,"o":"m 332 -8 q 131 80 196 -8 q 65 365 65 168 q 92 591 65 507 q 179 715 118 675 q 346 754 240 754 q 549 717 444 754 l 549 1060 l 721 1060 l 721 0 l 578 0 l 549 72 q 450 16 513 40 q 332 -8 388 -8 m 389 131 q 549 179 464 131 l 549 593 q 471 617 504 608 q 399 625 438 625 q 303 603 338 625 q 252 528 268 582 q 236 374 236 474 q 251 227 236 279 q 299 153 267 175 q 389 131 332 131 z "},"ð":{"ha":800,"x_min":65,"x_max":735,"o":"m 589 922 q 699 710 664 843 q 735 374 735 576 q 701 142 735 224 q 596 26 668 60 q 399 -7 524 -7 q 206 26 278 -7 q 99 140 133 60 q 65 365 65 221 q 101 592 65 511 q 204 705 138 674 q 376 736 271 736 q 553 693 492 736 q 454 869 522 807 l 231 783 l 208 842 l 392 913 q 188 958 313 951 l 188 1063 q 536 969 414 1056 l 706 1035 l 728 976 l 589 922 m 399 131 q 495 147 461 131 q 546 213 529 163 q 563 367 563 264 q 546 519 563 469 q 495 584 529 568 q 399 600 461 600 q 303 584 336 600 q 253 519 269 568 q 236 367 236 469 q 253 213 236 264 q 303 147 269 163 q 399 131 338 131 z "},"ď":{"ha":806,"x_min":65,"x_max":957,"o":"m 332 -8 q 131 80 196 -8 q 65 365 65 168 q 92 591 65 507 q 179 715 118 675 q 346 754 240 754 q 549 717 444 754 l 549 1060 l 721 1060 l 721 0 l 578 0 l 549 72 q 450 16 513 40 q 332 -8 388 -8 m 389 131 q 549 179 464 131 l 549 593 q 471 617 504 608 q 399 625 438 625 q 303 603 338 625 q 252 528 268 582 q 236 374 236 474 q 251 227 236 279 q 299 153 267 175 q 389 131 332 131 m 800 1000 l 800 1088 l 957 1088 l 957 1000 l 947 808 l 813 808 l 800 1000 z "},"đ":{"ha":806,"x_min":65,"x_max":808,"o":"m 808 861 l 721 861 l 721 0 l 578 0 l 549 72 q 450 16 513 40 q 332 -8 388 -8 q 131 80 196 -8 q 65 365 65 168 q 92 591 65 507 q 179 715 118 675 q 346 754 240 754 q 549 717 444 754 l 549 861 l 376 861 l 376 931 l 549 931 l 549 1060 l 721 1060 l 721 931 l 808 931 l 808 861 m 549 593 q 471 617 504 608 q 399 625 438 625 q 303 603 338 625 q 252 528 268 582 q 236 374 236 474 q 251 227 236 279 q 299 153 267 175 q 389 131 332 131 q 549 179 464 131 l 549 593 z "},"ḋ":{"ha":806,"x_min":65,"x_max":721,"o":"m 332 -8 q 131 80 196 -8 q 65 365 65 168 q 92 591 65 507 q 179 715 118 675 q 346 754 240 754 q 549 717 444 754 l 549 1060 l 721 1060 l 721 0 l 578 0 l 549 72 q 450 16 513 40 q 332 -8 388 -8 m 389 131 q 549 179 464 131 l 549 593 q 471 617 504 608 q 399 625 438 625 q 303 603 338 625 q 252 528 268 582 q 236 374 236 474 q 251 227 236 279 q 299 153 267 175 q 389 131 332 131 m 593 1181 q 574 1188 582 1181 q 567 1207 567 1194 l 567 1332 q 593 1360 567 1360 l 672 1360 q 692 1352 685 1360 q 699 1332 699 1344 l 699 1207 q 672 1181 699 1181 l 593 1181 z "},"ḍ":{"ha":806,"x_min":65,"x_max":721,"o":"m 332 -8 q 131 80 196 -8 q 65 365 65 168 q 92 591 65 507 q 179 715 118 675 q 346 754 240 754 q 549 717 444 754 l 549 1060 l 721 1060 l 721 0 l 578 0 l 549 72 q 450 16 513 40 q 332 -8 388 -8 m 389 131 q 549 179 464 131 l 549 593 q 471 617 504 608 q 399 625 438 625 q 303 603 338 625 q 252 528 268 582 q 236 374 236 474 q 251 227 236 279 q 299 153 267 175 q 389 131 332 131 m 349 -306 q 330 -299 338 -306 q 322 -279 322 -292 l 322 -154 q 329 -134 322 -142 q 349 -126 336 -126 l 429 -126 q 448 -134 442 -126 q 454 -154 454 -142 l 454 -279 q 429 -306 454 -306 l 349 -306 z "},"ḏ":{"ha":806,"x_min":65,"x_max":721,"o":"m 332 -8 q 131 80 196 -8 q 65 365 65 168 q 92 591 65 507 q 179 715 118 675 q 346 754 240 754 q 549 717 444 754 l 549 1060 l 721 1060 l 721 0 l 578 0 l 549 72 q 450 16 513 40 q 332 -8 388 -8 m 389 131 q 549 179 464 131 l 549 593 q 471 617 504 608 q 399 625 438 625 q 303 603 338 625 q 252 528 268 582 q 236 374 236 474 q 251 227 236 279 q 299 153 267 175 q 389 131 332 131 m 204 -182 l 586 -182 l 586 -283 l 204 -283 l 204 -182 z "},"e":{"ha":749,"x_min":65,"x_max":683,"o":"m 392 -7 q 198 27 268 -7 q 97 142 128 61 q 65 372 65 224 q 95 606 65 524 q 194 721 125 688 q 388 754 263 754 q 561 732 497 754 q 654 655 625 710 q 683 501 683 600 q 624 354 683 399 q 453 310 565 310 l 235 310 q 254 198 238 238 q 313 140 271 158 q 436 122 356 122 l 661 122 l 661 21 q 527 0 586 7 q 392 -7 468 -7 m 436 414 q 508 433 486 414 q 531 501 531 453 q 499 601 531 574 q 388 629 467 629 q 295 610 328 629 q 248 546 263 592 q 233 414 233 500 l 436 414 z "},"é":{"ha":749,"x_min":65,"x_max":683,"o":"m 392 -7 q 198 27 268 -7 q 97 142 128 61 q 65 372 65 224 q 95 606 65 524 q 194 721 125 688 q 388 754 263 754 q 561 732 497 754 q 654 655 625 710 q 683 501 683 600 q 624 354 683 399 q 453 310 565 310 l 235 310 q 254 198 238 238 q 313 140 271 158 q 436 122 356 122 l 661 122 l 661 21 q 527 0 586 7 q 392 -7 468 -7 m 436 414 q 508 433 486 414 q 531 501 531 453 q 499 601 531 574 q 388 629 467 629 q 295 610 328 629 q 248 546 263 592 q 233 414 233 500 l 436 414 m 444 1069 l 586 1069 l 421 876 l 321 876 l 444 1069 z "},"ĕ":{"ha":749,"x_min":65,"x_max":683,"o":"m 392 -7 q 198 27 268 -7 q 97 142 128 61 q 65 372 65 224 q 95 606 65 524 q 194 721 125 688 q 388 754 263 754 q 561 732 497 754 q 654 655 625 710 q 683 501 683 600 q 624 354 683 399 q 453 310 565 310 l 235 310 q 254 198 238 238 q 313 140 271 158 q 436 122 356 122 l 661 122 l 661 21 q 527 0 586 7 q 392 -7 468 -7 m 436 414 q 508 433 486 414 q 531 501 531 453 q 499 601 531 574 q 388 629 467 629 q 295 610 328 629 q 248 546 263 592 q 233 414 233 500 l 436 414 m 365 868 q 227 918 278 868 q 176 1074 176 968 l 257 1074 q 288 978 257 1008 q 365 947 318 947 q 475 1074 475 950 l 557 1074 q 506 918 557 968 q 365 868 456 868 z "},"ě":{"ha":749,"x_min":65,"x_max":683,"o":"m 392 -7 q 198 27 268 -7 q 97 142 128 61 q 65 372 65 224 q 95 606 65 524 q 194 721 125 688 q 388 754 263 754 q 561 732 497 754 q 654 655 625 710 q 683 501 683 600 q 624 354 683 399 q 453 310 565 310 l 235 310 q 254 198 238 238 q 313 140 271 158 q 436 122 356 122 l 661 122 l 661 21 q 527 0 586 7 q 392 -7 468 -7 m 436 414 q 508 433 486 414 q 531 501 531 453 q 499 601 531 574 q 388 629 467 629 q 295 610 328 629 q 248 546 263 592 q 233 414 233 500 l 436 414 m 171 1069 l 271 1069 l 375 954 l 488 1069 l 589 1069 l 432 876 l 313 876 l 171 1069 z "},"ḝ":{"ha":749,"x_min":65,"x_max":683,"o":"m 365 868 q 227 918 278 868 q 176 1074 176 968 l 257 1074 q 288 978 257 1008 q 365 947 318 947 q 475 1074 475 950 l 557 1074 q 506 918 557 968 q 365 868 456 868 m 235 310 q 254 198 238 238 q 313 140 271 158 q 436 122 356 122 l 661 122 l 661 21 q 540 1 593 8 q 422 -7 488 -6 l 379 -74 q 449 -99 424 -76 q 475 -164 475 -122 q 439 -243 475 -215 q 332 -271 403 -271 l 274 -271 l 274 -200 l 300 -197 q 364 -143 364 -189 q 348 -108 364 -122 q 290 -89 332 -93 l 344 -6 q 179 37 239 0 q 92 153 119 74 q 65 372 65 233 q 95 606 65 524 q 194 721 125 688 q 388 754 263 754 q 561 732 497 754 q 654 655 625 710 q 683 501 683 600 q 624 354 683 399 q 453 310 565 310 l 235 310 m 388 629 q 295 610 328 629 q 248 546 263 592 q 233 414 233 500 l 436 414 q 508 433 486 414 q 531 501 531 453 q 499 601 531 574 q 388 629 467 629 z "},"ê":{"ha":749,"x_min":65,"x_max":683,"o":"m 392 -7 q 198 27 268 -7 q 97 142 128 61 q 65 372 65 224 q 95 606 65 524 q 194 721 125 688 q 388 754 263 754 q 561 732 497 754 q 654 655 625 710 q 683 501 683 600 q 624 354 683 399 q 453 310 565 310 l 235 310 q 254 198 238 238 q 313 140 271 158 q 436 122 356 122 l 661 122 l 661 21 q 527 0 586 7 q 392 -7 468 -7 m 436 414 q 508 433 486 414 q 531 501 531 453 q 499 601 531 574 q 388 629 467 629 q 295 610 328 629 q 248 546 263 592 q 233 414 233 500 l 436 414 m 321 1069 l 439 1069 l 582 876 l 481 876 l 376 992 l 265 876 l 164 876 l 321 1069 z "},"ế":{"ha":749,"x_min":65,"x_max":725,"o":"m 392 -7 q 198 27 268 -7 q 97 142 128 61 q 65 372 65 224 q 95 606 65 524 q 194 721 125 688 q 388 754 263 754 q 561 732 497 754 q 654 655 625 710 q 683 501 683 600 q 624 354 683 399 q 453 310 565 310 l 235 310 q 254 198 238 238 q 313 140 271 158 q 436 122 356 122 l 661 122 l 661 21 q 527 0 586 7 q 392 -7 468 -7 m 436 414 q 508 433 486 414 q 531 501 531 453 q 499 601 531 574 q 388 629 467 629 q 295 610 328 629 q 248 546 263 592 q 233 414 233 500 l 436 414 m 725 1167 l 601 990 l 500 990 l 585 1167 l 725 1167 m 438 1022 l 581 876 l 481 876 l 376 944 l 264 876 l 163 876 l 319 1022 l 438 1022 z "},"ệ":{"ha":749,"x_min":65,"x_max":683,"o":"m 392 -7 q 198 27 268 -7 q 97 142 128 61 q 65 372 65 224 q 95 606 65 524 q 194 721 125 688 q 388 754 263 754 q 561 732 497 754 q 654 655 625 710 q 683 501 683 600 q 624 354 683 399 q 453 310 565 310 l 235 310 q 254 198 238 238 q 313 140 271 158 q 436 122 356 122 l 661 122 l 661 21 q 527 0 586 7 q 392 -7 468 -7 m 436 414 q 508 433 486 414 q 531 501 531 453 q 499 601 531 574 q 388 629 467 629 q 295 610 328 629 q 248 546 263 592 q 233 414 233 500 l 436 414 m 321 1069 l 439 1069 l 582 876 l 481 876 l 376 992 l 265 876 l 164 876 l 321 1069 m 329 -306 q 310 -299 318 -306 q 303 -279 303 -292 l 303 -154 q 310 -134 303 -142 q 329 -126 317 -126 l 410 -126 q 428 -134 422 -126 q 435 -154 435 -142 l 435 -279 q 410 -306 435 -306 l 329 -306 z "},"ề":{"ha":749,"x_min":26,"x_max":683,"o":"m 392 -7 q 198 27 268 -7 q 97 142 128 61 q 65 372 65 224 q 95 606 65 524 q 194 721 125 688 q 388 754 263 754 q 561 732 497 754 q 654 655 625 710 q 683 501 683 600 q 624 354 683 399 q 453 310 565 310 l 235 310 q 254 198 238 238 q 313 140 271 158 q 436 122 356 122 l 661 122 l 661 21 q 527 0 586 7 q 392 -7 468 -7 m 436 414 q 508 433 486 414 q 531 501 531 453 q 499 601 531 574 q 388 629 467 629 q 295 610 328 629 q 248 546 263 592 q 233 414 233 500 l 436 414 m 167 1167 l 251 990 l 150 990 l 26 1167 l 167 1167 m 438 1022 l 581 876 l 481 876 l 376 944 l 264 876 l 163 876 l 319 1022 l 438 1022 z "},"ể":{"ha":749,"x_min":65,"x_max":683,"o":"m 392 -7 q 198 27 268 -7 q 97 142 128 61 q 65 372 65 224 q 95 606 65 524 q 194 721 125 688 q 388 754 263 754 q 561 732 497 754 q 654 655 625 710 q 683 501 683 600 q 624 354 683 399 q 453 310 565 310 l 235 310 q 254 198 238 238 q 313 140 271 158 q 436 122 356 122 l 661 122 l 661 21 q 527 0 586 7 q 392 -7 468 -7 m 436 414 q 508 433 486 414 q 531 501 531 453 q 499 601 531 574 q 388 629 467 629 q 295 610 328 629 q 248 546 263 592 q 233 414 233 500 l 436 414 m 533 1028 q 586 1082 586 1044 q 576 1111 586 1101 q 543 1121 567 1121 q 497 1113 518 1121 l 497 1174 q 565 1183 525 1183 q 642 1160 617 1183 q 668 1092 668 1136 q 533 951 668 989 l 533 1028 m 319 1022 l 438 1022 l 581 876 l 481 876 l 376 944 l 264 876 l 163 876 l 319 1022 z "},"ễ":{"ha":749,"x_min":65,"x_max":683,"o":"m 392 -7 q 198 27 268 -7 q 97 142 128 61 q 65 372 65 224 q 95 606 65 524 q 194 721 125 688 q 388 754 263 754 q 561 732 497 754 q 654 655 625 710 q 683 501 683 600 q 624 354 683 399 q 453 310 565 310 l 235 310 q 254 198 238 238 q 313 140 271 158 q 436 122 356 122 l 661 122 l 661 21 q 527 0 586 7 q 392 -7 468 -7 m 436 414 q 508 433 486 414 q 531 501 531 453 q 499 601 531 574 q 388 629 467 629 q 295 610 328 629 q 248 546 263 592 q 233 414 233 500 l 436 414 m 265 1213 q 367 1188 306 1213 q 443 1167 417 1167 q 487 1181 471 1167 q 503 1219 503 1194 l 590 1219 q 556 1114 585 1144 q 471 1083 528 1083 q 424 1090 446 1083 q 365 1108 403 1096 q 286 1129 311 1129 q 249 1117 263 1129 q 233 1082 235 1104 l 147 1082 q 183 1185 151 1157 q 265 1213 214 1213 m 581 876 l 481 876 l 376 944 l 264 876 l 163 876 l 319 1022 l 438 1022 l 581 876 z "},"ȅ":{"ha":749,"x_min":65,"x_max":683,"o":"m 392 -7 q 198 27 268 -7 q 97 142 128 61 q 65 372 65 224 q 95 606 65 524 q 194 721 125 688 q 388 754 263 754 q 561 732 497 754 q 654 655 625 710 q 683 501 683 600 q 624 354 683 399 q 453 310 565 310 l 235 310 q 254 198 238 238 q 313 140 271 158 q 436 122 356 122 l 661 122 l 661 21 q 527 0 586 7 q 392 -7 468 -7 m 436 414 q 508 433 486 414 q 531 501 531 453 q 499 601 531 574 q 388 629 467 629 q 295 610 328 629 q 248 546 263 592 q 233 414 233 500 l 436 414 m 69 1069 l 211 1069 l 335 876 l 235 876 l 69 1069 m 301 1069 l 443 1069 l 567 876 l 467 876 l 301 1069 z "},"ë":{"ha":749,"x_min":65,"x_max":683,"o":"m 392 -7 q 198 27 268 -7 q 97 142 128 61 q 65 372 65 224 q 95 606 65 524 q 194 721 125 688 q 388 754 263 754 q 561 732 497 754 q 654 655 625 710 q 683 501 683 600 q 624 354 683 399 q 453 310 565 310 l 235 310 q 254 198 238 238 q 313 140 271 158 q 436 122 356 122 l 661 122 l 661 21 q 527 0 586 7 q 392 -7 468 -7 m 436 414 q 508 433 486 414 q 531 501 531 453 q 499 601 531 574 q 388 629 467 629 q 295 610 328 629 q 248 546 263 592 q 233 414 233 500 l 436 414 m 194 893 q 176 900 183 893 q 168 919 168 907 l 168 1044 q 175 1065 168 1057 q 194 1072 182 1072 l 275 1072 q 294 1065 288 1072 q 300 1044 300 1057 l 300 919 q 275 893 300 893 l 194 893 m 467 893 q 448 900 456 893 q 440 919 440 907 l 440 1044 q 467 1072 440 1072 l 547 1072 q 566 1065 560 1072 q 572 1044 572 1057 l 572 919 q 547 893 572 893 l 467 893 z "},"ė":{"ha":749,"x_min":65,"x_max":683,"o":"m 392 -7 q 198 27 268 -7 q 97 142 128 61 q 65 372 65 224 q 95 606 65 524 q 194 721 125 688 q 388 754 263 754 q 561 732 497 754 q 654 655 625 710 q 683 501 683 600 q 624 354 683 399 q 453 310 565 310 l 235 310 q 254 198 238 238 q 313 140 271 158 q 436 122 356 122 l 661 122 l 661 21 q 527 0 586 7 q 392 -7 468 -7 m 436 414 q 508 433 486 414 q 531 501 531 453 q 499 601 531 574 q 388 629 467 629 q 295 610 328 629 q 248 546 263 592 q 233 414 233 500 l 436 414 m 333 903 q 315 910 322 903 q 307 929 307 917 l 307 1054 q 333 1082 307 1082 l 413 1082 q 432 1074 425 1082 q 439 1054 439 1067 l 439 929 q 413 903 439 903 l 333 903 z "},"ẹ":{"ha":749,"x_min":65,"x_max":683,"o":"m 392 -7 q 198 27 268 -7 q 97 142 128 61 q 65 372 65 224 q 95 606 65 524 q 194 721 125 688 q 388 754 263 754 q 561 732 497 754 q 654 655 625 710 q 683 501 683 600 q 624 354 683 399 q 453 310 565 310 l 235 310 q 254 198 238 238 q 313 140 271 158 q 436 122 356 122 l 661 122 l 661 21 q 527 0 586 7 q 392 -7 468 -7 m 436 414 q 508 433 486 414 q 531 501 531 453 q 499 601 531 574 q 388 629 467 629 q 295 610 328 629 q 248 546 263 592 q 233 414 233 500 l 436 414 m 329 -306 q 310 -299 318 -306 q 303 -279 303 -292 l 303 -154 q 310 -134 303 -142 q 329 -126 317 -126 l 410 -126 q 428 -134 422 -126 q 435 -154 435 -142 l 435 -279 q 410 -306 435 -306 l 329 -306 z "},"è":{"ha":749,"x_min":65,"x_max":683,"o":"m 392 -7 q 198 27 268 -7 q 97 142 128 61 q 65 372 65 224 q 95 606 65 524 q 194 721 125 688 q 388 754 263 754 q 561 732 497 754 q 654 655 625 710 q 683 501 683 600 q 624 354 683 399 q 453 310 565 310 l 235 310 q 254 198 238 238 q 313 140 271 158 q 436 122 356 122 l 661 122 l 661 21 q 527 0 586 7 q 392 -7 468 -7 m 436 414 q 508 433 486 414 q 531 501 531 453 q 499 601 531 574 q 388 629 467 629 q 295 610 328 629 q 248 546 263 592 q 233 414 233 500 l 436 414 m 190 1069 l 331 1069 l 456 876 l 354 876 l 190 1069 z "},"ẻ":{"ha":749,"x_min":65,"x_max":683,"o":"m 392 -7 q 198 27 268 -7 q 97 142 128 61 q 65 372 65 224 q 95 606 65 524 q 194 721 125 688 q 388 754 263 754 q 561 732 497 754 q 654 655 625 710 q 683 501 683 600 q 624 354 683 399 q 453 310 565 310 l 235 310 q 254 198 238 238 q 313 140 271 158 q 436 122 356 122 l 661 122 l 661 21 q 527 0 586 7 q 392 -7 468 -7 m 436 414 q 508 433 486 414 q 531 501 531 453 q 499 601 531 574 q 388 629 467 629 q 295 610 328 629 q 248 546 263 592 q 233 414 233 500 l 436 414 m 340 906 q 404 971 404 925 q 351 1018 404 1018 q 304 1010 335 1018 l 304 1078 q 374 1089 338 1089 q 465 1059 433 1089 q 496 976 496 1029 q 458 888 496 924 q 340 829 421 851 l 340 906 z "},"ȇ":{"ha":749,"x_min":65,"x_max":683,"o":"m 392 -7 q 198 27 268 -7 q 97 142 128 61 q 65 372 65 224 q 95 606 65 524 q 194 721 125 688 q 388 754 263 754 q 561 732 497 754 q 654 655 625 710 q 683 501 683 600 q 624 354 683 399 q 453 310 565 310 l 235 310 q 254 198 238 238 q 313 140 271 158 q 436 122 356 122 l 661 122 l 661 21 q 527 0 586 7 q 392 -7 468 -7 m 436 414 q 508 433 486 414 q 531 501 531 453 q 499 601 531 574 q 388 629 467 629 q 295 610 328 629 q 248 546 263 592 q 233 414 233 500 l 436 414 m 376 1076 q 515 1026 464 1076 q 565 871 565 976 l 485 871 q 454 967 485 936 q 376 997 424 997 q 267 871 267 994 l 185 871 q 235 1026 185 976 q 376 1076 286 1076 z "},"ē":{"ha":749,"x_min":65,"x_max":683,"o":"m 392 -7 q 198 27 268 -7 q 97 142 128 61 q 65 372 65 224 q 95 606 65 524 q 194 721 125 688 q 388 754 263 754 q 561 732 497 754 q 654 655 625 710 q 683 501 683 600 q 624 354 683 399 q 453 310 565 310 l 235 310 q 254 198 238 238 q 313 140 271 158 q 436 122 356 122 l 661 122 l 661 21 q 527 0 586 7 q 392 -7 468 -7 m 436 414 q 508 433 486 414 q 531 501 531 453 q 499 601 531 574 q 388 629 467 629 q 295 610 328 629 q 248 546 263 592 q 233 414 233 500 l 436 414 m 179 1013 l 561 1013 l 561 911 l 179 911 l 179 1013 z "},"ḗ":{"ha":749,"x_min":65,"x_max":683,"o":"m 392 -7 q 198 27 268 -7 q 97 142 128 61 q 65 372 65 224 q 95 606 65 524 q 194 721 125 688 q 388 754 263 754 q 561 732 497 754 q 654 655 625 710 q 683 501 683 600 q 624 354 683 399 q 453 310 565 310 l 235 310 q 254 198 238 238 q 313 140 271 158 q 436 122 356 122 l 661 122 l 661 21 q 527 0 586 7 q 392 -7 468 -7 m 436 414 q 508 433 486 414 q 531 501 531 453 q 499 601 531 574 q 388 629 467 629 q 295 610 328 629 q 248 546 263 592 q 233 414 233 500 l 436 414 m 179 1013 l 561 1013 l 561 911 l 179 911 l 179 1013 m 436 1253 l 578 1253 l 413 1060 l 313 1060 l 436 1253 z "},"ḕ":{"ha":749,"x_min":65,"x_max":683,"o":"m 392 -7 q 198 27 268 -7 q 97 142 128 61 q 65 372 65 224 q 95 606 65 524 q 194 721 125 688 q 388 754 263 754 q 561 732 497 754 q 654 655 625 710 q 683 501 683 600 q 624 354 683 399 q 453 310 565 310 l 235 310 q 254 198 238 238 q 313 140 271 158 q 436 122 356 122 l 661 122 l 661 21 q 527 0 586 7 q 392 -7 468 -7 m 436 414 q 508 433 486 414 q 531 501 531 453 q 499 601 531 574 q 388 629 467 629 q 295 610 328 629 q 248 546 263 592 q 233 414 233 500 l 436 414 m 179 1013 l 561 1013 l 561 911 l 179 911 l 179 1013 m 165 1253 l 306 1253 l 431 1060 l 329 1060 l 165 1253 z "},"ę":{"ha":749,"x_min":65,"x_max":692,"o":"m 692 -144 l 692 -226 q 650 -231 678 -231 q 540 -194 578 -231 q 503 -106 503 -158 q 553 3 503 -39 q 392 -7 471 -7 q 198 27 268 -7 q 97 142 128 61 q 65 372 65 224 q 95 606 65 524 q 194 721 125 688 q 388 754 263 754 q 561 732 497 754 q 654 655 625 710 q 683 501 683 600 q 624 354 683 399 q 453 310 565 310 l 235 310 q 254 198 238 238 q 313 140 271 158 q 436 122 356 122 l 661 122 l 661 33 l 663 33 q 662 33 663 33 q 661 32 661 33 l 661 21 l 638 17 q 588 -67 588 -19 q 613 -124 588 -103 q 681 -144 638 -144 l 692 -144 m 388 629 q 295 610 328 629 q 248 546 263 592 q 233 414 233 500 l 436 414 q 508 433 486 414 q 531 501 531 453 q 499 601 531 574 q 388 629 467 629 z "},"ẽ":{"ha":749,"x_min":65,"x_max":683,"o":"m 392 -7 q 198 27 268 -7 q 97 142 128 61 q 65 372 65 224 q 95 606 65 524 q 194 721 125 688 q 388 754 263 754 q 561 732 497 754 q 654 655 625 710 q 683 501 683 600 q 624 354 683 399 q 453 310 565 310 l 235 310 q 254 198 238 238 q 313 140 271 158 q 436 122 356 122 l 661 122 l 661 21 q 527 0 586 7 q 392 -7 468 -7 m 436 414 q 508 433 486 414 q 531 501 531 453 q 499 601 531 574 q 388 629 467 629 q 295 610 328 629 q 248 546 263 592 q 233 414 233 500 l 436 414 m 133 882 q 177 1011 138 971 q 275 1051 217 1051 q 334 1042 308 1051 q 396 1011 360 1032 q 443 987 425 994 q 482 979 461 979 q 531 999 513 979 q 550 1057 549 1019 l 638 1057 q 598 928 635 972 q 497 883 561 883 q 438 894 465 883 q 375 924 410 904 q 326 948 344 940 q 288 956 307 956 q 240 936 258 956 q 219 882 221 917 l 133 882 z "},"ə":{"ha":749,"x_min":65,"x_max":683,"o":"m 357 753 q 551 719 481 753 q 652 603 621 685 q 683 374 683 522 q 653 140 683 222 q 555 25 624 58 q 361 -8 486 -8 q 188 14 251 -8 q 94 91 124 36 q 65 244 65 146 q 124 392 65 347 q 296 436 183 436 l 514 436 q 494 548 511 508 q 435 606 478 588 q 313 624 393 624 l 88 624 l 88 725 q 222 746 163 739 q 357 753 281 753 m 313 332 q 240 313 263 332 q 218 244 218 293 q 250 144 218 172 q 361 117 282 117 q 453 135 421 117 q 501 200 486 154 q 515 332 515 246 l 313 332 z "},"f":{"ha":533,"x_min":28,"x_max":522,"o":"m 136 606 l 28 606 l 28 717 l 136 744 l 136 807 q 190 1006 136 943 q 372 1068 244 1068 q 522 1050 447 1068 l 522 928 l 404 928 q 328 901 349 928 q 308 815 308 875 l 308 744 l 513 744 l 513 606 l 308 606 l 308 0 l 136 0 l 136 606 z "},"ḟ":{"ha":533,"x_min":28,"x_max":522,"o":"m 136 606 l 28 606 l 28 717 l 136 744 l 136 807 q 190 1006 136 943 q 372 1068 244 1068 q 522 1050 447 1068 l 522 928 l 404 928 q 328 901 349 928 q 308 815 308 875 l 308 744 l 513 744 l 513 606 l 308 606 l 308 0 l 136 0 l 136 606 m 331 1206 q 312 1213 319 1206 q 304 1232 304 1219 l 304 1357 q 331 1385 304 1385 l 410 1385 q 429 1377 422 1385 q 436 1357 436 1369 l 436 1232 q 410 1206 436 1206 l 331 1206 z "},"g":{"ha":806,"x_min":33,"x_max":778,"o":"m 778 650 l 646 632 q 695 568 676 604 q 714 464 714 532 q 650 300 714 363 q 447 238 586 238 l 321 238 q 221 176 221 238 q 241 138 221 150 q 290 126 261 126 l 511 126 q 709 74 643 126 q 775 -90 775 22 l 775 -114 q 705 -283 775 -224 q 496 -343 635 -343 l 278 -343 q 101 -296 168 -343 q 33 -162 33 -249 l 33 -136 q 65 -37 33 -79 q 149 29 96 6 q 94 80 113 49 q 75 149 75 111 q 108 240 75 203 q 199 289 140 276 q 103 377 132 321 q 75 503 75 433 q 151 687 75 628 q 376 746 226 746 l 778 746 l 778 650 m 429 367 q 530 399 501 367 q 558 486 558 431 q 527 585 558 556 q 436 615 496 615 l 358 615 q 263 587 294 615 q 231 493 231 558 q 260 397 231 428 q 349 367 290 367 l 429 367 m 319 -3 q 231 -28 265 -3 q 196 -103 196 -54 l 196 -125 q 229 -197 196 -174 q 324 -221 263 -221 l 475 -221 q 576 -196 540 -221 q 613 -122 613 -171 l 613 -99 q 485 -3 613 -3 l 319 -3 z "},"ğ":{"ha":806,"x_min":33,"x_max":778,"o":"m 778 650 l 646 632 q 695 568 676 604 q 714 464 714 532 q 650 300 714 363 q 447 238 586 238 l 321 238 q 221 176 221 238 q 241 138 221 150 q 290 126 261 126 l 511 126 q 709 74 643 126 q 775 -90 775 22 l 775 -114 q 705 -283 775 -224 q 496 -343 635 -343 l 278 -343 q 101 -296 168 -343 q 33 -162 33 -249 l 33 -136 q 65 -37 33 -79 q 149 29 96 6 q 94 80 113 49 q 75 149 75 111 q 108 240 75 203 q 199 289 140 276 q 103 377 132 321 q 75 503 75 433 q 151 687 75 628 q 376 746 226 746 l 778 746 l 778 650 m 429 367 q 530 399 501 367 q 558 486 558 431 q 527 585 558 556 q 436 615 496 615 l 358 615 q 263 587 294 615 q 231 493 231 558 q 260 397 231 428 q 349 367 290 367 l 429 367 m 319 -3 q 231 -28 265 -3 q 196 -103 196 -54 l 196 -125 q 229 -197 196 -174 q 324 -221 263 -221 l 475 -221 q 576 -196 540 -221 q 613 -122 613 -171 l 613 -99 q 485 -3 613 -3 l 319 -3 m 393 868 q 255 918 306 868 q 204 1074 204 968 l 285 1074 q 315 978 285 1008 q 393 947 346 947 q 503 1074 503 950 l 585 1074 q 534 918 585 968 q 393 868 483 868 z "},"ǧ":{"ha":806,"x_min":33,"x_max":778,"o":"m 778 650 l 646 632 q 695 568 676 604 q 714 464 714 532 q 650 300 714 363 q 447 238 586 238 l 321 238 q 221 176 221 238 q 241 138 221 150 q 290 126 261 126 l 511 126 q 709 74 643 126 q 775 -90 775 22 l 775 -114 q 705 -283 775 -224 q 496 -343 635 -343 l 278 -343 q 101 -296 168 -343 q 33 -162 33 -249 l 33 -136 q 65 -37 33 -79 q 149 29 96 6 q 94 80 113 49 q 75 149 75 111 q 108 240 75 203 q 199 289 140 276 q 103 377 132 321 q 75 503 75 433 q 151 687 75 628 q 376 746 226 746 l 778 746 l 778 650 m 429 367 q 530 399 501 367 q 558 486 558 431 q 527 585 558 556 q 436 615 496 615 l 358 615 q 263 587 294 615 q 231 493 231 558 q 260 397 231 428 q 349 367 290 367 l 429 367 m 319 -3 q 231 -28 265 -3 q 196 -103 196 -54 l 196 -125 q 229 -197 196 -174 q 324 -221 263 -221 l 475 -221 q 576 -196 540 -221 q 613 -122 613 -171 l 613 -99 q 485 -3 613 -3 l 319 -3 m 199 1069 l 299 1069 l 403 954 l 515 1069 l 617 1069 l 460 876 l 340 876 l 199 1069 z "},"ĝ":{"ha":806,"x_min":33,"x_max":778,"o":"m 778 650 l 646 632 q 695 568 676 604 q 714 464 714 532 q 650 300 714 363 q 447 238 586 238 l 321 238 q 221 176 221 238 q 241 138 221 150 q 290 126 261 126 l 511 126 q 709 74 643 126 q 775 -90 775 22 l 775 -114 q 705 -283 775 -224 q 496 -343 635 -343 l 278 -343 q 101 -296 168 -343 q 33 -162 33 -249 l 33 -136 q 65 -37 33 -79 q 149 29 96 6 q 94 80 113 49 q 75 149 75 111 q 108 240 75 203 q 199 289 140 276 q 103 377 132 321 q 75 503 75 433 q 151 687 75 628 q 376 746 226 746 l 778 746 l 778 650 m 429 367 q 530 399 501 367 q 558 486 558 431 q 527 585 558 556 q 436 615 496 615 l 358 615 q 263 587 294 615 q 231 493 231 558 q 260 397 231 428 q 349 367 290 367 l 429 367 m 319 -3 q 231 -28 265 -3 q 196 -103 196 -54 l 196 -125 q 229 -197 196 -174 q 324 -221 263 -221 l 475 -221 q 576 -196 540 -221 q 613 -122 613 -171 l 613 -99 q 485 -3 613 -3 l 319 -3 m 349 1069 l 467 1069 l 610 876 l 508 876 l 404 992 l 293 876 l 192 876 l 349 1069 z "},"ģ":{"ha":806,"x_min":33,"x_max":778,"o":"m 778 650 l 646 632 q 695 568 676 604 q 714 464 714 532 q 650 300 714 363 q 447 238 586 238 l 321 238 q 221 176 221 238 q 241 138 221 150 q 290 126 261 126 l 511 126 q 709 74 643 126 q 775 -90 775 22 l 775 -114 q 705 -283 775 -224 q 496 -343 635 -343 l 278 -343 q 101 -296 168 -343 q 33 -162 33 -249 l 33 -136 q 65 -37 33 -79 q 149 29 96 6 q 94 80 113 49 q 75 149 75 111 q 108 240 75 203 q 199 289 140 276 q 103 377 132 321 q 75 503 75 433 q 151 687 75 628 q 376 746 226 746 l 778 746 l 778 650 m 429 367 q 530 399 501 367 q 558 486 558 431 q 527 585 558 556 q 436 615 496 615 l 358 615 q 263 587 294 615 q 231 493 231 558 q 260 397 231 428 q 349 367 290 367 l 429 367 m 319 -3 q 231 -28 265 -3 q 196 -103 196 -54 l 196 -125 q 229 -197 196 -174 q 324 -221 263 -221 l 475 -221 q 576 -196 540 -221 q 613 -122 613 -171 l 613 -99 q 485 -3 613 -3 l 319 -3 m 315 858 q 329 974 315 932 q 377 1036 343 1017 q 474 1056 411 1056 l 539 1056 l 539 986 l 499 976 q 451 960 467 971 q 427 927 435 950 q 419 858 419 904 l 315 858 z "},"ġ":{"ha":806,"x_min":33,"x_max":778,"o":"m 778 650 l 646 632 q 695 568 676 604 q 714 464 714 532 q 650 300 714 363 q 447 238 586 238 l 321 238 q 221 176 221 238 q 241 138 221 150 q 290 126 261 126 l 511 126 q 709 74 643 126 q 775 -90 775 22 l 775 -114 q 705 -283 775 -224 q 496 -343 635 -343 l 278 -343 q 101 -296 168 -343 q 33 -162 33 -249 l 33 -136 q 65 -37 33 -79 q 149 29 96 6 q 94 80 113 49 q 75 149 75 111 q 108 240 75 203 q 199 289 140 276 q 103 377 132 321 q 75 503 75 433 q 151 687 75 628 q 376 746 226 746 l 778 746 l 778 650 m 429 367 q 530 399 501 367 q 558 486 558 431 q 527 585 558 556 q 436 615 496 615 l 358 615 q 263 587 294 615 q 231 493 231 558 q 260 397 231 428 q 349 367 290 367 l 429 367 m 319 -3 q 231 -28 265 -3 q 196 -103 196 -54 l 196 -125 q 229 -197 196 -174 q 324 -221 263 -221 l 475 -221 q 576 -196 540 -221 q 613 -122 613 -171 l 613 -99 q 485 -3 613 -3 l 319 -3 m 361 903 q 342 910 350 903 q 335 929 335 917 l 335 1054 q 361 1082 335 1082 l 440 1082 q 460 1074 453 1082 q 467 1054 467 1067 l 467 929 q 440 903 467 903 l 361 903 z "},"ḡ":{"ha":806,"x_min":33,"x_max":778,"o":"m 778 650 l 646 632 q 695 568 676 604 q 714 464 714 532 q 650 300 714 363 q 447 238 586 238 l 321 238 q 221 176 221 238 q 241 138 221 150 q 290 126 261 126 l 511 126 q 709 74 643 126 q 775 -90 775 22 l 775 -114 q 705 -283 775 -224 q 496 -343 635 -343 l 278 -343 q 101 -296 168 -343 q 33 -162 33 -249 l 33 -136 q 65 -37 33 -79 q 149 29 96 6 q 94 80 113 49 q 75 149 75 111 q 108 240 75 203 q 199 289 140 276 q 103 377 132 321 q 75 503 75 433 q 151 687 75 628 q 376 746 226 746 l 778 746 l 778 650 m 429 367 q 530 399 501 367 q 558 486 558 431 q 527 585 558 556 q 436 615 496 615 l 358 615 q 263 587 294 615 q 231 493 231 558 q 260 397 231 428 q 349 367 290 367 l 429 367 m 319 -3 q 231 -28 265 -3 q 196 -103 196 -54 l 196 -125 q 229 -197 196 -174 q 324 -221 263 -221 l 475 -221 q 576 -196 540 -221 q 613 -122 613 -171 l 613 -99 q 485 -3 613 -3 l 319 -3 m 207 1013 l 589 1013 l 589 911 l 207 911 l 207 1013 z "},"h":{"ha":824,"x_min":88,"x_max":739,"o":"m 88 1058 l 260 1058 l 260 667 q 376 731 308 704 q 510 757 444 757 q 683 687 628 757 q 739 497 739 617 l 739 0 l 567 0 l 567 476 q 533 568 567 535 q 443 601 499 601 q 350 586 393 601 q 260 540 307 571 l 260 0 l 88 0 l 88 1058 z "},"ħ":{"ha":824,"x_min":-3,"x_max":739,"o":"m 510 757 q 683 687 628 757 q 739 497 739 617 l 739 0 l 567 0 l 567 476 q 533 568 567 535 q 443 601 499 601 q 350 586 393 601 q 260 540 307 571 l 260 0 l 88 0 l 88 861 l -3 861 l -3 931 l 88 931 l 88 1058 l 260 1058 l 260 931 l 429 931 l 429 861 l 260 861 l 260 667 q 376 731 308 704 q 510 757 444 757 z "},"ḫ":{"ha":824,"x_min":88,"x_max":739,"o":"m 88 1058 l 260 1058 l 260 667 q 376 731 308 704 q 510 757 444 757 q 683 687 628 757 q 739 497 739 617 l 739 0 l 567 0 l 567 476 q 533 568 567 535 q 443 601 499 601 q 350 586 393 601 q 260 540 307 571 l 260 0 l 88 0 l 88 1058 m 411 -312 q 273 -262 324 -312 q 222 -107 222 -212 l 303 -107 q 333 -203 303 -172 q 411 -233 364 -233 q 521 -107 521 -231 l 603 -107 q 552 -262 603 -212 q 411 -312 501 -312 z "},"ĥ":{"ha":824,"x_min":3,"x_max":739,"o":"m 88 1058 l 260 1058 l 260 667 q 376 731 308 704 q 510 757 444 757 q 683 687 628 757 q 739 497 739 617 l 739 0 l 567 0 l 567 476 q 533 568 567 535 q 443 601 499 601 q 350 586 393 601 q 260 540 307 571 l 260 0 l 88 0 l 88 1058 m 160 1331 l 278 1331 l 421 1138 l 319 1138 l 215 1253 l 104 1138 l 3 1138 l 160 1331 z "},"ḥ":{"ha":824,"x_min":88,"x_max":739,"o":"m 88 1058 l 260 1058 l 260 667 q 376 731 308 704 q 510 757 444 757 q 683 687 628 757 q 739 497 739 617 l 739 0 l 567 0 l 567 476 q 533 568 567 535 q 443 601 499 601 q 350 586 393 601 q 260 540 307 571 l 260 0 l 88 0 l 88 1058 m 367 -306 q 348 -299 356 -306 q 340 -279 340 -292 l 340 -154 q 347 -134 340 -142 q 367 -126 354 -126 l 447 -126 q 466 -134 460 -126 q 472 -154 472 -142 l 472 -279 q 447 -306 472 -306 l 367 -306 z "},"i":{"ha":349,"x_min":83,"x_max":265,"o":"m 110 863 q 91 869 99 863 q 83 888 83 876 l 83 1014 q 90 1034 83 1026 q 110 1042 97 1042 l 240 1042 q 259 1034 253 1042 q 265 1014 265 1026 l 265 888 q 240 863 265 863 l 110 863 m 88 744 l 260 744 l 260 0 l 88 0 l 88 744 z "},"ı":{"ha":346,"x_min":88,"x_max":260,"o":"m 88 744 l 260 744 l 260 0 l 88 0 l 88 744 z "},"í":{"ha":346,"x_min":88,"x_max":385,"o":"m 88 744 l 260 744 l 260 0 l 88 0 l 88 744 m 243 1069 l 385 1069 l 219 876 l 119 876 l 243 1069 z "},"ĭ":{"ha":346,"x_min":-25,"x_max":356,"o":"m 88 744 l 260 744 l 260 0 l 88 0 l 88 744 m 164 868 q 26 918 76 868 q -25 1074 -25 968 l 56 1074 q 86 978 56 1008 q 164 947 117 947 q 274 1074 274 950 l 356 1074 q 305 918 356 968 q 164 868 254 868 z "},"î":{"ha":346,"x_min":-37,"x_max":381,"o":"m 88 744 l 260 744 l 260 0 l 88 0 l 88 744 m 119 1069 l 238 1069 l 381 876 l 279 876 l 175 992 l 64 876 l -37 876 l 119 1069 z "},"ȉ":{"ha":346,"x_min":-132,"x_max":365,"o":"m 88 744 l 260 744 l 260 0 l 88 0 l 88 744 m -132 1069 l 10 1069 l 133 876 l 33 876 l -132 1069 m 100 1069 l 242 1069 l 365 876 l 265 876 l 100 1069 z "},"ï":{"ha":346,"x_min":-33,"x_max":371,"o":"m 88 744 l 260 744 l 260 0 l 88 0 l 88 744 m -7 893 q -26 900 -18 893 q -33 919 -33 907 l -33 1044 q -26 1065 -33 1057 q -7 1072 -19 1072 l 74 1072 q 92 1065 86 1072 q 99 1044 99 1057 l 99 919 q 74 893 99 893 l -7 893 m 265 893 q 247 900 254 893 q 239 919 239 907 l 239 1044 q 265 1072 239 1072 l 346 1072 q 365 1065 358 1072 q 371 1044 371 1057 l 371 919 q 346 893 371 893 l 265 893 z "},"ḯ":{"ha":346,"x_min":-33,"x_max":376,"o":"m 88 744 l 260 744 l 260 0 l 88 0 l 88 744 m -7 893 q -26 900 -18 893 q -33 919 -33 907 l -33 1044 q -26 1065 -33 1057 q -7 1072 -19 1072 l 74 1072 q 92 1065 86 1072 q 99 1044 99 1057 l 99 919 q 74 893 99 893 l -7 893 m 265 893 q 247 900 254 893 q 239 919 239 907 l 239 1044 q 265 1072 239 1072 l 346 1072 q 365 1065 358 1072 q 371 1044 371 1057 l 371 919 q 346 893 371 893 l 265 893 m 235 1318 l 376 1318 l 211 1125 l 111 1125 l 235 1318 z "},"ị":{"ha":349,"x_min":83,"x_max":265,"o":"m 110 863 q 91 869 99 863 q 83 888 83 876 l 83 1014 q 90 1034 83 1026 q 110 1042 97 1042 l 240 1042 q 259 1034 253 1042 q 265 1014 265 1026 l 265 888 q 240 863 265 863 l 110 863 m 88 744 l 260 744 l 260 0 l 88 0 l 88 744 m 128 -306 q 109 -299 117 -306 q 101 -279 101 -292 l 101 -154 q 108 -134 101 -142 q 128 -126 115 -126 l 208 -126 q 227 -134 221 -126 q 233 -154 233 -142 l 233 -279 q 208 -306 233 -306 l 128 -306 z "},"ì":{"ha":346,"x_min":-11,"x_max":260,"o":"m 88 744 l 260 744 l 260 0 l 88 0 l 88 744 m -11 1069 l 129 1069 l 254 876 l 153 876 l -11 1069 z "},"ỉ":{"ha":346,"x_min":88,"x_max":294,"o":"m 88 744 l 260 744 l 260 0 l 88 0 l 88 744 m 139 906 q 203 971 203 925 q 150 1018 203 1018 q 103 1010 133 1018 l 103 1078 q 172 1089 136 1089 q 263 1059 232 1089 q 294 976 294 1029 q 257 888 294 924 q 139 829 219 851 l 139 906 z "},"ȋ":{"ha":346,"x_min":-17,"x_max":364,"o":"m 88 744 l 260 744 l 260 0 l 88 0 l 88 744 m 175 1076 q 313 1026 263 1076 q 364 871 364 976 l 283 871 q 253 967 283 936 q 175 997 222 997 q 65 871 65 994 l -17 871 q 34 1026 -17 976 q 175 1076 85 1076 z "},"ī":{"ha":346,"x_min":-22,"x_max":360,"o":"m 88 744 l 260 744 l 260 0 l 88 0 l 88 744 m -22 1013 l 360 1013 l 360 911 l -22 911 l -22 1013 z "},"į":{"ha":349,"x_min":83,"x_max":289,"o":"m 110 863 q 91 869 99 863 q 83 888 83 876 l 83 1014 q 90 1034 83 1026 q 110 1042 97 1042 l 240 1042 q 259 1034 253 1042 q 265 1014 265 1026 l 265 888 q 240 863 265 863 l 110 863 m 88 744 l 260 744 l 260 0 l 88 0 l 88 744 m 247 -264 q 138 -228 175 -264 q 100 -139 100 -192 q 124 -58 100 -94 q 196 0 149 -22 l 260 0 q 185 -100 185 -44 q 210 -157 185 -136 q 278 -178 235 -178 l 289 -178 l 289 -260 q 247 -264 275 -264 z "},"ĩ":{"ha":346,"x_min":-67,"x_max":438,"o":"m 88 744 l 260 744 l 260 0 l 88 0 l 88 744 m -67 882 q -23 1011 -62 971 q 75 1051 17 1051 q 134 1042 108 1051 q 196 1011 160 1032 q 243 987 225 994 q 282 979 261 979 q 331 999 313 979 q 350 1057 349 1019 l 438 1057 q 398 928 435 972 q 297 883 361 883 q 238 894 265 883 q 175 924 210 904 q 126 948 144 940 q 88 956 107 956 q 40 936 58 956 q 19 882 21 917 l -67 882 z "},"j":{"ha":349,"x_min":83,"x_max":264,"o":"m 110 863 q 91 869 99 863 q 83 888 83 876 l 83 1014 q 110 1042 83 1042 l 239 1042 q 264 1014 264 1042 l 264 888 q 239 863 264 863 l 110 863 m 88 744 l 260 744 l 260 13 q 249 -172 260 -79 q 218 -329 238 -264 l 88 -329 l 88 744 z "},"ȷ":{"ha":349,"x_min":88,"x_max":260,"o":"m 88 744 l 260 744 l 260 13 q 249 -172 260 -79 q 218 -329 238 -264 l 88 -329 l 88 744 z "},"ĵ":{"ha":349,"x_min":-37,"x_max":381,"o":"m 88 744 l 260 744 l 260 13 q 249 -172 260 -79 q 218 -329 238 -264 l 88 -329 l 88 744 m 119 1069 l 238 1069 l 381 876 l 279 876 l 175 992 l 64 876 l -37 876 l 119 1069 z "},"k":{"ha":746,"x_min":88,"x_max":736,"o":"m 88 1060 l 260 1060 l 260 472 l 354 472 l 540 744 l 717 744 l 481 394 l 736 0 l 560 0 l 351 318 l 260 318 l 260 0 l 88 0 l 88 1060 z "},"ķ":{"ha":746,"x_min":88,"x_max":736,"o":"m 88 1060 l 260 1060 l 260 472 l 354 472 l 540 744 l 717 744 l 481 394 l 736 0 l 560 0 l 351 318 l 260 318 l 260 0 l 88 0 l 88 1060 m 256 -222 l 294 -214 q 342 -197 326 -207 q 366 -165 358 -187 q 374 -96 374 -142 l 479 -96 q 445 -249 479 -204 q 321 -293 411 -293 l 256 -293 l 256 -222 z "},"ĸ":{"ha":746,"x_min":88,"x_max":736,"o":"m 88 750 l 260 750 l 260 461 l 349 461 l 535 744 l 717 744 l 481 383 l 736 0 l 560 0 l 351 307 l 260 307 l 260 0 l 88 0 l 88 750 z "},"l":{"ha":425,"x_min":88,"x_max":410,"o":"m 308 -3 q 142 55 196 -3 q 88 240 88 113 l 88 1060 l 260 1060 l 260 264 q 281 165 260 193 q 347 131 301 136 l 410 122 l 410 -3 l 308 -3 z "},"ĺ":{"ha":425,"x_min":88,"x_max":410,"o":"m 308 -3 q 142 55 196 -3 q 88 240 88 113 l 88 1060 l 260 1060 l 260 264 q 281 165 260 193 q 347 131 301 136 l 410 122 l 410 -3 l 308 -3 m 243 1376 l 385 1376 l 219 1183 l 119 1183 l 243 1376 z "},"ľ":{"ha":425,"x_min":88,"x_max":494,"o":"m 308 -3 q 142 55 196 -3 q 88 240 88 113 l 88 1060 l 260 1060 l 260 264 q 281 165 260 193 q 347 131 301 136 l 410 122 l 410 -3 l 308 -3 m 338 1000 l 338 1088 l 494 1088 l 494 1000 l 485 808 l 350 808 l 338 1000 z "},"ļ":{"ha":425,"x_min":88,"x_max":410,"o":"m 308 -3 q 142 55 196 -3 q 88 240 88 113 l 88 1060 l 260 1060 l 260 264 q 281 165 260 193 q 347 131 301 136 l 410 122 l 410 -3 l 308 -3 m 129 -222 l 168 -214 q 216 -197 200 -207 q 240 -165 232 -187 q 247 -96 247 -142 l 353 -96 q 319 -249 353 -204 q 194 -293 285 -293 l 129 -293 l 129 -222 z "},"ŀ":{"ha":496,"x_min":88,"x_max":501,"o":"m 308 -3 q 142 55 196 -3 q 88 240 88 113 l 88 1060 l 260 1060 l 260 264 q 281 165 260 193 q 347 131 301 136 l 410 122 l 410 -3 l 308 -3 m 376 442 q 358 449 365 442 q 350 467 350 456 l 350 569 q 376 597 350 597 l 475 597 q 501 569 501 597 l 501 467 q 475 442 501 442 l 376 442 z "},"ḷ":{"ha":425,"x_min":88,"x_max":410,"o":"m 308 -3 q 142 55 196 -3 q 88 240 88 113 l 88 1060 l 260 1060 l 260 264 q 281 165 260 193 q 347 131 301 136 l 410 122 l 410 -3 l 308 -3 m 201 -306 q 183 -299 190 -306 q 175 -279 175 -292 l 175 -154 q 182 -134 175 -142 q 201 -126 189 -126 l 282 -126 q 301 -134 294 -126 q 307 -154 307 -142 l 307 -279 q 282 -306 307 -306 l 201 -306 z "},"ḻ":{"ha":425,"x_min":57,"x_max":439,"o":"m 308 -3 q 142 55 196 -3 q 88 240 88 113 l 88 1060 l 260 1060 l 260 264 q 281 165 260 193 q 347 131 301 136 l 410 122 l 410 -3 l 308 -3 m 57 -182 l 439 -182 l 439 -283 l 57 -283 l 57 -182 z "},"ł":{"ha":425,"x_min":-1,"x_max":410,"o":"m 410 122 l 410 -3 l 308 -3 q 142 55 196 -3 q 88 240 88 113 l 88 514 l -1 479 l -1 574 l 88 608 l 88 1060 l 260 1060 l 260 664 l 389 713 l 389 618 l 260 569 l 260 264 q 281 165 260 193 q 347 131 301 136 l 410 122 z "},"m":{"ha":1301,"x_min":88,"x_max":1218,"o":"m 88 744 l 228 744 l 260 667 q 381 733 319 710 q 519 757 442 757 q 634 728 586 757 q 708 650 682 699 q 841 725 767 693 q 983 757 915 757 q 1218 489 1218 757 l 1218 0 l 1046 0 l 1046 475 q 1013 568 1046 535 q 922 601 979 601 q 824 583 875 601 q 729 535 774 565 q 739 471 739 507 l 739 0 l 567 0 l 567 475 q 533 568 567 535 q 443 601 500 601 q 349 586 392 601 q 260 540 306 571 l 260 0 l 88 0 l 88 744 z "},"ṁ":{"ha":1301,"x_min":88,"x_max":1218,"o":"m 88 744 l 228 744 l 260 667 q 381 733 319 710 q 519 757 442 757 q 634 728 586 757 q 708 650 682 699 q 841 725 767 693 q 983 757 915 757 q 1218 489 1218 757 l 1218 0 l 1046 0 l 1046 475 q 1013 568 1046 535 q 922 601 979 601 q 824 583 875 601 q 729 535 774 565 q 739 471 739 507 l 739 0 l 567 0 l 567 475 q 533 568 567 535 q 443 601 500 601 q 349 586 392 601 q 260 540 306 571 l 260 0 l 88 0 l 88 744 m 626 903 q 608 910 615 903 q 600 929 600 917 l 600 1054 q 626 1082 600 1082 l 706 1082 q 725 1074 718 1082 q 732 1054 732 1067 l 732 929 q 706 903 732 903 l 626 903 z "},"ṃ":{"ha":1301,"x_min":88,"x_max":1218,"o":"m 88 744 l 228 744 l 260 667 q 381 733 319 710 q 519 757 442 757 q 634 728 586 757 q 708 650 682 699 q 841 725 767 693 q 983 757 915 757 q 1218 489 1218 757 l 1218 0 l 1046 0 l 1046 475 q 1013 568 1046 535 q 922 601 979 601 q 824 583 875 601 q 729 535 774 565 q 739 471 739 507 l 739 0 l 567 0 l 567 475 q 533 568 567 535 q 443 601 500 601 q 349 586 392 601 q 260 540 306 571 l 260 0 l 88 0 l 88 744 m 606 -306 q 587 -299 594 -306 q 579 -279 579 -292 l 579 -154 q 586 -134 579 -142 q 606 -126 593 -126 l 686 -126 q 705 -134 699 -126 q 711 -154 711 -142 l 711 -279 q 686 -306 711 -306 l 606 -306 z "},"n":{"ha":824,"x_min":88,"x_max":739,"o":"m 88 744 l 228 744 l 260 667 q 377 731 311 706 q 508 757 443 757 q 685 685 631 757 q 739 496 739 614 l 739 0 l 567 0 l 567 475 q 533 568 567 535 q 443 601 500 601 q 349 586 392 601 q 260 540 306 571 l 260 0 l 88 0 l 88 744 z "},"ń":{"ha":824,"x_min":88,"x_max":739,"o":"m 88 744 l 228 744 l 260 667 q 377 731 311 706 q 508 757 443 757 q 685 685 631 757 q 739 496 739 614 l 739 0 l 567 0 l 567 475 q 533 568 567 535 q 443 601 500 601 q 349 586 392 601 q 260 540 306 571 l 260 0 l 88 0 l 88 744 m 481 1069 l 622 1069 l 457 876 l 357 876 l 481 1069 z "},"ň":{"ha":824,"x_min":88,"x_max":739,"o":"m 88 744 l 228 744 l 260 667 q 377 731 311 706 q 508 757 443 757 q 685 685 631 757 q 739 496 739 614 l 739 0 l 567 0 l 567 475 q 533 568 567 535 q 443 601 500 601 q 349 586 392 601 q 260 540 306 571 l 260 0 l 88 0 l 88 744 m 207 1069 l 307 1069 l 411 954 l 524 1069 l 625 1069 l 468 876 l 349 876 l 207 1069 z "},"ņ":{"ha":824,"x_min":88,"x_max":739,"o":"m 88 744 l 228 744 l 260 667 q 377 731 311 706 q 508 757 443 757 q 685 685 631 757 q 739 496 739 614 l 739 0 l 567 0 l 567 475 q 533 568 567 535 q 443 601 500 601 q 349 586 392 601 q 260 540 306 571 l 260 0 l 88 0 l 88 744 m 293 -222 l 332 -214 q 380 -197 364 -207 q 403 -165 396 -187 q 411 -96 411 -142 l 517 -96 q 483 -249 517 -204 q 358 -293 449 -293 l 293 -293 l 293 -222 z "},"ṅ":{"ha":824,"x_min":88,"x_max":739,"o":"m 88 744 l 228 744 l 260 667 q 377 731 311 706 q 508 757 443 757 q 685 685 631 757 q 739 496 739 614 l 739 0 l 567 0 l 567 475 q 533 568 567 535 q 443 601 500 601 q 349 586 392 601 q 260 540 306 571 l 260 0 l 88 0 l 88 744 m 365 -306 q 347 -299 354 -306 q 339 -279 339 -292 l 339 -154 q 346 -134 339 -142 q 365 -126 353 -126 l 446 -126 q 465 -134 458 -126 q 471 -154 471 -142 l 471 -279 q 446 -306 471 -306 l 365 -306 z "},"ṇ":{"ha":824,"x_min":88,"x_max":739,"o":"m 88 744 l 228 744 l 260 667 q 377 731 311 706 q 508 757 443 757 q 685 685 631 757 q 739 496 739 614 l 739 0 l 567 0 l 567 475 q 533 568 567 535 q 443 601 500 601 q 349 586 392 601 q 260 540 306 571 l 260 0 l 88 0 l 88 744 m 365 -306 q 347 -299 354 -306 q 339 -279 339 -292 l 339 -154 q 346 -134 339 -142 q 365 -126 353 -126 l 446 -126 q 465 -134 458 -126 q 471 -154 471 -142 l 471 -279 q 446 -306 471 -306 l 365 -306 z "},"ŋ":{"ha":824,"x_min":88,"x_max":739,"o":"m 508 757 q 685 685 631 757 q 739 496 739 614 l 739 -25 q 694 -214 739 -139 q 575 -329 649 -289 l 436 -329 q 531 -209 496 -279 q 567 -29 567 -139 l 567 475 q 533 568 567 535 q 443 601 500 601 q 349 586 392 601 q 260 540 306 571 l 260 0 l 88 0 l 88 744 l 228 744 l 260 667 q 377 731 311 706 q 508 757 443 757 z "},"ṉ":{"ha":824,"x_min":88,"x_max":739,"o":"m 88 744 l 228 744 l 260 667 q 377 731 311 706 q 508 757 443 757 q 685 685 631 757 q 739 496 739 614 l 739 0 l 567 0 l 567 475 q 533 568 567 535 q 443 601 500 601 q 349 586 392 601 q 260 540 306 571 l 260 0 l 88 0 l 88 744 m 221 -182 l 603 -182 l 603 -283 l 221 -283 l 221 -182 z "},"ñ":{"ha":824,"x_min":88,"x_max":739,"o":"m 88 744 l 228 744 l 260 667 q 377 731 311 706 q 508 757 443 757 q 685 685 631 757 q 739 496 739 614 l 739 0 l 567 0 l 567 475 q 533 568 567 535 q 443 601 500 601 q 349 586 392 601 q 260 540 306 571 l 260 0 l 88 0 l 88 744 m 169 882 q 213 1011 174 971 q 311 1051 253 1051 q 370 1042 344 1051 q 432 1011 396 1032 q 479 987 461 994 q 518 979 497 979 q 567 999 549 979 q 586 1057 585 1019 l 674 1057 q 634 928 671 972 q 533 883 597 883 q 474 894 501 883 q 411 924 446 904 q 362 948 381 940 q 324 956 343 956 q 276 936 294 956 q 256 882 257 917 l 169 882 z "},"o":{"ha":800,"x_min":65,"x_max":735,"o":"m 399 -7 q 206 28 278 -7 q 99 144 133 63 q 65 374 65 226 q 99 608 65 526 q 205 722 133 690 q 399 754 276 754 q 594 722 522 754 q 700 606 665 689 q 735 374 735 524 q 701 142 735 224 q 596 26 668 60 q 399 -7 524 -7 m 399 131 q 495 147 461 131 q 546 216 529 164 q 563 375 563 268 q 546 533 563 481 q 495 601 529 585 q 399 617 461 617 q 303 601 338 617 q 253 533 269 585 q 236 375 236 481 q 253 216 236 268 q 303 147 269 164 q 399 131 338 131 z "},"ó":{"ha":800,"x_min":65,"x_max":735,"o":"m 399 -7 q 206 28 278 -7 q 99 144 133 63 q 65 374 65 226 q 99 608 65 526 q 205 722 133 690 q 399 754 276 754 q 594 722 522 754 q 700 606 665 689 q 735 374 735 524 q 701 142 735 224 q 596 26 668 60 q 399 -7 524 -7 m 399 131 q 495 147 461 131 q 546 216 529 164 q 563 375 563 268 q 546 533 563 481 q 495 601 529 585 q 399 617 461 617 q 303 601 338 617 q 253 533 269 585 q 236 375 236 481 q 253 216 236 268 q 303 147 269 164 q 399 131 338 131 m 468 1069 l 610 1069 l 444 876 l 344 876 l 468 1069 z "},"ŏ":{"ha":800,"x_min":65,"x_max":735,"o":"m 399 -7 q 206 28 278 -7 q 99 144 133 63 q 65 374 65 226 q 99 608 65 526 q 205 722 133 690 q 399 754 276 754 q 594 722 522 754 q 700 606 665 689 q 735 374 735 524 q 701 142 735 224 q 596 26 668 60 q 399 -7 524 -7 m 399 131 q 495 147 461 131 q 546 216 529 164 q 563 375 563 268 q 546 533 563 481 q 495 601 529 585 q 399 617 461 617 q 303 601 338 617 q 253 533 269 585 q 236 375 236 481 q 253 216 236 268 q 303 147 269 164 q 399 131 338 131 m 389 868 q 251 918 301 868 q 200 1074 200 968 l 281 1074 q 311 978 281 1008 q 389 947 342 947 q 499 1074 499 950 l 581 1074 q 530 918 581 968 q 389 868 479 868 z "},"ô":{"ha":800,"x_min":65,"x_max":735,"o":"m 399 -7 q 206 28 278 -7 q 99 144 133 63 q 65 374 65 226 q 99 608 65 526 q 205 722 133 690 q 399 754 276 754 q 594 722 522 754 q 700 606 665 689 q 735 374 735 524 q 701 142 735 224 q 596 26 668 60 q 399 -7 524 -7 m 399 131 q 495 147 461 131 q 546 216 529 164 q 563 375 563 268 q 546 533 563 481 q 495 601 529 585 q 399 617 461 617 q 303 601 338 617 q 253 533 269 585 q 236 375 236 481 q 253 216 236 268 q 303 147 269 164 q 399 131 338 131 m 344 1069 l 463 1069 l 606 876 l 504 876 l 400 992 l 289 876 l 188 876 l 344 1069 z "},"ố":{"ha":800,"x_min":65,"x_max":749,"o":"m 399 -7 q 206 28 278 -7 q 99 144 133 63 q 65 374 65 226 q 99 608 65 526 q 205 722 133 690 q 399 754 276 754 q 594 722 522 754 q 700 606 665 689 q 735 374 735 524 q 701 142 735 224 q 596 26 668 60 q 399 -7 524 -7 m 399 131 q 495 147 461 131 q 546 216 529 164 q 563 375 563 268 q 546 533 563 481 q 495 601 529 585 q 399 617 461 617 q 303 601 338 617 q 253 533 269 585 q 236 375 236 481 q 253 216 236 268 q 303 147 269 164 q 399 131 338 131 m 749 1167 l 625 990 l 524 990 l 608 1167 l 749 1167 m 461 1022 l 604 876 l 504 876 l 400 944 l 288 876 l 186 876 l 343 1022 l 461 1022 z "},"ộ":{"ha":800,"x_min":65,"x_max":735,"o":"m 399 -7 q 206 28 278 -7 q 99 144 133 63 q 65 374 65 226 q 99 608 65 526 q 205 722 133 690 q 399 754 276 754 q 594 722 522 754 q 700 606 665 689 q 735 374 735 524 q 701 142 735 224 q 596 26 668 60 q 399 -7 524 -7 m 399 131 q 495 147 461 131 q 546 216 529 164 q 563 375 563 268 q 546 533 563 481 q 495 601 529 585 q 399 617 461 617 q 303 601 338 617 q 253 533 269 585 q 236 375 236 481 q 253 216 236 268 q 303 147 269 164 q 399 131 338 131 m 344 1069 l 463 1069 l 606 876 l 504 876 l 400 992 l 289 876 l 188 876 l 344 1069 m 353 -306 q 334 -299 342 -306 q 326 -279 326 -292 l 326 -154 q 333 -134 326 -142 q 353 -126 340 -126 l 433 -126 q 452 -134 446 -126 q 458 -154 458 -142 l 458 -279 q 433 -306 458 -306 l 353 -306 z "},"ồ":{"ha":800,"x_min":50,"x_max":735,"o":"m 399 -7 q 206 28 278 -7 q 99 144 133 63 q 65 374 65 226 q 99 608 65 526 q 205 722 133 690 q 399 754 276 754 q 594 722 522 754 q 700 606 665 689 q 735 374 735 524 q 701 142 735 224 q 596 26 668 60 q 399 -7 524 -7 m 399 131 q 495 147 461 131 q 546 216 529 164 q 563 375 563 268 q 546 533 563 481 q 495 601 529 585 q 399 617 461 617 q 303 601 338 617 q 253 533 269 585 q 236 375 236 481 q 253 216 236 268 q 303 147 269 164 q 399 131 338 131 m 190 1167 l 275 990 l 174 990 l 50 1167 l 190 1167 m 461 1022 l 604 876 l 504 876 l 400 944 l 288 876 l 186 876 l 343 1022 l 461 1022 z "},"ổ":{"ha":800,"x_min":65,"x_max":735,"o":"m 399 -7 q 206 28 278 -7 q 99 144 133 63 q 65 374 65 226 q 99 608 65 526 q 205 722 133 690 q 399 754 276 754 q 594 722 522 754 q 700 606 665 689 q 735 374 735 524 q 701 142 735 224 q 596 26 668 60 q 399 -7 524 -7 m 399 131 q 495 147 461 131 q 546 216 529 164 q 563 375 563 268 q 546 533 563 481 q 495 601 529 585 q 399 617 461 617 q 303 601 338 617 q 253 533 269 585 q 236 375 236 481 q 253 216 236 268 q 303 147 269 164 q 399 131 338 131 m 557 1028 q 610 1082 610 1044 q 600 1111 610 1101 q 567 1121 590 1121 q 521 1113 542 1121 l 521 1174 q 589 1183 549 1183 q 666 1160 640 1183 q 692 1092 692 1136 q 557 951 692 989 l 557 1028 m 343 1022 l 461 1022 l 604 876 l 504 876 l 400 944 l 288 876 l 186 876 l 343 1022 z "},"ỗ":{"ha":800,"x_min":65,"x_max":735,"o":"m 399 -7 q 206 28 278 -7 q 99 144 133 63 q 65 374 65 226 q 99 608 65 526 q 205 722 133 690 q 399 754 276 754 q 594 722 522 754 q 700 606 665 689 q 735 374 735 524 q 701 142 735 224 q 596 26 668 60 q 399 -7 524 -7 m 399 131 q 495 147 461 131 q 546 216 529 164 q 563 375 563 268 q 546 533 563 481 q 495 601 529 585 q 399 617 461 617 q 303 601 338 617 q 253 533 269 585 q 236 375 236 481 q 253 216 236 268 q 303 147 269 164 q 399 131 338 131 m 289 1213 q 390 1188 329 1213 q 467 1167 440 1167 q 510 1181 494 1167 q 526 1219 526 1194 l 614 1219 q 580 1114 608 1144 q 494 1083 551 1083 q 448 1090 469 1083 q 389 1108 426 1096 q 310 1129 335 1129 q 272 1117 286 1129 q 257 1082 258 1104 l 171 1082 q 206 1185 175 1157 q 289 1213 238 1213 m 604 876 l 504 876 l 400 944 l 288 876 l 186 876 l 343 1022 l 461 1022 l 604 876 z "},"ȍ":{"ha":800,"x_min":65,"x_max":735,"o":"m 399 -7 q 206 28 278 -7 q 99 144 133 63 q 65 374 65 226 q 99 608 65 526 q 205 722 133 690 q 399 754 276 754 q 594 722 522 754 q 700 606 665 689 q 735 374 735 524 q 701 142 735 224 q 596 26 668 60 q 399 -7 524 -7 m 399 131 q 495 147 461 131 q 546 216 529 164 q 563 375 563 268 q 546 533 563 481 q 495 601 529 585 q 399 617 461 617 q 303 601 338 617 q 253 533 269 585 q 236 375 236 481 q 253 216 236 268 q 303 147 269 164 q 399 131 338 131 m 93 1069 l 235 1069 l 358 876 l 258 876 l 93 1069 m 325 1069 l 467 1069 l 590 876 l 490 876 l 325 1069 z "},"ö":{"ha":800,"x_min":65,"x_max":735,"o":"m 399 -7 q 206 28 278 -7 q 99 144 133 63 q 65 374 65 226 q 99 608 65 526 q 205 722 133 690 q 399 754 276 754 q 594 722 522 754 q 700 606 665 689 q 735 374 735 524 q 701 142 735 224 q 596 26 668 60 q 399 -7 524 -7 m 399 131 q 495 147 461 131 q 546 216 529 164 q 563 375 563 268 q 546 533 563 481 q 495 601 529 585 q 399 617 461 617 q 303 601 338 617 q 253 533 269 585 q 236 375 236 481 q 253 216 236 268 q 303 147 269 164 q 399 131 338 131 m 218 893 q 199 900 207 893 q 192 919 192 907 l 192 1044 q 199 1065 192 1057 q 218 1072 206 1072 l 299 1072 q 317 1065 311 1072 q 324 1044 324 1057 l 324 919 q 299 893 324 893 l 218 893 m 490 893 q 472 900 479 893 q 464 919 464 907 l 464 1044 q 490 1072 464 1072 l 571 1072 q 590 1065 583 1072 q 596 1044 596 1057 l 596 919 q 571 893 596 893 l 490 893 z "},"ȫ":{"ha":800,"x_min":65,"x_max":735,"o":"m 399 -7 q 206 28 278 -7 q 99 144 133 63 q 65 374 65 226 q 99 608 65 526 q 205 722 133 690 q 399 754 276 754 q 594 722 522 754 q 700 606 665 689 q 735 374 735 524 q 701 142 735 224 q 596 26 668 60 q 399 -7 524 -7 m 399 131 q 495 147 461 131 q 546 216 529 164 q 563 375 563 268 q 546 533 563 481 q 495 601 529 585 q 399 617 461 617 q 303 601 338 617 q 253 533 269 585 q 236 375 236 481 q 253 216 236 268 q 303 147 269 164 q 399 131 338 131 m 218 893 q 199 900 207 893 q 192 919 192 907 l 192 1044 q 199 1065 192 1057 q 218 1072 206 1072 l 299 1072 q 317 1065 311 1072 q 324 1044 324 1057 l 324 919 q 299 893 324 893 l 218 893 m 490 893 q 472 900 479 893 q 464 919 464 907 l 464 1044 q 490 1072 464 1072 l 571 1072 q 590 1065 583 1072 q 596 1044 596 1057 l 596 919 q 571 893 596 893 l 490 893 m 203 1261 l 585 1261 l 585 1160 l 203 1160 l 203 1261 z "},"ȱ":{"ha":800,"x_min":65,"x_max":735,"o":"m 399 -7 q 206 28 278 -7 q 99 144 133 63 q 65 374 65 226 q 99 608 65 526 q 205 722 133 690 q 399 754 276 754 q 594 722 522 754 q 700 606 665 689 q 735 374 735 524 q 701 142 735 224 q 596 26 668 60 q 399 -7 524 -7 m 399 131 q 495 147 461 131 q 546 216 529 164 q 563 375 563 268 q 546 533 563 481 q 495 601 529 585 q 399 617 461 617 q 303 601 338 617 q 253 533 269 585 q 236 375 236 481 q 253 216 236 268 q 303 147 269 164 q 399 131 338 131 m 357 903 q 338 910 346 903 q 331 929 331 917 l 331 1054 q 357 1082 331 1082 l 436 1082 q 456 1074 449 1082 q 463 1054 463 1067 l 463 929 q 436 903 463 903 l 357 903 m 203 1256 l 585 1256 l 585 1154 l 203 1154 l 203 1256 z "},"ọ":{"ha":800,"x_min":65,"x_max":735,"o":"m 399 -7 q 206 28 278 -7 q 99 144 133 63 q 65 374 65 226 q 99 608 65 526 q 205 722 133 690 q 399 754 276 754 q 594 722 522 754 q 700 606 665 689 q 735 374 735 524 q 701 142 735 224 q 596 26 668 60 q 399 -7 524 -7 m 399 131 q 495 147 461 131 q 546 216 529 164 q 563 375 563 268 q 546 533 563 481 q 495 601 529 585 q 399 617 461 617 q 303 601 338 617 q 253 533 269 585 q 236 375 236 481 q 253 216 236 268 q 303 147 269 164 q 399 131 338 131 m 353 -306 q 334 -299 342 -306 q 326 -279 326 -292 l 326 -154 q 333 -134 326 -142 q 353 -126 340 -126 l 433 -126 q 452 -134 446 -126 q 458 -154 458 -142 l 458 -279 q 433 -306 458 -306 l 353 -306 z "},"ò":{"ha":800,"x_min":65,"x_max":735,"o":"m 399 -7 q 206 28 278 -7 q 99 144 133 63 q 65 374 65 226 q 99 608 65 526 q 205 722 133 690 q 399 754 276 754 q 594 722 522 754 q 700 606 665 689 q 735 374 735 524 q 701 142 735 224 q 596 26 668 60 q 399 -7 524 -7 m 399 131 q 495 147 461 131 q 546 216 529 164 q 563 375 563 268 q 546 533 563 481 q 495 601 529 585 q 399 617 461 617 q 303 601 338 617 q 253 533 269 585 q 236 375 236 481 q 253 216 236 268 q 303 147 269 164 q 399 131 338 131 m 214 1069 l 354 1069 l 479 876 l 378 876 l 214 1069 z "},"ỏ":{"ha":800,"x_min":65,"x_max":735,"o":"m 399 -7 q 206 28 278 -7 q 99 144 133 63 q 65 374 65 226 q 99 608 65 526 q 205 722 133 690 q 399 754 276 754 q 594 722 522 754 q 700 606 665 689 q 735 374 735 524 q 701 142 735 224 q 596 26 668 60 q 399 -7 524 -7 m 399 131 q 495 147 461 131 q 546 216 529 164 q 563 375 563 268 q 546 533 563 481 q 495 601 529 585 q 399 617 461 617 q 303 601 338 617 q 253 533 269 585 q 236 375 236 481 q 253 216 236 268 q 303 147 269 164 q 399 131 338 131 m 364 906 q 428 971 428 925 q 375 1018 428 1018 q 328 1010 358 1018 l 328 1078 q 397 1089 361 1089 q 488 1059 457 1089 q 519 976 519 1029 q 482 888 519 924 q 364 829 444 851 l 364 906 z "},"ơ":{"ha":800,"x_min":65,"x_max":778,"o":"m 778 899 q 748 749 778 807 q 665 667 718 690 q 718 551 701 622 q 735 374 735 479 q 701 142 735 224 q 596 26 668 60 q 399 -7 524 -7 q 206 28 278 -7 q 99 144 133 63 q 65 374 65 226 q 99 608 65 526 q 205 722 133 690 q 399 754 276 754 q 521 744 471 754 l 556 744 q 632 781 606 744 q 658 899 658 817 l 778 899 m 399 131 q 495 147 461 131 q 546 216 529 164 q 563 375 563 268 q 546 533 563 481 q 495 601 529 585 q 399 617 461 617 q 303 601 338 617 q 253 533 269 585 q 236 375 236 481 q 253 216 236 268 q 303 147 269 164 q 399 131 338 131 z "},"ớ":{"ha":800,"x_min":65,"x_max":778,"o":"m 778 899 q 748 749 778 807 q 665 667 718 690 q 718 551 701 622 q 735 374 735 479 q 701 142 735 224 q 596 26 668 60 q 399 -7 524 -7 q 206 28 278 -7 q 99 144 133 63 q 65 374 65 226 q 99 608 65 526 q 205 722 133 690 q 399 754 276 754 q 521 744 471 754 l 556 744 q 632 781 606 744 q 658 899 658 817 l 778 899 m 399 131 q 495 147 461 131 q 546 216 529 164 q 563 375 563 268 q 546 533 563 481 q 495 601 529 585 q 399 617 461 617 q 303 601 338 617 q 253 533 269 585 q 236 375 236 481 q 253 216 236 268 q 303 147 269 164 q 399 131 338 131 m 461 1069 l 603 1069 l 438 876 l 338 876 l 461 1069 z "},"ợ":{"ha":800,"x_min":65,"x_max":778,"o":"m 778 899 q 748 749 778 807 q 665 667 718 690 q 718 551 701 622 q 735 374 735 479 q 701 142 735 224 q 596 26 668 60 q 399 -7 524 -7 q 206 28 278 -7 q 99 144 133 63 q 65 374 65 226 q 99 608 65 526 q 205 722 133 690 q 399 754 276 754 q 521 744 471 754 l 556 744 q 632 781 606 744 q 658 899 658 817 l 778 899 m 399 131 q 495 147 461 131 q 546 216 529 164 q 563 375 563 268 q 546 533 563 481 q 495 601 529 585 q 399 617 461 617 q 303 601 338 617 q 253 533 269 585 q 236 375 236 481 q 253 216 236 268 q 303 147 269 164 q 399 131 338 131 m 365 -306 q 347 -299 354 -306 q 339 -279 339 -292 l 339 -154 q 346 -134 339 -142 q 365 -126 353 -126 l 446 -126 q 465 -134 458 -126 q 471 -154 471 -142 l 471 -279 q 446 -306 471 -306 l 365 -306 z "},"ờ":{"ha":800,"x_min":65,"x_max":778,"o":"m 778 899 q 748 749 778 807 q 665 667 718 690 q 718 551 701 622 q 735 374 735 479 q 701 142 735 224 q 596 26 668 60 q 399 -7 524 -7 q 206 28 278 -7 q 99 144 133 63 q 65 374 65 226 q 99 608 65 526 q 205 722 133 690 q 399 754 276 754 q 521 744 471 754 l 556 744 q 632 781 606 744 q 658 899 658 817 l 778 899 m 399 131 q 495 147 461 131 q 546 216 529 164 q 563 375 563 268 q 546 533 563 481 q 495 601 529 585 q 399 617 461 617 q 303 601 338 617 q 253 533 269 585 q 236 375 236 481 q 253 216 236 268 q 303 147 269 164 q 399 131 338 131 m 194 1069 l 335 1069 l 460 876 l 358 876 l 194 1069 z "},"ở":{"ha":800,"x_min":65,"x_max":778,"o":"m 778 899 q 748 749 778 807 q 665 667 718 690 q 718 551 701 622 q 735 374 735 479 q 701 142 735 224 q 596 26 668 60 q 399 -7 524 -7 q 206 28 278 -7 q 99 144 133 63 q 65 374 65 226 q 99 608 65 526 q 205 722 133 690 q 399 754 276 754 q 521 744 471 754 l 556 744 q 632 781 606 744 q 658 899 658 817 l 778 899 m 399 131 q 495 147 461 131 q 546 216 529 164 q 563 375 563 268 q 546 533 563 481 q 495 601 529 585 q 399 617 461 617 q 303 601 338 617 q 253 533 269 585 q 236 375 236 481 q 253 216 236 268 q 303 147 269 164 q 399 131 338 131 m 368 906 q 432 971 432 925 q 379 1018 432 1018 q 332 1010 363 1018 l 332 1078 q 401 1089 365 1089 q 492 1059 461 1089 q 524 976 524 1029 q 486 888 524 924 q 368 829 449 851 l 368 906 z "},"ỡ":{"ha":800,"x_min":65,"x_max":778,"o":"m 778 899 q 748 749 778 807 q 665 667 718 690 q 718 551 701 622 q 735 374 735 479 q 701 142 735 224 q 596 26 668 60 q 399 -7 524 -7 q 206 28 278 -7 q 99 144 133 63 q 65 374 65 226 q 99 608 65 526 q 205 722 133 690 q 399 754 276 754 q 521 744 471 754 l 556 744 q 632 781 606 744 q 658 899 658 817 l 778 899 m 399 131 q 495 147 461 131 q 546 216 529 164 q 563 375 563 268 q 546 533 563 481 q 495 601 529 585 q 399 617 461 617 q 303 601 338 617 q 253 533 269 585 q 236 375 236 481 q 253 216 236 268 q 303 147 269 164 q 399 131 338 131 m 129 882 q 173 1011 133 971 q 271 1051 213 1051 q 330 1042 304 1051 q 392 1011 356 1032 q 439 987 421 994 q 478 979 457 979 q 526 999 508 979 q 546 1057 544 1019 l 633 1057 q 594 928 631 972 q 493 883 557 883 q 433 894 461 883 q 371 924 406 904 q 322 948 340 940 q 283 956 303 956 q 235 936 254 956 q 215 882 217 917 l 129 882 z "},"ő":{"ha":800,"x_min":65,"x_max":735,"o":"m 399 -7 q 206 28 278 -7 q 99 144 133 63 q 65 374 65 226 q 99 608 65 526 q 205 722 133 690 q 399 754 276 754 q 594 722 522 754 q 700 606 665 689 q 735 374 735 524 q 701 142 735 224 q 596 26 668 60 q 399 -7 524 -7 m 399 131 q 495 147 461 131 q 546 216 529 164 q 563 375 563 268 q 546 533 563 481 q 495 601 529 585 q 399 617 461 617 q 303 601 338 617 q 253 533 269 585 q 236 375 236 481 q 253 216 236 268 q 303 147 269 164 q 399 131 338 131 m 333 1069 l 465 1069 l 317 876 l 217 876 l 333 1069 m 554 1069 l 686 1069 l 538 876 l 438 876 l 554 1069 z "},"ȏ":{"ha":800,"x_min":65,"x_max":735,"o":"m 399 -7 q 206 28 278 -7 q 99 144 133 63 q 65 374 65 226 q 99 608 65 526 q 205 722 133 690 q 399 754 276 754 q 594 722 522 754 q 700 606 665 689 q 735 374 735 524 q 701 142 735 224 q 596 26 668 60 q 399 -7 524 -7 m 399 131 q 495 147 461 131 q 546 216 529 164 q 563 375 563 268 q 546 533 563 481 q 495 601 529 585 q 399 617 461 617 q 303 601 338 617 q 253 533 269 585 q 236 375 236 481 q 253 216 236 268 q 303 147 269 164 q 399 131 338 131 m 400 1076 q 538 1026 488 1076 q 589 871 589 976 l 508 871 q 478 967 508 936 q 400 997 447 997 q 290 871 290 994 l 208 871 q 259 1026 208 976 q 400 1076 310 1076 z "},"ō":{"ha":800,"x_min":65,"x_max":735,"o":"m 399 -7 q 206 28 278 -7 q 99 144 133 63 q 65 374 65 226 q 99 608 65 526 q 205 722 133 690 q 399 754 276 754 q 594 722 522 754 q 700 606 665 689 q 735 374 735 524 q 701 142 735 224 q 596 26 668 60 q 399 -7 524 -7 m 399 131 q 495 147 461 131 q 546 216 529 164 q 563 375 563 268 q 546 533 563 481 q 495 601 529 585 q 399 617 461 617 q 303 601 338 617 q 253 533 269 585 q 236 375 236 481 q 253 216 236 268 q 303 147 269 164 q 399 131 338 131 m 203 1013 l 585 1013 l 585 911 l 203 911 l 203 1013 z "},"ṓ":{"ha":800,"x_min":65,"x_max":735,"o":"m 399 -7 q 206 28 278 -7 q 99 144 133 63 q 65 374 65 226 q 99 608 65 526 q 205 722 133 690 q 399 754 276 754 q 594 722 522 754 q 700 606 665 689 q 735 374 735 524 q 701 142 735 224 q 596 26 668 60 q 399 -7 524 -7 m 399 131 q 495 147 461 131 q 546 216 529 164 q 563 375 563 268 q 546 533 563 481 q 495 601 529 585 q 399 617 461 617 q 303 601 338 617 q 253 533 269 585 q 236 375 236 481 q 253 216 236 268 q 303 147 269 164 q 399 131 338 131 m 203 1013 l 585 1013 l 585 911 l 203 911 l 203 1013 m 461 1253 l 603 1253 l 438 1060 l 338 1060 l 461 1253 z "},"ṑ":{"ha":800,"x_min":65,"x_max":735,"o":"m 399 -7 q 206 28 278 -7 q 99 144 133 63 q 65 374 65 226 q 99 608 65 526 q 205 722 133 690 q 399 754 276 754 q 594 722 522 754 q 700 606 665 689 q 735 374 735 524 q 701 142 735 224 q 596 26 668 60 q 399 -7 524 -7 m 399 131 q 495 147 461 131 q 546 216 529 164 q 563 375 563 268 q 546 533 563 481 q 495 601 529 585 q 399 617 461 617 q 303 601 338 617 q 253 533 269 585 q 236 375 236 481 q 253 216 236 268 q 303 147 269 164 q 399 131 338 131 m 203 1013 l 585 1013 l 585 911 l 203 911 l 203 1013 m 199 1253 l 339 1253 l 464 1060 l 363 1060 l 199 1253 z "},"ǫ":{"ha":800,"x_min":65,"x_max":735,"o":"m 476 -4 q 407 -100 407 -47 q 432 -157 407 -136 q 500 -178 457 -178 l 511 -178 l 511 -260 q 469 -264 496 -264 q 360 -228 397 -264 q 322 -139 322 -192 q 406 -7 322 -54 l 399 -7 q 206 28 278 -7 q 99 144 133 63 q 65 374 65 226 q 99 608 65 526 q 205 722 133 690 q 399 754 276 754 q 594 722 522 754 q 700 606 665 689 q 735 374 735 524 q 708 162 735 240 q 626 44 682 83 q 476 -4 571 6 m 236 375 q 253 216 236 268 q 303 147 269 164 q 399 131 338 131 q 495 147 461 131 q 546 216 529 164 q 563 375 563 268 q 546 533 563 481 q 495 601 529 585 q 399 617 461 617 q 303 601 338 617 q 253 533 269 585 q 236 375 236 481 z "},"ø":{"ha":800,"x_min":51,"x_max":749,"o":"m 674 654 q 735 374 735 568 q 701 142 735 224 q 596 26 668 60 q 399 -7 524 -7 q 267 6 322 -7 q 172 47 213 18 l 133 0 l 51 0 l 128 93 q 65 374 65 178 q 99 608 65 526 q 205 722 133 690 q 399 754 276 754 q 535 742 478 754 q 629 700 592 729 l 667 744 l 749 744 l 674 654 m 236 375 q 247 238 236 290 l 525 574 q 477 608 507 599 q 399 617 447 617 q 303 601 338 617 q 253 533 269 585 q 236 375 236 481 m 563 375 q 553 507 563 460 l 275 171 q 323 139 293 147 q 399 131 353 131 q 495 147 461 131 q 546 216 529 164 q 563 375 563 268 z "},"ǿ":{"ha":800,"x_min":51,"x_max":749,"o":"m 674 654 q 735 374 735 568 q 701 142 735 224 q 596 26 668 60 q 399 -7 524 -7 q 267 6 322 -7 q 172 47 213 18 l 133 0 l 51 0 l 128 93 q 65 374 65 178 q 99 608 65 526 q 205 722 133 690 q 399 754 276 754 q 535 742 478 754 q 629 700 592 729 l 667 744 l 749 744 l 674 654 m 236 375 q 247 238 236 290 l 525 574 q 477 608 507 599 q 399 617 447 617 q 303 601 338 617 q 253 533 269 585 q 236 375 236 481 m 563 375 q 553 507 563 460 l 275 171 q 323 139 293 147 q 399 131 353 131 q 495 147 461 131 q 546 216 529 164 q 563 375 563 268 m 468 1069 l 610 1069 l 444 876 l 344 876 l 468 1069 z "},"õ":{"ha":800,"x_min":65,"x_max":735,"o":"m 399 -7 q 206 28 278 -7 q 99 144 133 63 q 65 374 65 226 q 99 608 65 526 q 205 722 133 690 q 399 754 276 754 q 594 722 522 754 q 700 606 665 689 q 735 374 735 524 q 701 142 735 224 q 596 26 668 60 q 399 -7 524 -7 m 399 131 q 495 147 461 131 q 546 216 529 164 q 563 375 563 268 q 546 533 563 481 q 495 601 529 585 q 399 617 461 617 q 303 601 338 617 q 253 533 269 585 q 236 375 236 481 q 253 216 236 268 q 303 147 269 164 q 399 131 338 131 m 158 882 q 202 1011 163 971 q 300 1051 242 1051 q 359 1042 333 1051 q 421 1011 385 1032 q 468 987 450 994 q 507 979 486 979 q 556 999 538 979 q 575 1057 574 1019 l 663 1057 q 623 928 660 972 q 522 883 586 883 q 463 894 490 883 q 400 924 435 904 q 351 948 369 940 q 313 956 332 956 q 265 936 283 956 q 244 882 246 917 l 158 882 z "},"ṍ":{"ha":800,"x_min":65,"x_max":735,"o":"m 399 -7 q 206 28 278 -7 q 99 144 133 63 q 65 374 65 226 q 99 608 65 526 q 205 722 133 690 q 399 754 276 754 q 594 722 522 754 q 700 606 665 689 q 735 374 735 524 q 701 142 735 224 q 596 26 668 60 q 399 -7 524 -7 m 399 131 q 495 147 461 131 q 546 216 529 164 q 563 375 563 268 q 546 533 563 481 q 495 601 529 585 q 399 617 461 617 q 303 601 338 617 q 253 533 269 585 q 236 375 236 481 q 253 216 236 268 q 303 147 269 164 q 399 131 338 131 m 158 882 q 202 1011 163 971 q 300 1051 242 1051 q 359 1042 333 1051 q 421 1011 385 1032 q 468 987 450 994 q 507 979 486 979 q 556 999 538 979 q 575 1057 574 1019 l 663 1057 q 623 928 660 972 q 522 883 586 883 q 463 894 490 883 q 400 924 435 904 q 351 948 369 940 q 313 956 332 956 q 265 936 283 956 q 244 882 246 917 l 158 882 m 461 1286 l 603 1286 l 438 1093 l 338 1093 l 461 1286 z "},"ṏ":{"ha":800,"x_min":65,"x_max":735,"o":"m 399 -7 q 206 28 278 -7 q 99 144 133 63 q 65 374 65 226 q 99 608 65 526 q 205 722 133 690 q 399 754 276 754 q 594 722 522 754 q 700 606 665 689 q 735 374 735 524 q 701 142 735 224 q 596 26 668 60 q 399 -7 524 -7 m 399 131 q 495 147 461 131 q 546 216 529 164 q 563 375 563 268 q 546 533 563 481 q 495 601 529 585 q 399 617 461 617 q 303 601 338 617 q 253 533 269 585 q 236 375 236 481 q 253 216 236 268 q 303 147 269 164 q 399 131 338 131 m 158 882 q 202 1011 163 971 q 300 1051 242 1051 q 359 1042 333 1051 q 421 1011 385 1032 q 468 987 450 994 q 507 979 486 979 q 556 999 538 979 q 575 1057 574 1019 l 663 1057 q 623 928 660 972 q 522 883 586 883 q 463 894 490 883 q 400 924 435 904 q 351 948 369 940 q 313 956 332 956 q 265 936 283 956 q 244 882 246 917 l 158 882 m 232 1118 q 213 1125 221 1118 q 206 1144 206 1132 l 206 1269 q 213 1290 206 1282 q 232 1297 219 1297 l 313 1297 q 331 1290 325 1297 q 338 1269 338 1282 l 338 1144 q 313 1118 338 1118 l 232 1118 m 504 1118 q 485 1125 493 1118 q 478 1144 478 1132 l 478 1269 q 504 1297 478 1297 l 585 1297 q 603 1290 597 1297 q 610 1269 610 1282 l 610 1144 q 585 1118 610 1118 l 504 1118 z "},"ȭ":{"ha":800,"x_min":65,"x_max":735,"o":"m 399 -7 q 206 28 278 -7 q 99 144 133 63 q 65 374 65 226 q 99 608 65 526 q 205 722 133 690 q 399 754 276 754 q 594 722 522 754 q 700 606 665 689 q 735 374 735 524 q 701 142 735 224 q 596 26 668 60 q 399 -7 524 -7 m 399 131 q 495 147 461 131 q 546 216 529 164 q 563 375 563 268 q 546 533 563 481 q 495 601 529 585 q 399 617 461 617 q 303 601 338 617 q 253 533 269 585 q 236 375 236 481 q 253 216 236 268 q 303 147 269 164 q 399 131 338 131 m 203 1261 l 585 1261 l 585 1160 l 203 1160 l 203 1261 m 138 882 q 181 1011 142 971 q 279 1051 221 1051 q 338 1042 313 1051 q 400 1011 364 1032 q 447 987 429 994 q 486 979 465 979 q 535 999 517 979 q 554 1057 553 1019 l 642 1057 q 602 928 639 972 q 501 883 565 883 q 442 894 469 883 q 379 924 414 904 q 330 948 349 940 q 292 956 311 956 q 244 936 263 956 q 224 882 225 917 l 138 882 z "},"œ":{"ha":1239,"x_min":65,"x_max":1174,"o":"m 725 310 q 772 165 726 208 q 918 122 817 122 l 1153 122 l 1153 21 q 869 -7 1008 -7 q 649 86 718 -7 q 551 15 613 36 q 397 -7 490 -7 q 205 28 276 -7 q 99 144 133 63 q 65 374 65 226 q 99 608 65 526 q 205 722 133 690 q 399 754 276 754 q 550 733 490 754 q 646 664 610 713 q 736 732 681 710 q 872 754 792 754 q 1047 732 983 754 q 1142 651 1111 710 q 1174 485 1174 593 q 1115 353 1174 397 q 961 310 1057 310 l 725 310 m 872 629 q 756 580 789 629 q 724 414 724 531 l 929 414 q 999 434 975 414 q 1022 503 1022 454 q 988 603 1022 576 q 872 629 954 629 m 399 122 q 495 140 461 122 q 546 210 529 157 q 563 375 563 264 q 546 538 563 485 q 495 608 529 592 q 399 625 461 625 q 303 608 338 625 q 253 538 269 592 q 236 375 236 485 q 253 210 236 264 q 303 140 269 157 q 399 122 338 122 z "},"p":{"ha":810,"x_min":88,"x_max":744,"o":"m 88 744 l 231 744 l 260 671 q 362 730 304 706 q 479 754 419 754 q 680 652 615 754 q 744 372 744 550 q 683 86 744 182 q 479 -10 621 -10 q 365 6 424 -10 q 260 47 307 21 l 260 -329 l 88 -329 l 88 744 m 425 132 q 572 372 572 132 q 533 558 572 500 q 426 615 493 615 q 260 567 351 615 l 260 178 q 339 144 294 157 q 425 132 383 132 z "},"ṗ":{"ha":810,"x_min":88,"x_max":744,"o":"m 88 744 l 231 744 l 260 671 q 362 730 304 706 q 479 754 419 754 q 680 652 615 754 q 744 372 744 550 q 683 86 744 182 q 479 -10 621 -10 q 365 6 424 -10 q 260 47 307 21 l 260 -329 l 88 -329 l 88 744 m 425 132 q 572 372 572 132 q 533 558 572 500 q 426 615 493 615 q 260 567 351 615 l 260 178 q 339 144 294 157 q 425 132 383 132 m 347 903 q 328 910 336 903 q 321 929 321 917 l 321 1054 q 347 1082 321 1082 l 426 1082 q 446 1074 439 1082 q 453 1054 453 1067 l 453 929 q 426 903 453 903 l 347 903 z "},"þ":{"ha":810,"x_min":88,"x_max":744,"o":"m 88 1060 l 260 1060 l 260 671 q 362 730 304 706 q 479 754 419 754 q 677 651 610 754 q 744 372 744 547 q 681 88 744 185 q 479 -10 617 -10 q 365 6 424 -10 q 260 47 307 21 l 260 -329 l 88 -329 l 88 1060 m 425 132 q 572 364 572 132 q 533 556 572 497 q 426 615 493 615 q 260 567 351 615 l 260 178 q 339 144 294 157 q 425 132 383 132 z "},"q":{"ha":806,"x_min":65,"x_max":721,"o":"m 549 72 q 444 14 501 36 q 333 -8 386 -8 q 175 33 233 -8 q 91 156 117 74 q 65 372 65 239 q 133 665 65 576 q 347 754 200 754 q 543 747 440 754 q 721 729 646 739 l 721 -329 l 549 -329 l 549 72 m 382 131 q 467 144 422 131 q 549 179 513 157 l 549 625 l 397 625 q 272 564 308 625 q 236 378 236 503 q 251 230 236 283 q 297 153 265 176 q 382 131 328 131 z "},"r":{"ha":582,"x_min":88,"x_max":550,"o":"m 88 744 l 221 744 l 260 625 q 363 720 308 686 q 488 754 418 754 q 550 746 521 754 l 550 571 q 465 576 497 576 q 353 555 400 576 q 260 486 306 533 l 260 0 l 88 0 l 88 744 z "},"ŕ":{"ha":582,"x_min":88,"x_max":550,"o":"m 88 744 l 221 744 l 260 625 q 363 720 308 686 q 488 754 418 754 q 550 746 521 754 l 550 571 q 465 576 497 576 q 353 555 400 576 q 260 486 306 533 l 260 0 l 88 0 l 88 744 m 372 1069 l 514 1069 l 349 876 l 249 876 l 372 1069 z "}}}
